<svg width="12" height="7" viewBox="0 0 12 7" fill="none" xmlns="http://www.w3.org/2000/svg">
<path d="M9.55526 0.515831L5.99859 4.0725L2.44192 0.515831C2.35706 0.430964 2.25631 0.363645 2.14542 0.317715C2.03454 0.271786 1.9157 0.248145 1.79568 0.248145C1.67566 0.248145 1.55681 0.271786 1.44593 0.317715C1.33504 0.363645 1.23429 0.430964 1.14942 0.515831C1.06456 0.600698 0.997239 0.701449 0.951309 0.812333C0.90538 0.923217 0.881741 1.04206 0.881741 1.16208C0.881741 1.2821 0.90538 1.40095 0.951309 1.51183C0.997239 1.62271 1.06456 1.72346 1.14942 1.80833L5.35693 6.01583C5.44173 6.10081 5.54246 6.16823 5.65335 6.21423C5.76425 6.26023 5.88312 6.28391 6.00318 6.28391C6.12323 6.28391 6.24211 6.26023 6.353 6.21423C6.46389 6.16823 6.56462 6.10081 6.64943 6.01583L10.8569 1.80833C10.9419 1.72353 11.0093 1.6228 11.0553 1.5119C11.1013 1.40101 11.125 1.28214 11.125 1.16208C11.125 1.04203 11.1013 0.923151 11.0553 0.812259C11.0093 0.701366 10.9419 0.600635 10.8569 0.515831C10.4994 0.167498 9.91276 0.158331 9.55526 0.515831Z" fill="white"/>
</svg>
