<svg width="10" height="15" viewBox="0 0 10 15" fill="none" xmlns="http://www.w3.org/2000/svg">
<path d="M1.00117 2.48827L6.01283 7.49994L1.00117 12.5116C0.88158 12.6312 0.786721 12.7732 0.722002 12.9294C0.657283 13.0857 0.623972 13.2531 0.623972 13.4222C0.623972 13.5913 0.657283 13.7588 0.722002 13.9151C0.786721 14.0713 0.88158 14.2133 1.00117 14.3329C1.12075 14.4524 1.26272 14.5473 1.41896 14.612C1.57521 14.6767 1.74267 14.71 1.91179 14.71C2.08091 14.71 2.24837 14.6767 2.40462 14.612C2.56086 14.5473 2.70283 14.4524 2.82242 14.3329L8.75117 8.40411C8.87091 8.28461 8.96591 8.14267 9.03072 7.98641C9.09554 7.83016 9.12891 7.66265 9.12891 7.49348C9.12891 7.32431 9.09554 7.15681 9.03072 7.00055C8.96591 6.84429 8.87091 6.70235 8.75117 6.58286L2.82242 0.654107C2.70292 0.534365 2.56098 0.439366 2.40472 0.374548C2.24846 0.309731 2.08096 0.276367 1.91179 0.276367C1.74262 0.276367 1.57512 0.309731 1.41886 0.374548C1.2626 0.439366 1.12066 0.534365 1.00117 0.654107C0.510332 1.15786 0.497416 1.98452 1.00117 2.48827Z" fill="#1E1E1E"/>
</svg>
