<svg width="215" height="260" viewBox="0 0 215 260" fill="none" xmlns="http://www.w3.org/2000/svg">
<path d="M14.2074 9.34V0.999999H18.3174V22H14.2074V13.3H6.40738V22H2.26738V0.999999H6.40738V9.34H14.2074ZM26.3586 13.33V18.04H35.2086V22H22.2186V0.999999H35.0586V4.96H26.3586V9.43H34.3086V13.33H26.3586ZM57.5668 9.34V0.999999H61.6768V22H57.5668V13.3H49.7668V22H45.6268V0.999999H49.7668V9.34H57.5668ZM83.5779 22H79.0779L77.8179 18.22H69.4479L68.1879 22H63.7179L71.0679 0.999999H76.1979L83.5779 22ZM73.6479 5.77L70.7679 14.35H76.5279L73.6479 5.77ZM105.867 18.04V0.999999H110.007V22H85.617V0.999999H89.757V18.04H95.757V0.999999H99.867V18.04H105.867ZM118.058 13.33V18.04H126.908V22H113.918V0.999999H126.758V4.96H118.058V9.43H126.008V13.33H118.058ZM128.206 22V18.16C129.486 18.34 130.426 18.08 131.026 17.38C131.626 16.66 131.926 15.34 131.926 13.42V0.999999H146.206V22H142.096V4.96H136.036V13.3C136.036 16.92 135.206 19.37 133.546 20.65C132.126 21.77 130.346 22.22 128.206 22ZM155.979 22V18.16C157.259 18.34 158.199 18.08 158.799 17.38C159.399 16.66 159.699 15.34 159.699 13.42V0.999999H173.979V22H169.869V4.96H163.809V13.3C163.809 16.92 162.979 19.37 161.319 20.65C159.899 21.77 158.119 22.22 155.979 22ZM195.543 19.27C193.423 21.37 190.843 22.42 187.803 22.42C184.763 22.42 182.183 21.37 180.063 19.27C177.963 17.13 176.913 14.54 176.913 11.5C176.913 8.44 177.963 5.86 180.063 3.76C182.183 1.64 184.763 0.579999 187.803 0.579999C190.843 0.579999 193.423 1.64 195.543 3.76C197.663 5.86 198.723 8.44 198.723 11.5C198.723 14.56 197.663 17.15 195.543 19.27ZM182.973 16.45C184.253 17.73 185.863 18.37 187.803 18.37C189.743 18.37 191.353 17.73 192.633 16.45C193.933 15.15 194.583 13.5 194.583 11.5C194.583 9.5 193.933 7.85 192.633 6.55C191.333 5.25 189.723 4.6 187.803 4.6C185.883 4.6 184.273 5.25 182.973 6.55C181.673 7.85 181.023 9.5 181.023 11.5C181.023 13.5 181.673 15.15 182.973 16.45ZM198.871 0.999999H214.321V4.96H208.651V22H204.511V4.96H198.871V0.999999ZM0.3625 53H10.8225V67H8.0625V55.64H3.1225V67H0.3625V53ZM25.2089 65.18C23.7956 66.58 22.0756 67.28 20.0489 67.28C18.0222 67.28 16.3022 66.58 14.8889 65.18C13.4889 63.7533 12.7889 62.0267 12.7889 60C12.7889 57.96 13.4889 56.24 14.8889 54.84C16.3022 53.4267 18.0222 52.72 20.0489 52.72C22.0756 52.72 23.7956 53.4267 25.2089 54.84C26.6222 56.24 27.3289 57.96 27.3289 60C27.3289 62.04 26.6222 63.7667 25.2089 65.18ZM16.8289 63.3C17.6822 64.1533 18.7556 64.58 20.0489 64.58C21.3422 64.58 22.4156 64.1533 23.2689 63.3C24.1356 62.4333 24.5689 61.3333 24.5689 60C24.5689 58.6667 24.1356 57.5667 23.2689 56.7C22.4022 55.8333 21.3289 55.4 20.0489 55.4C18.7689 55.4 17.6956 55.8333 16.8289 56.7C15.9622 57.5667 15.5289 58.6667 15.5289 60C15.5289 61.3333 15.9622 62.4333 16.8289 63.3ZM39.4038 53V64.36H40.9038V69.68H38.1438V67H30.4038V69.68H27.6438V64.36H29.0038C29.7771 63.2933 30.1638 61.7133 30.1638 59.62V53H39.4038ZM31.9638 64.36H36.6438V55.58H32.9238V59.66C32.9238 61.7 32.6038 63.2667 31.9638 64.36ZM54.3853 67.28C52.292 67.28 50.552 66.58 49.1653 65.18C47.792 63.7933 47.1053 62.0667 47.1053 60C47.1053 57.92 47.792 56.1933 49.1653 54.82C50.552 53.42 52.292 52.72 54.3853 52.72C55.652 52.72 56.8186 53.02 57.8853 53.62C58.9653 54.2067 59.8053 55.0067 60.4053 56.02L58.0253 57.4C57.6786 56.7733 57.1853 56.2867 56.5453 55.94C55.9053 55.58 55.1853 55.4 54.3853 55.4C53.0253 55.4 51.9253 55.8267 51.0853 56.68C50.2586 57.5467 49.8453 58.6533 49.8453 60C49.8453 61.3333 50.2586 62.4333 51.0853 63.3C51.9253 64.1533 53.0253 64.58 54.3853 64.58C55.1853 64.58 55.9053 64.4067 56.5453 64.06C57.1986 63.7 57.692 63.2133 58.0253 62.6L60.4053 63.98C59.8053 64.9933 58.9653 65.8 57.8853 66.4C56.8186 66.9867 55.652 67.28 54.3853 67.28ZM70.5608 59.74C71.7874 60.4467 72.4008 61.5133 72.4008 62.94C72.4008 64.1267 71.9808 65.1 71.1408 65.86C70.3008 66.62 69.2674 67 68.0408 67H62.1008V53H67.6208C68.8074 53 69.8141 53.3733 70.6408 54.12C71.4674 54.8667 71.8808 55.8067 71.8808 56.94C71.8808 58.1 71.4408 59.0333 70.5608 59.74ZM67.6208 55.58H64.8608V58.66H67.6208C68.0474 58.66 68.4008 58.5133 68.6808 58.22C68.9741 57.9267 69.1208 57.56 69.1208 57.12C69.1208 56.68 68.9808 56.3133 68.7008 56.02C68.4208 55.7267 68.0608 55.58 67.6208 55.58ZM64.8608 64.42H68.0408C68.5074 64.42 68.8941 64.2667 69.2008 63.96C69.5074 63.64 69.6608 63.24 69.6608 62.76C69.6608 62.2933 69.5074 61.9067 69.2008 61.6C68.8941 61.28 68.5074 61.12 68.0408 61.12H64.8608V64.42ZM85.9902 65.18C84.5768 66.58 82.8568 67.28 80.8302 67.28C78.8035 67.28 77.0835 66.58 75.6702 65.18C74.2702 63.7533 73.5702 62.0267 73.5702 60C73.5702 57.96 74.2702 56.24 75.6702 54.84C77.0835 53.4267 78.8035 52.72 80.8302 52.72C82.8568 52.72 84.5768 53.4267 85.9902 54.84C87.4035 56.24 88.1102 57.96 88.1102 60C88.1102 62.04 87.4035 63.7667 85.9902 65.18ZM77.6102 63.3C78.4635 64.1533 79.5368 64.58 80.8302 64.58C82.1235 64.58 83.1968 64.1533 84.0502 63.3C84.9168 62.4333 85.3502 61.3333 85.3502 60C85.3502 58.6667 84.9168 57.5667 84.0502 56.7C83.1835 55.8333 82.1102 55.4 80.8302 55.4C79.5502 55.4 78.4768 55.8333 77.6102 56.7C76.7435 57.5667 76.3102 58.6667 76.3102 60C76.3102 61.3333 76.7435 62.4333 77.6102 63.3ZM100.91 67H98.15V58.46L92.15 67H90.05V53H92.81V61.56L98.81 53H100.91V67ZM114.067 59.8L119.447 67H116.267L111.267 60.44V67H108.507V53H111.267V59.18L116.067 53H119.247L114.067 59.8ZM120.812 53H126.032C127.365 53 128.498 53.4533 129.432 54.36C130.352 55.2667 130.812 56.38 130.812 57.7C130.812 59.02 130.352 60.1333 129.432 61.04C128.498 61.9467 127.365 62.4 126.032 62.4H123.572V67H120.812V53ZM123.572 59.82H126.032C126.618 59.82 127.105 59.62 127.492 59.22C127.878 58.8067 128.072 58.3 128.072 57.7C128.072 57.0867 127.878 56.58 127.492 56.18C127.105 55.78 126.618 55.58 126.032 55.58H123.572V59.82ZM143.469 67H140.709V58.46L134.709 67H132.609V53H135.369V61.56L141.369 53H143.469V67ZM145.026 53H155.326V55.64H151.546V67H148.786V55.64H145.026V53ZM159.626 61.22V64.36H165.526V67H156.866V53H165.426V55.64H159.626V58.62H164.926V61.22H159.626ZM167.472 53H172.692C174.025 53 175.159 53.4533 176.092 54.36C177.012 55.2667 177.472 56.38 177.472 57.7C177.472 59.02 177.012 60.1333 176.092 61.04C175.159 61.9467 174.025 62.4 172.692 62.4H170.232V67H167.472V53ZM170.232 59.82H172.692C173.279 59.82 173.765 59.62 174.152 59.22C174.539 58.8067 174.732 58.3 174.732 57.7C174.732 57.0867 174.539 56.58 174.152 56.18C173.765 55.78 173.279 55.58 172.692 55.58H170.232V59.82ZM190.129 67H187.369V58.46L181.369 67H179.269V53H182.029V61.56L188.029 53H190.129V67ZM203.586 67H200.826V58.46L194.826 67H192.726V53H195.486V61.56L201.486 53H203.586V67ZM211.543 62.3H208.783C208.783 61.7533 208.949 61.2133 209.283 60.68C209.616 60.1467 210.009 59.7 210.463 59.34C211.583 58.4333 212.143 57.6067 212.143 56.86C212.143 56.3933 211.983 56.0333 211.663 55.78C211.343 55.5267 210.896 55.4 210.323 55.4C209.203 55.4 208.409 55.9933 207.943 57.18L205.583 55.82C205.983 54.8467 206.616 54.0867 207.483 53.54C208.349 52.9933 209.329 52.72 210.423 52.72C211.623 52.72 212.669 53.0733 213.563 53.78C214.456 54.4733 214.903 55.4333 214.903 56.66C214.903 57.2067 214.783 57.7267 214.543 58.22C214.316 58.7 214.036 59.1133 213.703 59.46C213.383 59.7933 213.056 60.1133 212.723 60.42C212.403 60.7133 212.123 61.02 211.883 61.34C211.656 61.66 211.543 61.98 211.543 62.3ZM211.863 65.56C211.863 66.0267 211.696 66.4267 211.363 66.76C211.029 67.0933 210.629 67.26 210.163 67.26C209.696 67.26 209.296 67.0933 208.963 66.76C208.629 66.4267 208.463 66.0267 208.463 65.56C208.463 65.0933 208.629 64.6933 208.963 64.36C209.296 64.0267 209.696 63.86 210.163 63.86C210.629 63.86 211.029 64.0267 211.363 64.36C211.696 64.6933 211.863 65.0933 211.863 65.56ZM9.22621 209.7H19.1632V223H16.5412V212.208H11.8482V223H9.22621V209.7ZM32.8303 221.271C31.4876 222.601 29.8536 223.266 27.9283 223.266C26.003 223.266 24.369 222.601 23.0263 221.271C21.6963 219.916 21.0313 218.275 21.0313 216.35C21.0313 214.412 21.6963 212.778 23.0263 211.448C24.369 210.105 26.003 209.434 27.9283 209.434C29.8536 209.434 31.4876 210.105 32.8303 211.448C34.173 212.778 34.8443 214.412 34.8443 216.35C34.8443 218.288 34.173 219.928 32.8303 221.271ZM24.8693 219.485C25.68 220.296 26.6996 220.701 27.9283 220.701C29.157 220.701 30.1766 220.296 30.9873 219.485C31.8106 218.662 32.2223 217.617 32.2223 216.35C32.2223 215.083 31.8106 214.038 30.9873 213.215C30.164 212.392 29.1443 211.98 27.9283 211.98C26.7123 211.98 25.6926 212.392 24.8693 213.215C24.046 214.038 23.6343 215.083 23.6343 216.35C23.6343 217.617 24.046 218.662 24.8693 219.485ZM47.0041 209.7H49.7021V223H47.0991V214.374L43.3561 220.549H43.0521L39.3091 214.393V223H36.6871V209.7H39.3851L43.2041 215.989L47.0041 209.7ZM63.3713 221.271C62.0286 222.601 60.3946 223.266 58.4693 223.266C56.544 223.266 54.91 222.601 53.5673 221.271C52.2373 219.916 51.5723 218.275 51.5723 216.35C51.5723 214.412 52.2373 212.778 53.5673 211.448C54.91 210.105 56.544 209.434 58.4693 209.434C60.3946 209.434 62.0286 210.105 63.3713 211.448C64.714 212.778 65.3853 214.412 65.3853 216.35C65.3853 218.288 64.714 219.928 63.3713 221.271ZM55.4103 219.485C56.221 220.296 57.2406 220.701 58.4693 220.701C59.698 220.701 60.7176 220.296 61.5283 219.485C62.3516 218.662 62.7633 217.617 62.7633 216.35C62.7633 215.083 62.3516 214.038 61.5283 213.215C60.705 212.392 59.6853 211.98 58.4693 211.98C57.2533 211.98 56.2336 212.392 55.4103 213.215C54.587 214.038 54.1753 215.083 54.1753 216.35C54.1753 217.617 54.587 218.662 55.4103 219.485ZM67.2282 209.7H74.7902V212.208H69.8502V223H67.2282V209.7ZM80.9767 216.122L83.5987 209.7H86.2207L82.2307 219.333C81.1667 221.917 79.4187 223.139 76.9867 223V220.549C77.6834 220.612 78.2471 220.517 78.6777 220.264C79.1211 220.011 79.4947 219.586 79.7987 218.991L75.4477 209.7H78.0697L80.9767 216.122ZM86.6503 209.7H96.4353V212.208H92.8443V223H90.2223V212.208H86.6503V209.7ZM110.686 216.103C111.851 216.774 112.434 217.788 112.434 219.143C112.434 220.27 112.035 221.195 111.237 221.917C110.439 222.639 109.457 223 108.292 223H102.649V209.7H107.893C109.02 209.7 109.977 210.055 110.762 210.764C111.547 211.473 111.94 212.366 111.94 213.443C111.94 214.545 111.522 215.432 110.686 216.103ZM107.893 212.151H105.271V215.077H107.893C108.298 215.077 108.634 214.938 108.9 214.659C109.179 214.38 109.318 214.032 109.318 213.614C109.318 213.196 109.185 212.848 108.919 212.569C108.653 212.29 108.311 212.151 107.893 212.151ZM105.271 220.549H108.292C108.735 220.549 109.103 220.403 109.394 220.112C109.685 219.808 109.831 219.428 109.831 218.972C109.831 218.529 109.685 218.161 109.394 217.87C109.103 217.566 108.735 217.414 108.292 217.414H105.271V220.549ZM125.553 223H122.703L121.905 220.606H116.604L115.806 223H112.975L117.63 209.7H120.879L125.553 223ZM119.264 212.721L117.44 218.155H121.088L119.264 212.721ZM137.161 209.7H139.859V223H137.256V214.374L133.513 220.549H133.209L129.466 214.393V223H126.844V209.7H129.542L133.361 215.989L137.161 209.7ZM154.65 214.982V209.7H157.253V223H154.65V217.49H149.71V223H147.088V209.7H149.71V214.982H154.65ZM171.123 223H168.273L167.475 220.606H162.174L161.376 223H158.545L163.2 209.7H166.449L171.123 223ZM164.834 212.721L163.01 218.155H166.658L164.834 212.721ZM180.319 208.484H174.809V206.356H180.319V208.484ZM182.732 223H180.11V214.887L174.41 223H172.415V209.7H175.037V217.832L180.737 209.7H182.732V223ZM184.211 209.7H193.996V212.208H190.405V223H187.783V212.208H184.211V209.7ZM205.777 223H203.155V214.887L197.455 223H195.46V209.7H198.082V217.832L203.782 209.7H205.777V223ZM22.6457 259H19.6457L18.8057 256.48H13.2257L12.3857 259H9.4057L14.3057 245H17.7257L22.6457 259ZM16.0257 248.18L14.1057 253.9H17.9457L16.0257 248.18ZM32.4651 251.74C33.6917 252.447 34.3051 253.513 34.3051 254.94C34.3051 256.127 33.8851 257.1 33.0451 257.86C32.2051 258.62 31.1717 259 29.9451 259H24.0051V245H29.5251C30.7117 245 31.7184 245.373 32.5451 246.12C33.3717 246.867 33.7851 247.807 33.7851 248.94C33.7851 250.1 33.3451 251.033 32.4651 251.74ZM29.5251 247.58H26.7651V250.66H29.5251C29.9517 250.66 30.3051 250.513 30.5851 250.22C30.8784 249.927 31.0251 249.56 31.0251 249.12C31.0251 248.68 30.8851 248.313 30.6051 248.02C30.3251 247.727 29.9651 247.58 29.5251 247.58ZM26.7651 256.42H29.9451C30.4117 256.42 30.7984 256.267 31.1051 255.96C31.4117 255.64 31.5651 255.24 31.5651 254.76C31.5651 254.293 31.4117 253.907 31.1051 253.6C30.7984 253.28 30.4117 253.12 29.9451 253.12H26.7651V256.42ZM34.6838 245H44.9838V247.64H41.2038V259H38.4438V247.64H34.6838V245ZM57.5038 257.18C56.0905 258.58 54.3705 259.28 52.3438 259.28C50.3172 259.28 48.5972 258.58 47.1838 257.18C45.7838 255.753 45.0838 254.027 45.0838 252C45.0838 249.96 45.7838 248.24 47.1838 246.84C48.5972 245.427 50.3172 244.72 52.3438 244.72C54.3705 244.72 56.0905 245.427 57.5038 246.84C58.9172 248.24 59.6238 249.96 59.6238 252C59.6238 254.04 58.9172 255.767 57.5038 257.18ZM49.1238 255.3C49.9772 256.153 51.0505 256.58 52.3438 256.58C53.6372 256.58 54.7105 256.153 55.5638 255.3C56.4305 254.433 56.8638 253.333 56.8638 252C56.8638 250.667 56.4305 249.567 55.5638 248.7C54.6972 247.833 53.6238 247.4 52.3438 247.4C51.0638 247.4 49.9905 247.833 49.1238 248.7C48.2572 249.567 47.8238 250.667 47.8238 252C47.8238 253.333 48.2572 254.433 49.1238 255.3ZM75.0237 251.74C76.2503 252.447 76.8637 253.513 76.8637 254.94C76.8637 256.127 76.4437 257.1 75.6037 257.86C74.7637 258.62 73.7303 259 72.5037 259H66.5637V245H72.0837C73.2703 245 74.277 245.373 75.1037 246.12C75.9303 246.867 76.3437 247.807 76.3437 248.94C76.3437 250.1 75.9037 251.033 75.0237 251.74ZM72.0837 247.58H69.3237V250.66H72.0837C72.5103 250.66 72.8637 250.513 73.1437 250.22C73.437 249.927 73.5837 249.56 73.5837 249.12C73.5837 248.68 73.4437 248.313 73.1637 248.02C72.8837 247.727 72.5237 247.58 72.0837 247.58ZM69.3237 256.42H72.5037C72.9703 256.42 73.357 256.267 73.6637 255.96C73.9703 255.64 74.1237 255.24 74.1237 254.76C74.1237 254.293 73.9703 253.907 73.6637 253.6C73.357 253.28 72.9703 253.12 72.5037 253.12H69.3237V256.42ZM90.673 259H87.673L86.833 256.48H81.253L80.413 259H77.433L82.333 245H85.753L90.673 259ZM84.053 248.18L82.133 253.9H85.973L84.053 248.18ZM105.532 256.36V245H108.292V259H92.0324V245H94.7924V256.36H98.7924V245H101.532V256.36H105.532ZM113.66 253.22V256.36H119.56V259H110.9V245H119.46V247.64H113.66V250.62H118.96V253.22H113.66ZM129.825 243.72H124.025V241.48H129.825V243.72ZM132.365 259H129.605V250.46L123.605 259H121.505V245H124.265V253.56L130.265 245H132.365V259ZM150.822 245H153.662V259H150.922V249.92L146.982 256.42H146.662L142.722 249.94V259H139.962V245H142.802L146.822 251.62L150.822 245ZM159.031 253.22V256.36H164.931V259H156.271V245H164.831V247.64H159.031V250.62H164.331V253.22H159.031ZM174.176 251.2V245H176.936V259H174.176V253.88C173.323 254.24 172.41 254.42 171.436 254.42C170.036 254.42 168.87 254.027 167.936 253.24C167.03 252.44 166.576 251.36 166.576 250V245H169.336V249.64C169.336 250.307 169.53 250.833 169.916 251.22C170.316 251.593 170.843 251.78 171.496 251.78C172.443 251.78 173.336 251.587 174.176 251.2ZM178.492 245H188.792V247.64H185.012V259H182.252V247.64H178.492V245ZM195.553 259H190.333V245H193.093V249.6H195.553C196.887 249.6 198.02 250.053 198.953 250.96C199.873 251.867 200.333 252.98 200.333 254.3C200.333 255.62 199.873 256.733 198.953 257.64C198.02 258.547 196.887 259 195.553 259ZM204.353 259H201.613V245H204.353V259ZM193.093 252.18V256.42H195.553C196.14 256.42 196.627 256.22 197.013 255.82C197.4 255.42 197.593 254.913 197.593 254.3C197.593 253.687 197.4 253.18 197.013 252.78C196.627 252.38 196.14 252.18 195.553 252.18H193.093Z" fill="#A02C12"/>
<path d="M10.102 144.57C11.102 145.09 11.602 145.92 11.602 147.06C11.602 147.99 11.247 148.75 10.537 149.34C9.83701 149.92 8.92201 150.21 7.79201 150.21C5.84201 150.21 4.53701 149.385 3.87701 147.735L5.66201 146.73C5.97201 147.75 6.68201 148.26 7.79201 148.26C8.35201 148.26 8.78201 148.145 9.08201 147.915C9.39201 147.675 9.54701 147.345 9.54701 146.925C9.54701 146.505 9.39701 146.18 9.09701 145.95C8.79701 145.71 8.37701 145.59 7.83701 145.59H6.53201V143.745H7.52201C8.04201 143.745 8.44701 143.635 8.73701 143.415C9.02701 143.185 9.17201 142.875 9.17201 142.485C9.17201 142.085 9.04201 141.775 8.78201 141.555C8.53201 141.335 8.16701 141.225 7.68701 141.225C6.78701 141.225 6.15701 141.665 5.79701 142.545L4.04201 141.525C4.75201 140.035 5.96701 139.29 7.68701 139.29C8.71701 139.29 9.56701 139.57 10.237 140.13C10.897 140.68 11.227 141.42 11.227 142.35C11.227 143.29 10.852 144.03 10.102 144.57ZM21.9452 150H19.6952L19.0652 148.11H14.8802L14.2502 150H12.0152L15.6902 139.5H18.2552L21.9452 150ZM16.9802 141.885L15.5402 146.175H18.4202L16.9802 141.885ZM27.1347 144.6L31.1697 150H28.7847L25.0347 145.08V150H22.9647V139.5H25.0347V144.135L28.6347 139.5H31.0197L27.1347 144.6ZM41.4569 150H39.2069L38.5769 148.11H34.3919L33.7619 150H31.5269L35.2019 139.5H37.7669L41.4569 150ZM36.4919 141.885L35.0519 146.175H37.9319L36.4919 141.885ZM51.2215 144.645L54.8815 150H52.5715L49.3165 145.215V150H47.2465V145.215L43.9915 150H41.6965L45.3415 144.645L41.8465 139.5H44.1415L47.2465 144.18V139.5H49.3165V144.18L52.4215 139.5H54.7315L51.2215 144.645ZM64.1859 150H62.1159V143.595L57.6159 150H56.0409V139.5H58.1109V145.92L62.6109 139.5H64.1859V150ZM78.7187 148.635C77.6587 149.685 76.3687 150.21 74.8487 150.21C73.3287 150.21 72.0387 149.685 70.9787 148.635C69.9287 147.565 69.4037 146.27 69.4037 144.75C69.4037 143.22 69.9287 141.93 70.9787 140.88C72.0387 139.82 73.3287 139.29 74.8487 139.29C76.3687 139.29 77.6587 139.82 78.7187 140.88C79.7787 141.93 80.3087 143.22 80.3087 144.75C80.3087 146.28 79.7787 147.575 78.7187 148.635ZM72.4337 147.225C73.0737 147.865 73.8787 148.185 74.8487 148.185C75.8187 148.185 76.6237 147.865 77.2637 147.225C77.9137 146.575 78.2387 145.75 78.2387 144.75C78.2387 143.75 77.9137 142.925 77.2637 142.275C76.6137 141.625 75.8087 141.3 74.8487 141.3C73.8887 141.3 73.0837 141.625 72.4337 142.275C71.7837 142.925 71.4587 143.75 71.4587 144.75C71.4587 145.75 71.7837 146.575 72.4337 147.225ZM83.8336 143.475H85.7836C86.8136 143.475 87.6486 143.78 88.2886 144.39C88.9386 144.99 89.2636 145.77 89.2636 146.73C89.2636 147.69 88.9386 148.48 88.2886 149.1C87.6486 149.7 86.8136 150 85.7836 150H81.7636V139.5H88.3636V141.48H83.8336V143.475ZM83.8336 148.065H85.7836C86.2036 148.065 86.5436 147.945 86.8036 147.705C87.0736 147.465 87.2086 147.14 87.2086 146.73C87.2086 146.32 87.0736 146 86.8036 145.77C86.5436 145.53 86.2036 145.41 85.7836 145.41H83.8336V148.065ZM90.538 139.5H94.453C95.453 139.5 96.303 139.84 97.003 140.52C97.693 141.2 98.038 142.035 98.038 143.025C98.038 144.015 97.693 144.85 97.003 145.53C96.303 146.21 95.453 146.55 94.453 146.55H92.608V150H90.538V139.5ZM92.608 144.615H94.453C94.893 144.615 95.258 144.465 95.548 144.165C95.838 143.855 95.983 143.475 95.983 143.025C95.983 142.565 95.838 142.185 95.548 141.885C95.258 141.585 94.893 141.435 94.453 141.435H92.608V144.615ZM107.316 150H105.066L104.436 148.11H100.251L99.6213 150H97.3863L101.061 139.5H103.626L107.316 150ZM102.351 141.885L100.911 146.175H103.791L102.351 141.885ZM106.794 139.5H114.519V141.48H111.684V150H109.614V141.48H106.794V139.5ZM121.645 143.67V139.5H123.7V150H121.645V145.65H117.745V150H115.675V139.5H117.745V143.67H121.645ZM129.565 150H125.65V139.5H127.72V142.95H129.565C130.565 142.95 131.415 143.29 132.115 143.97C132.805 144.65 133.15 145.485 133.15 146.475C133.15 147.465 132.805 148.3 132.115 148.98C131.415 149.66 130.565 150 129.565 150ZM136.165 150H134.11V139.5H136.165V150ZM127.72 144.885V148.065H129.565C130.005 148.065 130.37 147.915 130.66 147.615C130.95 147.315 131.095 146.935 131.095 146.475C131.095 146.015 130.95 145.635 130.66 145.335C130.37 145.035 130.005 144.885 129.565 144.885H127.72ZM144.356 138.54H140.006V136.86H144.356V138.54ZM146.261 150H144.191V143.595L139.691 150H138.116V139.5H140.186V145.92L144.686 139.5H146.261V150ZM157.524 144.57C158.524 145.09 159.024 145.92 159.024 147.06C159.024 147.99 158.669 148.75 157.959 149.34C157.259 149.92 156.344 150.21 155.214 150.21C153.264 150.21 151.959 149.385 151.299 147.735L153.084 146.73C153.394 147.75 154.104 148.26 155.214 148.26C155.774 148.26 156.204 148.145 156.504 147.915C156.814 147.675 156.969 147.345 156.969 146.925C156.969 146.505 156.819 146.18 156.519 145.95C156.219 145.71 155.799 145.59 155.259 145.59H153.954V143.745H154.944C155.464 143.745 155.869 143.635 156.159 143.415C156.449 143.185 156.594 142.875 156.594 142.485C156.594 142.085 156.464 141.775 156.204 141.555C155.954 141.335 155.589 141.225 155.109 141.225C154.209 141.225 153.579 141.665 153.219 142.545L151.464 141.525C152.174 140.035 153.389 139.29 155.109 139.29C156.139 139.29 156.989 139.57 157.659 140.13C158.319 140.68 158.649 141.42 158.649 142.35C158.649 143.29 158.274 144.03 157.524 144.57ZM166.712 144.555C167.632 145.085 168.092 145.885 168.092 146.955C168.092 147.845 167.777 148.575 167.147 149.145C166.517 149.715 165.742 150 164.822 150H160.367V139.5H164.507C165.397 139.5 166.152 139.78 166.772 140.34C167.392 140.9 167.702 141.605 167.702 142.455C167.702 143.325 167.372 144.025 166.712 144.555ZM164.507 141.435H162.437V143.745H164.507C164.827 143.745 165.092 143.635 165.302 143.415C165.522 143.195 165.632 142.92 165.632 142.59C165.632 142.26 165.527 141.985 165.317 141.765C165.107 141.545 164.837 141.435 164.507 141.435ZM162.437 148.065H164.822C165.172 148.065 165.462 147.95 165.692 147.72C165.922 147.48 166.037 147.18 166.037 146.82C166.037 146.47 165.922 146.18 165.692 145.95C165.462 145.71 165.172 145.59 164.822 145.59H162.437V148.065ZM178.284 148.635C177.224 149.685 175.934 150.21 174.414 150.21C172.894 150.21 171.604 149.685 170.544 148.635C169.494 147.565 168.969 146.27 168.969 144.75C168.969 143.22 169.494 141.93 170.544 140.88C171.604 139.82 172.894 139.29 174.414 139.29C175.934 139.29 177.224 139.82 178.284 140.88C179.344 141.93 179.874 143.22 179.874 144.75C179.874 146.28 179.344 147.575 178.284 148.635ZM171.999 147.225C172.639 147.865 173.444 148.185 174.414 148.185C175.384 148.185 176.189 147.865 176.829 147.225C177.479 146.575 177.804 145.75 177.804 144.75C177.804 143.75 177.479 142.925 176.829 142.275C176.179 141.625 175.374 141.3 174.414 141.3C173.454 141.3 172.649 141.625 171.999 142.275C171.349 142.925 171.024 143.75 171.024 144.75C171.024 145.75 171.349 146.575 171.999 147.225ZM187.299 143.67V139.5H189.354V150H187.299V145.65H183.399V150H181.329V139.5H183.399V143.67H187.299ZM200.14 148.635C199.08 149.685 197.79 150.21 196.27 150.21C194.75 150.21 193.46 149.685 192.4 148.635C191.35 147.565 190.825 146.27 190.825 144.75C190.825 143.22 191.35 141.93 192.4 140.88C193.46 139.82 194.75 139.29 196.27 139.29C197.79 139.29 199.08 139.82 200.14 140.88C201.2 141.93 201.73 143.22 201.73 144.75C201.73 146.28 201.2 147.575 200.14 148.635ZM193.855 147.225C194.495 147.865 195.3 148.185 196.27 148.185C197.24 148.185 198.045 147.865 198.685 147.225C199.335 146.575 199.66 145.75 199.66 144.75C199.66 143.75 199.335 142.925 198.685 142.275C198.035 141.625 197.23 141.3 196.27 141.3C195.31 141.3 194.505 141.625 193.855 142.275C193.205 142.925 192.88 143.75 192.88 144.75C192.88 145.75 193.205 146.575 193.855 147.225ZM207.354 144.6L211.389 150H209.004L205.254 145.08V150H203.184V139.5H205.254V144.135L208.854 139.5H211.239L207.354 144.6ZM19.1153 186H16.0793V176.606L9.47926 186H7.16926V170.6H10.2053V180.016L16.8053 170.6H19.1153V186ZM36.228 176.716V170.6H39.242V186H36.228V179.62H30.508V186H27.472V170.6H30.508V176.716H36.228ZM55.3029 186H52.0029L51.0789 183.228H44.9409L44.0169 186H40.7389L46.1289 170.6H49.8909L55.3029 186ZM48.0209 174.098L45.9089 180.39H50.1329L48.0209 174.098ZM71.6482 183.096V170.6H74.6842V186H56.7982V170.6H59.8342V183.096H64.2342V170.6H67.2482V183.096H71.6482ZM89.4981 186H86.4621V176.606L79.8621 186H77.5521V170.6H80.5881V180.016L87.1881 170.6H89.4981V186ZM103.641 170.292C105.958 170.292 107.872 171.062 109.383 172.602C110.893 174.113 111.649 176.012 111.649 178.3C111.649 180.573 110.893 182.473 109.383 183.998C107.872 185.538 105.958 186.308 103.641 186.308C102.247 186.308 100.964 185.985 99.7908 185.34C98.6175 184.68 97.7008 183.793 97.0408 182.678L99.6588 181.16C100.025 181.835 100.561 182.37 101.265 182.766C101.983 183.147 102.775 183.338 103.641 183.338C104.873 183.338 105.914 183.015 106.765 182.37C107.63 181.71 108.195 180.823 108.459 179.708H101.595V176.87H108.459C108.195 175.755 107.63 174.875 106.765 174.23C105.914 173.57 104.873 173.24 103.641 173.24C102.775 173.24 101.991 173.438 101.287 173.834C100.583 174.215 100.04 174.751 99.6588 175.44L97.0408 173.922C97.7008 172.807 98.6175 171.927 99.7908 171.282C100.979 170.622 102.262 170.292 103.641 170.292ZM119.891 178.08L125.809 186H122.311L116.811 178.784V186H113.775V170.6H116.811V177.398L122.091 170.6H125.589L119.891 178.08ZM133.303 186.308C131.001 186.308 129.087 185.538 127.561 183.998C126.051 182.473 125.295 180.573 125.295 178.3C125.295 176.012 126.051 174.113 127.561 172.602C129.087 171.062 131.001 170.292 133.303 170.292C134.697 170.292 135.98 170.622 137.153 171.282C138.341 171.927 139.265 172.807 139.925 173.922L137.307 175.44C136.926 174.751 136.383 174.215 135.679 173.834C134.975 173.438 134.183 173.24 133.303 173.24C131.807 173.24 130.597 173.709 129.673 174.648C128.764 175.601 128.309 176.819 128.309 178.3C128.309 179.767 128.764 180.977 129.673 181.93C130.597 182.869 131.807 183.338 133.303 183.338C134.183 183.338 134.975 183.147 135.679 182.766C136.398 182.37 136.941 181.835 137.307 181.16L139.925 182.678C139.265 183.793 138.341 184.68 137.153 185.34C135.98 185.985 134.697 186.308 133.303 186.308ZM141.79 170.6H153.296V186H150.26V173.504H144.826V186H141.79V170.6ZM159.199 179.642V183.096H165.689V186H156.163V170.6H165.579V173.504H159.199V176.782H165.029V179.642H159.199ZM167.829 170.6H173.571C175.038 170.6 176.285 171.099 177.311 172.096C178.323 173.093 178.829 174.318 178.829 175.77C178.829 177.222 178.323 178.447 177.311 179.444C176.285 180.441 175.038 180.94 173.571 180.94H170.865V186H167.829V170.6ZM170.865 178.102H173.571C174.217 178.102 174.752 177.882 175.177 177.442C175.603 176.987 175.815 176.43 175.815 175.77C175.815 175.095 175.603 174.538 175.177 174.098C174.752 173.658 174.217 173.438 173.571 173.438H170.865V178.102ZM179.383 170.6H190.713V173.504H186.555V186H183.519V173.504H179.383V170.6ZM198.15 186H192.408V170.6H195.444V175.66H198.15C199.616 175.66 200.863 176.159 201.89 177.156C202.902 178.153 203.408 179.378 203.408 180.83C203.408 182.282 202.902 183.507 201.89 184.504C200.863 185.501 199.616 186 198.15 186ZM207.83 186H204.816V170.6H207.83V186ZM195.444 178.498V183.162H198.15C198.795 183.162 199.33 182.942 199.756 182.502C200.181 182.062 200.394 181.505 200.394 180.83C200.394 180.155 200.181 179.598 199.756 179.158C199.33 178.718 198.795 178.498 198.15 178.498H195.444Z" fill="#1E1E1E"/>
</svg>
