<svg width="2701" height="967" viewBox="0 0 2701 967" fill="none" xmlns="http://www.w3.org/2000/svg">
<path d="M1353.88 667.305V95.6609C1351.33 85.1843 1346.29 75.5091 1339.63 66.661C1287.76 -2.24677 1186.76 0.648816 1100.52 1.93058L398.641 12.3624C392.485 12.4539 386.269 12.9607 380.564 15.2763C357.758 24.5342 334.797 49.1876 318.266 70.0327C311.52 78.5398 305.872 87.8399 300.87 97.4765L8.88385 660C-22.0273 714.61 35.6246 754.607 61.3839 756H1230.42C1314.98 744.855 1347.96 692.226 1353.88 667.305Z" fill="#FF0000"/>
<path d="M1353.88 88.6953V660.339C1357.62 675.184 1366.49 688.42 1377.99 699.974C1433.59 755.854 1521.07 756 1599.9 756L2639.88 756C2673.57 756 2700.88 728.689 2700.88 695V61C2700.88 27.3106 2673.57 0 2639.88 0L1481.25 0C1394.02 11.145 1359.99 63.7739 1353.88 88.6953Z" fill="#828282"/>
<path fill-rule="evenodd" clip-rule="evenodd" d="M99.8538 677.145H197.73C203.469 677.145 208.768 674.071 211.618 669.09L274.52 559.134H672.693C673.207 560.19 673.814 561.505 674.526 563.046C686.538 589.053 728.314 679.505 853.18 679.505H1286.33C1295.17 679.505 1302.33 672.341 1302.33 663.505V578.594C1302.33 569.882 1295.36 562.771 1286.65 562.597L853.18 553.941C820.113 549.788 790.415 510.36 779.699 491.166L566.605 103.158C558.645 93.8766 537.305 74.7456 515.628 72.4766H426.992C416.736 72.3193 392.548 76.7209 375.097 103.158L85.6914 653.7C80.0907 664.354 87.8172 677.145 99.8538 677.145ZM328.253 457.648H614.827L486.154 205.128C480.615 194.256 465.103 194.196 459.478 205.024L328.253 457.648Z" fill="white"/>
<path d="M665.562 200.392L782.625 414.692L785.458 274.972C789.989 211.532 839.269 195.671 863.342 195.671L1287.48 190.21C1296.23 190.098 1303.27 182.968 1303.27 174.212V88C1303.27 79.1634 1296.11 72 1287.27 72H849.181C711.349 75.7762 669.339 159.168 665.562 200.392Z" fill="white"/>
<path d="M1519.82 74.3757H1411.88C1403.05 74.3757 1395.88 81.5391 1395.88 90.3756V661.986C1395.88 670.823 1403.05 677.986 1411.88 677.986H1519.82C1528.66 677.986 1535.82 670.823 1535.82 661.986V428.802H1707.93C1733.67 428.802 1758.15 446.421 1767.18 455.231L1925.5 641.175C1955.73 671.379 2023.9 678.301 2054.2 677.986H2495.46C2566.56 679.119 2586.03 610.813 2586.88 576.519V337.2C2586.88 328.363 2579.72 321.2 2570.88 321.2H2175.92C2167.08 321.2 2159.92 328.363 2159.92 337.2V411.386C2159.92 420.223 2167.08 427.386 2175.92 427.386H2449.27C2454.77 427.386 2459.23 431.808 2459.26 437.305C2459.42 465.546 2459.56 511.657 2459.2 528.381C2458.79 547.259 2437.58 553.866 2427.03 554.81H2054.2C2021.11 552.545 1994.45 527.752 1985.25 515.639C1921.92 435.881 1883.11 390.103 1845.83 371.697C1855.22 371.697 1934.18 276.995 1972.49 229.643C1987.6 203.97 2033.26 197.237 2054.2 197.08L2571.02 192.501C2579.81 192.423 2586.88 185.283 2586.88 176.501V88.016C2586.88 79.1794 2579.72 72.016 2570.88 72.016H2054.2C1981.88 71.2608 1928.39 97.5007 1910.69 110.715L1761.56 290.996C1740.31 320.822 1695.85 325.762 1676.27 324.504L1535.82 321.2V90.3757C1535.82 81.5391 1528.66 74.3757 1519.82 74.3757Z" fill="white"/>
<path fill-rule="evenodd" clip-rule="evenodd" d="M421.193 812.348C409.931 815.069 400.691 825.859 398.9 838.373C398.173 843.459 397.878 868.941 398.247 895.003C398.849 937.77 399.316 943.101 403.035 949.7C410.444 962.852 416.74 966.08 434.97 966.08C453.683 966.08 459.704 962.793 466.762 948.727C470.728 940.826 471.025 936.633 471.025 888.541C471.025 830.848 469.853 824.879 456.9 816.647C448.869 811.543 432.613 809.587 421.193 812.348ZM629.12 811.745C619.181 813.828 609.207 823.186 606.368 833.092C604.775 838.653 603.914 859.216 603.914 891.729C603.914 938.386 604.204 942.336 608.175 949.633C614.753 961.729 621.089 965.477 636.973 966.664C648.4 967.519 652.603 966.877 659.89 963.162C673.459 956.246 676.024 949.663 676.024 921.752V898.234H660.572H645.12V914.211C645.12 932.028 643.956 937.003 639.788 937.003C635.27 937.003 634.643 929.863 635.263 885.31C635.826 844.949 636.009 843.31 639.969 843.31C643.655 843.31 644.154 844.958 644.695 858.926L645.301 874.541H660.663H676.024V855.07C676.024 831.918 671.926 821.069 661.19 815.792C652.873 811.704 638.166 809.85 629.12 811.745ZM53.7411 814.771C53.669 817.466 52.6595 828.481 46.594 892.849C44.8077 911.803 42.7906 935.793 42.1149 946.157L40.8828 965.003H55.3502C71.3092 965.003 72.2673 964.062 72.3291 948.311C72.3559 941.802 72.8462 941.311 79.3114 941.311C85.4511 941.311 86.4153 942.099 87.5526 948.042C88.2613 951.744 88.8403 957.075 88.8403 959.888C88.8403 964.827 89.3863 965.003 104.573 965.003H120.305L118.958 954.772C118.216 949.147 116.677 932.911 115.536 918.695C114.394 904.48 112.616 885.58 111.582 876.695C110.55 867.81 109.109 851.818 108.382 841.156C106.211 809.3 108.986 812.079 79.3465 812.079C60.3341 812.079 53.7967 812.766 53.7411 814.771ZM167.131 876.781C167.131 937.369 167.395 942.022 171.279 949.98C176.873 961.441 183.233 965.294 198.712 966.593C216.342 968.073 228.617 962.602 234.239 950.756C237.851 943.148 238.269 936.46 238.838 877.233L239.464 812.079H223.901H208.337V872.124C208.337 922.066 207.833 932.605 205.338 934.772C198.687 940.54 198.036 935.054 198.036 873.337V812.079H182.584H167.131V876.781ZM284.993 827.694L285.598 843.31L294.355 843.971L303.111 844.635V904.818V965.003H318.563H334.015V904.695V844.387H343.287H352.558V828.233V812.079H318.473H284.387L284.993 827.694ZM734.92 825.541C734.228 832.946 732.742 849.179 731.621 861.618C730.5 874.056 728.193 898.287 726.495 915.464C724.798 932.642 723.409 950.814 723.411 955.849V965.003H737.592C753.232 965.003 754.225 964.01 754.287 948.311C754.313 941.802 754.804 941.311 761.269 941.311C767.409 941.311 768.373 942.099 769.51 948.042C770.219 951.744 770.798 957.075 770.798 959.888C770.798 964.818 771.358 965.003 786.25 965.003C797.798 965.003 801.702 964.273 801.702 962.115C801.702 960.525 800.818 951.561 799.741 942.192C798.661 932.822 796.788 912.557 795.581 897.157C793.055 864.997 789.65 829.275 788.133 819.079L787.093 812.079H761.636H736.177L734.92 825.541ZM849.089 888.541V965.003H864.541H879.993L880.234 934.311L880.474 903.618L883.317 918.695C884.88 926.988 887.647 940.8 889.465 949.388L892.769 965.003H908.013H923.26V888.541V812.079H907.807H892.355L892.192 837.387L892.032 862.695L887.118 837.925C884.417 824.302 882.171 812.912 882.13 812.617C882.089 812.322 874.637 812.079 865.571 812.079H849.089V888.541ZM984.18 830.925C983.424 841.292 981.947 857.041 980.894 865.926C979.844 874.81 977.979 894.195 976.751 909.003C975.525 923.811 973.832 942.467 972.991 950.465L971.462 965.003H987.537H1003.61V953.028V941.05L1011.34 941.72C1018.99 942.381 1019.07 942.489 1020.09 953.157L1021.12 963.926L1036.36 964.566L1051.59 965.204L1050.15 950.566C1049.36 942.515 1047.36 920.903 1045.69 902.541C1044.03 884.18 1041.8 859.464 1040.73 847.618C1039.65 835.771 1038.74 822.93 1038.71 819.079L1038.64 812.079H1012.1H985.557L984.18 830.925ZM1098.38 888.541V965.003H1125.27C1157.52 965.003 1162.53 963.078 1169.13 948.158C1173.3 938.733 1173.59 934.804 1173.59 887.464C1173.59 830.688 1172.38 824.455 1159.8 816.443C1153.87 812.66 1149.43 812.094 1125.68 812.088L1098.38 812.079V888.541ZM1233.53 829.848C1232.77 839.623 1230.85 860.702 1229.24 876.695C1227.64 892.687 1225.28 917.403 1224 931.618C1222.71 945.834 1221.21 959.16 1220.66 961.234C1219.77 964.598 1221.45 965.003 1236.29 965.003H1252.91V953.028V941.05L1260.63 941.72C1268.29 942.381 1268.37 942.489 1269.39 953.157L1270.42 963.926L1285.65 964.566L1300.88 965.204L1299.56 951.643C1297.62 931.674 1292.16 872.37 1289.97 847.618C1288.92 835.771 1288.04 822.93 1288 819.079L1287.93 812.079H1261.41H1234.9L1233.53 829.848ZM438.617 889.08C438.079 934.296 437.916 935.926 433.94 935.926C429.972 935.926 429.798 934.296 429.261 891.83C428.952 867.578 429.156 846.496 429.71 844.984C430.266 843.472 432.621 842.233 434.945 842.233C439.092 842.233 439.16 843.092 438.617 889.08ZM1141.18 887.189C1141.74 931.491 1140.97 937.003 1134.19 937.003C1131.86 937.003 1131.35 928.407 1131.35 889.467V841.934L1135.98 842.621C1140.6 843.306 1140.62 843.525 1141.18 887.189ZM83.7122 898.772C85.2822 915.391 85.2677 915.464 80.3684 915.467L75.4484 915.469L76.7752 893.389C77.5046 881.246 78.3328 867.433 78.613 862.695C79.1548 853.573 80.0243 859.727 83.7122 898.772ZM765.67 898.772C767.24 915.391 767.225 915.464 762.326 915.467L757.406 915.469L758.733 893.389C759.462 881.246 760.29 867.433 760.571 862.695C761.112 853.573 761.982 859.727 765.67 898.772ZM1264.36 895.541L1265.83 915.464H1260.14C1254.71 915.464 1254.5 915.077 1255.65 907.387C1256.31 902.946 1257.54 890.103 1258.38 878.849C1259.69 861.228 1260.11 859.582 1261.39 867.002C1262.21 871.741 1263.55 884.584 1264.36 895.541ZM1015.11 895.541L1016.54 915.464H1010.97C1006.65 915.464 1005.62 914.616 1006.4 911.695C1006.96 909.621 1008.1 897.264 1008.93 884.233C1010.66 857.243 1012.61 860.804 1015.11 895.541Z" fill="#FF0000"/>
<path fill-rule="evenodd" clip-rule="evenodd" d="M1834.97 812.699C1823.58 814.831 1815.9 820.464 1810.81 830.416C1806.64 838.578 1806.29 843.134 1806.29 889.364C1806.29 937.202 1806.51 939.881 1811.25 948.669C1818.34 961.811 1826.07 966.499 1840.43 966.369C1849.61 966.286 1853.83 965.059 1859.82 960.733L1867.47 955.203L1869.93 960.317C1871.76 964.11 1874.12 965.431 1879.1 965.431H1885.82L1885.22 921.019L1884.62 876.607L1865.32 876.003L1846.01 875.399V889.065C1846.01 901.338 1846.46 902.732 1850.42 902.732C1854.35 902.732 1854.81 904.055 1854.61 914.749C1854.3 932.173 1852.37 937.216 1846.05 937.216C1838.15 937.216 1836.82 928.754 1837.6 883.594C1838.16 851.232 1838.88 843.688 1841.59 842.045C1848.69 837.739 1851.5 840.674 1852.19 853.115L1852.85 865.112H1869.29H1885.73V857.899C1885.73 833.043 1875.25 816.756 1856.85 813.019C1850.77 811.784 1845.09 810.881 1844.24 811.013C1843.39 811.144 1839.22 811.903 1834.97 812.699ZM2220.17 812.871C2208.24 815 2198.09 825.785 2194.95 839.673C2190.41 859.709 2194.99 869.944 2218.98 893.383C2237.73 911.708 2243.71 923.64 2239.02 933.387C2233.57 944.721 2225.55 936.508 2225.55 919.589V909.002H2208.7H2191.84L2193.35 924.8C2194.19 933.488 2195.87 943.127 2197.11 946.222C2200.91 955.75 2209.92 962.883 2221.48 965.508C2244.13 970.656 2263.85 962.164 2269.3 944.912C2272.92 933.469 2272.55 908.276 2268.63 899.392C2266.84 895.329 2256.41 883.217 2245.46 872.477C2230.69 857.991 2225.55 851.535 2225.55 847.47C2225.55 844.457 2227.05 841.445 2228.89 840.778C2233.87 838.968 2238.79 843.922 2238.79 850.737V856.752H2255.65H2272.51L2271.19 846.223C2267.96 820.368 2248.69 807.777 2220.17 812.871ZM1406.88 889.147V965.431H1423.38H1439.87L1440.48 933.559L1441.09 901.687L1448.62 933.559L1456.14 965.431H1473.37C1486.21 965.431 1490.35 964.764 1489.61 962.819C1489.07 961.383 1484.11 942.705 1478.6 921.314L1468.58 882.423L1476.31 852.344C1480.56 835.802 1484.57 820.152 1485.23 817.565C1486.37 813.011 1485.89 812.862 1470.01 812.862H1453.62L1446.94 838.465L1440.26 864.067L1440.12 838.465L1439.98 812.862H1423.43H1406.88V889.147ZM1537.08 816.162C1537.08 817.977 1542.54 841.455 1549.21 868.341C1560.24 912.749 1561.35 919.424 1561.35 941.325V965.431H1576.63H1591.92L1592.81 935.649C1593.62 908.414 1594.67 902.113 1605.07 861.977C1611.32 837.838 1616.46 816.871 1616.48 815.383C1616.51 813.362 1612.49 812.835 1600.59 813.293L1584.65 813.907L1581.28 834.122C1579.42 845.24 1577.32 854.875 1576.62 855.534C1575.92 856.19 1574.12 848.975 1572.61 839.497C1568.04 810.672 1569.71 812.862 1552.28 812.862C1539.9 812.862 1537.08 813.475 1537.08 816.162ZM1671.68 889.147V965.431H1688.23H1704.78V930.8V896.171L1709.75 896.838C1714.63 897.496 1714.72 898.04 1715.32 931.469L1715.92 965.431H1732.6H1749.29L1748.55 930.064C1747.86 896.857 1747.51 894.397 1742.89 889.74C1738.04 884.862 1738.03 884.726 1742.22 881.332C1751.58 873.739 1753.56 844.17 1745.88 826.742C1740.71 815.021 1733.64 812.862 1700.48 812.862H1671.68V889.147ZM1938.69 814.731C1938.69 815.859 1944.15 838.532 1950.82 865.112C1962.15 910.212 1962.96 915.177 1962.96 939.436V965.431H1978.41H1993.85V941.532C1993.85 919.838 1994.98 913.142 2006.03 868.905C2012.72 842.105 2018.75 818.533 2019.42 816.52C2020.5 813.262 2018.84 812.862 2004.17 812.862C1985.26 812.862 1987.25 810.302 1982.67 840.565C1981.14 850.628 1979.51 858.495 1979.04 858.044C1978.56 857.594 1976.46 847.479 1974.36 835.566L1970.55 813.907L1954.62 813.293C1945.22 812.931 1938.69 813.521 1938.69 814.731ZM2073.29 827.492V842.122H2089.58H2105.86L2087.38 890.714C2071.67 932.016 2068.9 941.267 2068.89 952.369L2068.88 965.431H2104.19H2139.49V950.801V936.171H2121.6C2105.47 936.171 2103.86 935.814 2105.21 932.514C2106.04 930.501 2114.59 908.368 2124.21 883.326C2138.73 845.52 2141.7 835.679 2141.7 825.329V812.862H2107.5H2073.29V827.492ZM2324.85 827.492V842.122H2333.68H2342.5V903.777V965.431H2359.02H2375.54L2376.12 904.299L2376.71 843.167L2386.09 842.525L2395.46 841.882V827.373V812.862H2360.16H2324.85V827.492ZM2460.78 820.7C2460.08 825.011 2457.96 844.526 2456.07 864.067C2454.19 883.608 2451.2 912.63 2449.43 928.557C2444.9 969.425 2443.6 965.431 2461.43 965.431C2478.6 965.431 2479.32 964.789 2479.32 949.466V940.111L2488.7 940.755C2497.68 941.369 2498.1 941.703 2498.67 948.711C2500.04 965.607 2499.85 965.431 2517.07 965.431H2532.67L2531.37 957.594C2530.13 950.068 2516.83 819.774 2516.83 815.126C2516.83 813.623 2507.62 812.862 2489.44 812.862H2462.05L2460.78 820.7ZM2587.44 889.151V965.615L2603.44 965L2619.44 964.386L2620.54 934.081L2621.65 903.777L2628.17 934.604L2634.69 965.431H2650.79H2666.88V889.055V812.678L2650.88 813.293L2634.89 813.907L2634.03 842.122L2633.18 870.337L2627.33 842.122L2621.49 813.907L2604.46 813.297L2587.44 812.687V889.151ZM1717.6 853.258C1718.33 864.142 1715.55 869.292 1708.93 869.292C1705.29 869.292 1704.78 867.601 1704.78 855.569V841.844L1710.85 842.507C1716.42 843.113 1716.97 843.991 1717.6 853.258ZM2493.8 895.939L2495.41 915.271H2488.23C2481.9 915.271 2481.19 914.711 2482.23 910.569C2482.87 907.984 2484.05 894.11 2484.85 879.742C2487.34 834.767 2488.92 837.635 2493.8 895.939Z" fill="#828282"/>
</svg>
