<svg width="30" height="13" viewBox="0 0 30 13" fill="none" xmlns="http://www.w3.org/2000/svg">
<path d="M29.5222 3.01479L26.1255 2.52974C25.5062 2.14926 24.8635 1.80866 24.2008 1.50977C22.0123 0.518488 19.6371 0.00697816 17.2343 0.00962324H16.6443C13.8088 0.0116579 11.0187 0.723173 8.5283 2.07926L6.81411 3.01439C4.80755 3.03697 2.83964 3.57066 1.09635 4.56438C0.387888 4.9707 -0.0495605 5.72454 -0.0507812 6.54104V9.5102C-0.0507812 9.7865 0.17303 10.0103 0.449335 10.0103H2.12832C2.67442 11.5682 4.38007 12.3886 5.93799 11.8425C6.7956 11.542 7.46968 10.8677 7.77019 10.0103H21.1297C21.6758 11.5682 23.3814 12.3886 24.9393 11.8425C25.7967 11.542 26.471 10.8677 26.7715 10.0103H26.951C27.0147 10.0103 27.0778 9.99831 27.137 9.97471L28.7565 9.32484C29.4801 9.03836 29.9539 8.33804 29.9513 7.56019V3.50982C29.9513 3.26119 29.7684 3.0502 29.5222 3.01479ZM6.90913 9.4103C6.68796 10.4925 5.63137 11.1906 4.54915 10.9694C3.46671 10.7483 2.76863 9.69169 2.98979 8.60926C3.21116 7.52703 4.26775 6.82894 5.34998 7.05011C6.28124 7.24035 6.94982 8.0597 6.94962 9.01029C6.94962 9.14457 6.93599 9.27866 6.90913 9.4103ZM15.9503 9.01029H7.94965C7.94965 7.35327 6.60658 6.01 4.94956 6.01C3.29255 6.01 1.94928 7.35327 1.94928 9.01029H0.949247V6.54104C0.949857 6.08304 1.19524 5.66004 1.59281 5.43256C3.22459 4.5009 5.07083 4.01055 6.94962 4.00994H15.9503V9.01029ZM15.9503 3.00991H8.91082L9.00726 2.95721C11.1451 1.79543 13.5197 1.13682 15.9503 1.03163V3.00991ZM16.9503 1.00965H17.2333C19.2484 1.00741 21.2452 1.38993 23.1169 2.13685L22.2438 3.00991H16.9503V1.00965ZM25.9105 9.4103C25.6893 10.4925 24.6327 11.1906 23.5503 10.9694C22.4681 10.7483 21.77 9.69169 21.9911 8.60926C22.2123 7.52703 23.2691 6.82894 24.3513 7.05011C25.2826 7.24035 25.9512 8.0597 25.951 9.01029C25.951 9.14457 25.9373 9.27866 25.9105 9.4103ZM28.9513 4.50985H27.4511V5.51008H28.9513V7.56019C28.9525 7.92867 28.7279 8.26031 28.3852 8.39562L26.951 8.97163C26.951 8.92564 26.9451 8.88007 26.942 8.83409C26.939 8.7881 26.938 8.73418 26.9331 8.68413C26.928 8.63408 26.918 8.58403 26.9101 8.53418C26.902 8.48413 26.8961 8.43407 26.8861 8.3887C26.8761 8.34313 26.8615 8.29267 26.8485 8.24506C26.8354 8.19765 26.8255 8.14963 26.8104 8.10304C26.7956 8.05665 26.7774 8.01209 26.7606 7.96651C26.7435 7.92114 26.728 7.87414 26.7105 7.82897C26.693 7.784 26.6694 7.74311 26.6484 7.70058C26.6275 7.65806 26.6069 7.61147 26.5835 7.56854C26.5599 7.5256 26.5335 7.48898 26.5109 7.4491C26.4885 7.40902 26.4611 7.36344 26.4326 7.32255C26.4039 7.28145 26.3774 7.2491 26.35 7.21207C26.3225 7.17504 26.2914 7.13149 26.2594 7.09304C26.2275 7.05458 26.1976 7.02447 26.1664 6.99293C26.1355 6.9616 26.1009 6.91908 26.0665 6.88408C26.0319 6.84908 25.998 6.82141 25.9636 6.79049C25.929 6.75956 25.892 6.72294 25.8539 6.69038C25.8161 6.65803 25.7774 6.63301 25.7396 6.60452C25.7015 6.57604 25.6635 6.54552 25.6236 6.51886C25.5835 6.49241 25.5385 6.46901 25.4956 6.44094C25.4525 6.41286 25.4175 6.39088 25.377 6.36952C25.3365 6.34795 25.2861 6.32537 25.2401 6.30339C25.1941 6.28142 25.1581 6.26189 25.1155 6.24398C25.073 6.22587 25.0154 6.20695 24.9656 6.18905C24.9155 6.17094 24.883 6.1569 24.8405 6.14347C24.7835 6.12597 24.7251 6.11336 24.6669 6.09891C24.6289 6.08996 24.5924 6.07795 24.554 6.07002C24.4925 6.0574 24.4295 6.05049 24.367 6.04133C24.33 6.03645 24.2946 6.02831 24.2575 6.02485C24.1574 6.01488 24.0575 6.00939 23.9525 6.00939C22.2961 6.01101 20.9539 7.35327 20.9523 9.00968H16.9505V4.00974H22.4508C22.5834 4.00974 22.7106 3.95704 22.8042 3.86324L24.1009 2.56656C24.6451 2.82557 25.1743 3.1151 25.6861 3.43373C25.7451 3.47056 25.811 3.49477 25.88 3.50474L28.9513 3.9432V4.50985Z" fill="#1E1E1E" fill-opacity="0.8"/>
</svg>
