<svg width="80" height="80" viewBox="0 0 80 80" fill="none" xmlns="http://www.w3.org/2000/svg">
<g clip-path="url(#clip0_204_935)">
<path d="M68.2843 11.7157C60.7294 4.16077 50.6842 0 40 0C29.3158 0 19.2706 4.16077 11.7157 11.7157C4.16077 19.2706 0 29.3158 0 40C0 50.6842 4.16077 60.7294 11.7157 68.2843C19.2706 75.8392 29.3158 80 40 80C50.6842 80 60.7294 75.8392 68.2843 68.2843C75.8392 60.7294 80 50.6842 80 40C80 29.3158 75.8392 19.2706 68.2843 11.7157ZM66.604 66.604C59.4977 73.7103 50.0494 77.6239 40 77.6239C29.9506 77.6239 20.5023 73.7103 13.396 66.604C6.28967 59.4977 2.3761 50.0494 2.3761 40C2.3761 29.9506 6.28967 20.5023 13.396 13.396C20.5023 6.28967 29.9506 2.3761 40 2.3761C50.0494 2.3761 59.4977 6.28967 66.604 13.396C73.7103 20.5023 77.6239 29.9506 77.6239 40C77.6239 50.0494 73.7103 59.4977 66.604 66.604Z" fill="white"/>
<path d="M39.9999 6.9812C35.6468 6.9812 31.4122 7.81799 27.4144 9.46716C27.1025 9.59595 26.8596 9.85168 26.7473 10.1703C26.635 10.4883 26.6637 10.8398 26.8254 11.1359L57.2105 66.6479C57.3729 66.9446 57.6537 67.1576 57.9826 67.2345C58.0724 67.2559 58.1627 67.2656 58.253 67.2656C58.4947 67.2656 58.7334 67.1918 58.9354 67.0502C67.7525 60.8667 73.0168 50.7544 73.0168 40C73.0168 21.7932 58.2054 6.9812 39.9999 6.9812ZM35.4607 21.9629H48.8744C50.277 21.9629 51.4763 22.9639 51.7259 24.3439L53.1664 32.2833H41.1095L35.4607 21.9629ZM55.5595 53.0853V56.3324C55.5595 56.795 55.2159 57.1771 54.7704 57.2412L52.4956 53.0853H55.5595ZM58.6437 64.317L55.9319 59.3634C57.1086 58.8599 57.9356 57.691 57.9356 56.3324V52.6331C60.8745 51.5704 62.9814 48.7524 62.9814 45.451V39.9164C62.9814 38.6963 62.7019 37.5311 62.1513 36.4526C61.8523 35.8685 61.1369 35.6372 60.5528 35.9357C59.9681 36.2341 59.7368 36.9495 60.0353 37.5342C60.4131 38.2745 60.6053 39.0759 60.6053 39.9164V45.451C60.6053 48.3502 58.2469 50.7092 55.349 50.7092H51.1949L42.4107 34.66H54.5836H54.5885H54.5934H55.3484C55.9758 34.66 56.5874 34.7687 57.1654 34.9823C57.3015 35.0323 57.4406 35.0562 57.5774 35.0562C58.0608 35.0562 58.5149 34.7595 58.6919 34.2798C58.9195 33.6646 58.6052 32.981 57.99 32.7533C57.2191 32.4689 56.4104 32.3138 55.5827 32.2888L54.0642 23.9203C53.6095 21.4093 51.4269 19.5868 48.8744 19.5868H34.16L29.5604 11.1835C32.9009 9.97131 36.4061 9.35791 39.9999 9.35791C56.895 9.35791 70.6407 23.1036 70.6407 40C70.6407 49.5361 66.1803 58.5291 58.6437 64.317Z" fill="white"/>
<path d="M22.7874 13.3527C22.625 13.056 22.3442 12.843 22.0146 12.7661C21.6857 12.6892 21.3396 12.7563 21.0631 12.9504C12.2448 19.1339 6.98047 29.2462 6.98047 40C6.98047 45.3351 8.2146 50.4291 10.6493 55.1404C10.9502 55.7233 11.6667 55.9515 12.2502 55.6506C12.8331 55.3491 13.0614 54.6326 12.7599 54.0497C10.5022 49.679 9.35718 44.9518 9.35718 40C9.35718 30.4639 13.8176 21.4716 21.3542 15.6836L25.9172 24.0198L24.4164 32.2894C20.316 32.4139 17.0177 35.7861 17.0177 39.9164V45.451C17.0177 48.7531 19.1246 51.5704 22.0635 52.6331V56.3324C22.0635 58.1494 23.5424 59.6283 25.3594 59.6283H30.197C32.0146 59.6283 33.4935 58.1494 33.4935 56.3324V53.0853H41.8267L50.4381 68.8171C47.0989 70.0293 43.5942 70.6427 39.9993 70.6427C35.0701 70.6427 30.1714 69.4452 25.8336 67.179C21.6338 64.9854 17.9418 61.792 15.1573 57.9443C14.7728 57.4127 14.03 57.2937 13.4984 57.6782C12.9668 58.0634 12.8478 58.8062 13.2323 59.3378C16.2316 63.4821 20.2086 66.922 24.7332 69.2853C29.4097 71.7279 34.6886 73.0188 39.9993 73.0188C44.3541 73.0188 48.5887 72.1826 52.5841 70.5334C52.896 70.4047 53.1389 70.1489 53.2512 69.8309C53.3635 69.5123 53.3348 69.1608 53.1731 68.8647L22.7874 13.3527ZM30.4406 32.2833H26.8322L27.7306 27.3334L30.4406 32.2833ZM31.1168 56.3318C31.1168 56.839 30.7048 57.2516 30.197 57.2516H25.3594C24.8522 57.2516 24.4396 56.839 24.4396 56.3318V53.0847H24.6227C24.6318 53.0847 24.641 53.0853 24.6501 53.0853H31.1168V56.3318ZM32.3192 50.7086C32.3143 50.7086 32.3101 50.708 32.3052 50.708H24.6227C21.7375 50.6934 19.3944 48.3411 19.3944 45.451V39.9158C19.3944 37.0178 21.7522 34.66 24.6501 34.66H25.4052H25.4106H25.4155H31.7412L40.526 50.7086H32.3192Z" fill="white"/>
<path d="M25.5487 37.8571C22.8442 37.8571 20.6445 40.0574 20.6445 42.7612C20.6445 45.4657 22.8442 47.6654 25.5487 47.6654C28.2526 47.6654 30.4523 45.4657 30.4523 42.7612C30.4523 40.0574 28.2526 37.8571 25.5487 37.8571ZM25.5487 45.2893C24.1547 45.2893 23.0206 44.1553 23.0206 42.7612C23.0206 41.3672 24.1547 40.2338 25.5487 40.2338C26.9421 40.2338 28.0762 41.3672 28.0762 42.7612C28.0762 44.1553 26.9421 45.2893 25.5487 45.2893Z" fill="white"/>
<path d="M54.451 37.8571C51.7472 37.8571 49.5469 40.0574 49.5469 42.7612C49.5469 45.4657 51.7472 47.6654 54.451 47.6654C57.1549 47.6654 59.3552 45.4657 59.3552 42.7612C59.3552 40.0574 57.1555 37.8571 54.451 37.8571ZM54.451 45.2893C53.057 45.2893 51.9236 44.1553 51.9236 42.7612C51.9236 41.3672 53.057 40.2338 54.451 40.2338C55.8451 40.2338 56.9791 41.3672 56.9791 42.7612C56.9791 44.1553 55.8451 45.2893 54.451 45.2893Z" fill="white"/>
</g>
<defs>
<clipPath id="clip0_204_935">
<rect width="80" height="80" fill="white"/>
</clipPath>
</defs>
</svg>
