<svg width="67" height="67" viewBox="0 0 67 67" fill="none" xmlns="http://www.w3.org/2000/svg">
<g clip-path="url(#clip0_166_236)">
<path d="M24.1047 23.5511C23.7218 23.1682 23.1002 23.1682 22.7168 23.5511C22.3335 23.9344 22.3335 24.556 22.7168 24.9389L27.345 29.567C27.9824 30.2044 27.9824 31.2426 27.345 31.8801L22.2956 36.9299L16.6043 31.238C16.4197 31.0535 16.1723 30.9518 15.9106 30.9518C15.6489 30.9518 15.4015 31.0535 15.217 31.238C14.8336 31.6214 14.8336 32.2445 15.217 32.6264L20.9083 38.3172L15.2553 43.9708C15.1142 44.1123 14.9266 44.19 14.7267 44.19C14.5269 44.1895 14.3393 44.1118 14.1982 43.9708L7.48245 37.255C7.34137 37.1139 7.26367 36.9263 7.26367 36.7265C7.26367 36.5271 7.34137 36.3395 7.48245 36.1984L27.6537 16.0277C28.0361 15.6448 28.6587 15.6448 29.0415 16.0277L35.426 22.4122C35.8094 22.7956 36.431 22.7956 36.8139 22.4122C37.1973 22.0288 37.1973 21.4077 36.8139 21.0244L30.4294 14.6393C29.2813 13.4918 27.4135 13.4918 26.2654 14.6393L6.09412 34.8106C5.58295 35.3223 5.30129 36.0021 5.30078 36.7259C5.30027 37.4503 5.58244 38.1312 6.09463 38.6433L12.8104 45.3586C13.3215 45.8703 14.0019 46.1524 14.7257 46.1529H14.7267C15.4506 46.1529 16.1314 45.8708 16.6431 45.3591L28.7328 33.2684C30.136 31.8652 30.136 29.5824 28.7328 28.1787L24.1047 23.5511Z" fill="#A02C12"/>
<path d="M66.9969 34.7462C66.9162 30.4212 65.1649 26.3508 62.0657 23.2853C61.9594 23.18 61.8515 23.0767 61.7426 22.9745C62.6178 21.1772 63.1095 19.1597 63.1095 17.0296C63.1095 9.51542 56.9964 3.40234 49.4822 3.40234C45.652 3.40234 42.0728 5.02837 39.5425 7.71815C38.8039 7.44109 38.0244 7.29541 37.231 7.29337C35.512 7.28979 32.2241 7.29797 29.219 7.30001C27.2116 7.30206 25.3244 8.08466 23.9048 9.50417L2.34627 31.0627C0.833206 32.5758 0 34.5873 0 36.7265C0 38.8663 0.833206 40.8777 2.34627 42.3908L9.06201 49.1065C10.5751 50.6196 12.5865 51.4528 14.7258 51.4528C16.8655 51.4528 18.877 50.6196 20.3895 49.1065L31.5714 37.9252C32.0094 39.0457 32.6765 40.0747 33.5527 40.9508L35.5692 42.9674L31.0602 47.4759C30.6896 47.847 30.4851 48.3398 30.4851 48.8642V50.0931H29.2558C28.7318 50.0931 28.239 50.2975 27.8679 50.6681L27.0879 51.4482C26.7173 51.8188 26.5128 52.3121 26.5128 52.8365V54.0654H25.2835C24.759 54.0654 24.2662 54.2698 23.8956 54.6404L22.9075 55.629C22.2277 56.3084 21.853 57.2121 21.853 58.1736V60.6784C21.853 62.3008 23.1744 63.6227 24.7973 63.6227H27.3026C28.2641 63.6227 29.1673 63.2485 29.8472 62.5687L42.5089 49.907L44.5162 51.9144C46.1847 53.5828 48.4026 54.5019 50.7622 54.5019C53.1212 54.5019 55.3397 53.5828 57.0082 51.9144L61.8081 47.114C65.193 43.913 67.0844 39.4055 66.9969 34.7462ZM49.4827 5.36523C55.9143 5.36523 61.1471 10.5976 61.1471 17.0296C61.1471 18.6802 60.8016 20.251 60.1805 21.6756C55.3673 18.1414 49.2471 17.6205 44.1553 19.6902L44.1564 18.8064C44.1594 16.954 44.1615 15.3208 44.1594 14.2212C44.1553 12.4286 43.4182 10.7054 42.0836 9.3682C41.8418 9.12693 41.5872 8.90611 41.3224 8.7047C43.4622 6.61504 46.3753 5.36523 49.4827 5.36523ZM31.0224 35.6975L19.0017 47.7187C17.8598 48.8606 16.3411 49.4899 14.7258 49.4899C13.1105 49.4899 11.5923 48.8606 10.4498 47.7187L3.73409 41.0029C1.37607 38.6449 1.37607 34.8086 3.73409 32.4511L25.2927 10.892C26.3421 9.84257 27.7371 9.26444 29.221 9.2629C32.2057 9.26086 35.5805 9.25268 37.2269 9.25626C37.5607 9.25728 37.892 9.29562 38.2166 9.36769C37.8051 9.97036 37.4386 10.6093 37.1252 11.2815C35.5498 11.3367 34.2852 12.6346 34.2852 14.2233C34.2852 15.8468 35.606 17.1676 37.2295 17.1676C38.853 17.1676 40.1738 15.8468 40.1738 14.2233C40.1738 13.27 39.7184 12.4219 39.0135 11.8832C39.3074 11.2876 39.6489 10.7228 40.0333 10.1937C40.2648 10.3609 40.4867 10.5475 40.6952 10.756C41.6603 11.7226 42.1935 12.9551 42.1965 14.2258C42.1991 15.3238 42.1965 16.954 42.1935 18.8034L42.1909 20.6456C40.9191 21.374 39.7358 22.2763 38.6715 23.3426L33.5542 28.4573C31.6772 30.3338 30.7167 32.9464 31.0224 35.6975ZM38.2109 14.2233C38.2109 14.7646 37.7708 15.2047 37.2295 15.2047C36.6882 15.2047 36.2481 14.7646 36.2481 14.2233C36.2481 13.8133 36.5006 13.4616 36.8584 13.3149C36.9647 13.4397 37.1027 13.5399 37.2673 13.6002C37.5065 13.6881 37.7565 13.6758 37.9748 13.5869C38.1215 13.7581 38.2109 13.9805 38.2109 14.2233ZM28.4594 61.1809C28.1506 61.4896 27.7396 61.6598 27.3026 61.6598H25.2697L37.6834 49.2456C38.0653 48.8617 38.0668 48.2432 37.6834 47.8572C37.3 47.4744 36.6805 47.4723 36.2951 47.8572L23.8164 60.3359V58.1736C23.8164 57.7366 23.9866 57.3256 24.2954 57.0169L25.284 56.0283H27.4943C28.0366 56.0283 28.4757 55.5892 28.4757 55.0468L28.4762 52.8365L29.2563 52.056H31.4671C32.0089 52.056 32.4485 51.6169 32.4485 51.0745L32.448 48.8642L36.9576 44.3552C39.4996 46.8978 38.5432 45.9408 41.121 48.5192L28.4594 61.1809ZM60.4504 45.697C60.4437 45.7032 60.4371 45.7098 60.4305 45.7164L55.6204 50.5265C54.3225 51.8239 52.5973 52.539 50.7622 52.539C48.9271 52.539 47.2019 51.8239 45.9046 50.5265L34.941 39.563C33.6431 38.2651 32.9285 36.5394 32.9285 34.7043C32.929 32.8687 33.6442 31.1435 34.942 29.8462L40.0604 24.7304C45.1925 19.5875 53.3503 18.9562 59.2251 23.4356C58.168 25.0386 56.7265 26.3666 55.0325 27.2867C53.6943 26.4837 52.1388 26.0144 50.4862 26.0006H50.4136C50.0553 26.0006 49.6949 26.0216 49.3417 26.063C48.0049 26.2199 46.9003 27.1068 46.4587 28.3781C46.017 29.6499 46.3339 31.0305 47.2857 31.9823C48.1005 32.7971 49.2266 33.2633 50.3834 33.2633H50.4034H50.4366C51.3654 33.2736 52.195 34.0955 52.2124 35.0212C52.2129 35.056 52.2129 35.0897 52.2119 35.1214C52.1807 36.2261 52.6264 37.3236 53.4356 38.1327L53.4954 38.192C54.1635 38.8601 55.0448 39.2159 55.9526 39.2159C56.337 39.2159 56.726 39.152 57.1058 39.0211C58.3648 38.5872 59.2471 37.5009 59.4076 36.1857C59.4597 35.7589 59.4822 35.3213 59.4741 34.8863C59.4281 32.426 58.3715 30.1912 56.7091 28.5774C58.2922 27.5832 59.6571 26.2731 60.7152 24.736C63.316 27.3292 64.962 30.8813 65.0346 34.7825C65.1112 38.8954 63.4407 42.8738 60.4504 45.697ZM50.4509 31.3004H50.4095C50.4064 31.3004 50.3921 31.3004 50.3896 31.3004C50.386 31.3004 50.3824 31.3004 50.3788 31.3004C49.7629 31.3004 49.1617 31.0571 48.716 30.6329C48.9716 30.6472 49.2272 30.6569 49.4827 30.6569C51.3914 30.6569 53.2092 30.2617 54.8597 29.5497C56.4392 30.8297 57.4713 32.766 57.5112 34.9231C57.5178 35.2671 57.5004 35.6116 57.4595 35.9475C57.3895 36.52 57.0179 36.9754 56.4663 37.1656C55.8974 37.3619 55.3055 37.2264 54.8832 36.8042L54.824 36.7444C54.3951 36.3155 54.1579 35.7445 54.1743 35.1756C54.1758 35.1133 54.1763 35.0499 54.1753 34.9855C54.1385 33.0103 52.4363 31.3229 50.4509 31.3004ZM48.4998 28.6521C48.7421 28.2968 49.1203 28.0658 49.5701 28.0126C49.8477 27.9799 50.1319 27.9635 50.41 27.9635L50.4744 27.964C51.187 27.9697 51.8765 28.0837 52.5273 28.2902C51.556 28.5529 50.5358 28.694 49.4827 28.694C49.1546 28.694 48.8264 28.6792 48.4998 28.6521Z" fill="#A02C12"/>
</g>
<defs>
<clipPath id="clip0_166_236">
<rect width="67" height="67" fill="white"/>
</clipPath>
</defs>
</svg>
