<svg width="13" height="10" viewBox="0 0 13 10" fill="none" xmlns="http://www.w3.org/2000/svg">
<path d="M1.13436 5.46139C1.04218 5.36908 0.996094 5.23062 0.996094 5.13831C0.996094 5.04601 1.04218 4.90754 1.13436 4.81524L1.77961 4.16908C1.96397 3.98447 2.24051 3.98447 2.42486 4.16908L2.47095 4.21524L5.00587 6.93831C5.09805 7.03062 5.23632 7.03062 5.3285 6.93831L11.5045 0.52293H11.5506C11.7349 0.338314 12.0115 0.338314 12.1958 0.52293L12.8411 1.16908C13.0254 1.3537 13.0254 1.63062 12.8411 1.81524L5.46676 9.47678C5.37459 9.56908 5.28241 9.61524 5.14414 9.61524C5.00587 9.61524 4.91369 9.56908 4.82151 9.47678L1.22654 5.59985L1.13436 5.46139Z" fill="white"/>
</svg>
