<svg width="28" height="28" viewBox="0 0 28 28" fill="none" xmlns="http://www.w3.org/2000/svg">
<path d="M26.2679 10.4131C25.2663 9.26078 23.8839 8.51364 22.2199 8.21357C23.813 7.14662 25.1871 6.0848 26.1669 5.15829C27.6608 3.74566 28.1617 2.75297 27.7434 2.03443C27.278 1.23413 25.9345 1.23966 23.515 2.05198C21.4708 2.73831 18.9242 3.93034 16.3444 5.40854C15.8987 5.66382 15.4573 5.92523 15.0254 6.18866C14.705 5.29085 14.9163 4.2653 15.6231 3.37602C16.1525 2.70993 16.2707 1.86391 15.9316 1.16802C15.5762 0.438648 14.7961 0.00196875 13.8436 0H13.8177C10.456 0 7.16781 1.31638 4.55897 3.70666C1.94688 6.0999 0.347726 9.26805 0.0561092 12.6275C-0.294745 16.6732 1.00838 20.5196 3.72534 23.458C6.3943 26.3446 10.1781 28 14.1065 28C16.2214 28 18.2069 27.616 20.0075 26.8585C21.6541 26.1659 23.1162 25.1769 24.3535 23.9189C25.5006 22.7525 26.405 21.4098 27.0416 19.9279C27.6475 18.5178 27.9784 17.0236 27.9989 15.6067C28.0287 13.5461 27.4301 11.7503 26.2679 10.4131ZM15.0898 7.43684C15.673 7.07181 16.2804 6.70808 16.8954 6.35578C19.2806 4.98903 21.6559 3.86329 23.5836 3.18587C25.7057 2.44021 26.5746 2.48888 26.7771 2.58513C26.7596 2.71239 26.6004 3.27857 25.2078 4.55126C24.045 5.614 22.3469 6.86377 20.4264 8.07034C19.8193 8.4519 19.1875 8.8311 18.5486 9.19729C17.6677 9.70184 16.7875 10.1736 15.9236 10.6056C15.7513 10.1064 15.5303 9.62188 15.2615 9.15966C15.0009 8.71172 14.6986 8.29117 14.3608 7.90207C14.5999 7.74654 14.8432 7.59101 15.0898 7.43684ZM14.9252 11.0907C13.3692 11.8231 11.9415 12.3814 10.8013 12.7052C10.7419 12.4223 10.6376 12.1489 10.4895 11.8941C10.3491 11.6527 10.1731 11.4369 9.96958 11.2507C10.8232 10.4332 12.0246 9.48598 13.4392 8.51698C13.7676 8.88125 14.0588 9.2797 14.3071 9.70643C14.5638 10.1478 14.7705 10.6119 14.9252 11.0907ZM26.8969 15.591C26.8184 21.0328 21.9059 26.9062 14.1065 26.9062C10.486 26.9062 6.9982 25.3799 4.53742 22.7186C2.03163 20.0086 0.830171 16.4581 1.15419 12.7213C1.7107 6.30984 7.39154 1.09375 13.8177 1.09375H13.8425C14.3697 1.09484 14.7695 1.29544 14.9394 1.64418C15.0956 1.96476 15.0277 2.35895 14.7577 2.69866C13.7646 3.94827 13.5155 5.48516 14.0766 6.78098C13.7812 6.96987 13.4909 7.15958 13.2103 7.34776C13.209 7.34863 13.2077 7.34951 13.2064 7.35038C11.4541 8.52381 9.97443 9.69101 8.98992 10.6733C8.24325 10.42 7.42284 10.4938 6.72554 10.8933C5.58068 11.5496 4.07741 14.608 3.78772 15.2144C3.71013 15.3767 3.7179 15.5665 3.80838 15.7221C3.89892 15.8777 4.06066 15.9792 4.24107 15.9938C4.54564 16.0183 5.41051 16.0802 6.37314 16.0802C7.54126 16.0802 8.85321 15.989 9.48085 15.6292C10.1607 15.2397 10.632 14.5889 10.7952 13.8408C12.1466 13.4888 13.9122 12.8001 15.8244 11.8755C16.8959 11.358 17.9977 10.7756 19.0996 10.1445C19.6586 9.82417 20.2111 9.49391 20.7482 9.16081C20.7515 9.16098 20.7546 9.16147 20.7578 9.16158C25.3508 9.29228 26.9406 12.5685 26.8969 15.591ZM9.75373 13.364C9.71847 13.914 9.41054 14.4066 8.9298 14.682C8.40867 14.9808 6.61842 15.021 5.14849 14.9543C5.8249 13.658 6.75502 12.1395 7.2767 11.8405C7.76923 11.5583 8.3647 11.546 8.8699 11.8075C9.14758 11.951 9.37748 12.1699 9.53486 12.4407C9.69857 12.7223 9.77423 13.0416 9.75373 13.364Z" fill="#1E1E1E" fill-opacity="0.8"/>
</svg>
