<svg width="30" height="30" viewBox="0 0 30 30" fill="none" xmlns="http://www.w3.org/2000/svg">
<path d="M27.6 1H22.9333C22.1602 1 21.5333 1.62686 21.5333 2.4V4.26667H17.7141C17.517 3.70931 16.9911 3.33584 16.4 3.33333H13.6C13.0089 3.33584 12.483 3.70931 12.2859 4.26667H8.46667V2.4C8.46667 1.62686 7.83981 1 7.06667 1H2.4C1.62686 1 1 1.62686 1 2.4V8.93333C1 9.70648 1.62686 10.3333 2.4 10.3333H7.06667C7.83981 10.3333 8.46667 9.70648 8.46667 8.93333V7.06667H12.2859C12.483 7.62402 13.0089 7.99749 13.6 8V10.8H13.1333C12.8756 10.8 12.6667 11.009 12.6667 11.2667V20.1333H11.7333C11.4756 20.1333 11.2667 20.3423 11.2667 20.6V22.9333H8.46667V21.0667C8.46667 20.2935 7.83981 19.6667 7.06667 19.6667H2.4C1.62686 19.6667 1 20.2935 1 21.0667V27.6C1 28.3731 1.62686 29 2.4 29H7.06667C7.83981 29 8.46667 28.3731 8.46667 27.6V25.7333H11.2667V27.1333C11.2667 27.391 11.4756 27.6 11.7333 27.6H18.2667C18.5244 27.6 18.7333 27.391 18.7333 27.1333V25.7333H21.5333V27.6C21.5333 28.3731 22.1602 29 22.9333 29H27.6C28.3731 29 29 28.3731 29 27.6V21.0667C29 20.2935 28.3731 19.6667 27.6 19.6667H22.9333C22.1602 19.6667 21.5333 20.2935 21.5333 21.0667V22.9333H18.7333V20.6C18.7333 20.3423 18.5244 20.1333 18.2667 20.1333H17.3333V11.2667C17.3333 11.009 17.1244 10.8 16.8667 10.8H16.4V8C16.9911 7.99749 17.517 7.62402 17.7141 7.06667H21.5333V8.93333C21.5333 9.70648 22.1602 10.3333 22.9333 10.3333H27.6C28.3731 10.3333 29 9.70648 29 8.93333V2.4C29 1.62686 28.3731 1 27.6 1ZM24.8934 3.61338C24.9814 3.73073 25.1197 3.8 25.2667 3.8C25.4136 3.8 25.552 3.73073 25.6399 3.61338L26.2 2.86667V4.11126L25.2667 5.3554L24.3333 4.11126V2.86667L24.8934 3.61338ZM24.8 1.93333H25.7333L25.2667 2.5554L24.8 1.93333ZM24.3333 5.66667L24.8934 6.41338C24.9814 6.53073 25.1197 6.6 25.2667 6.6C25.4136 6.6 25.552 6.53073 25.6399 6.41338L26.2 5.66667V6.91126L25.2667 8.1554L24.3333 6.91126V5.66667ZM4.36009 3.61338C4.44805 3.73073 4.58636 3.8 4.73333 3.8C4.88031 3.8 5.01862 3.73073 5.10658 3.61338L5.66667 2.86667V4.11126L4.73333 5.3554L3.8 4.11126V2.86667L4.36009 3.61338ZM4.26667 1.93333H5.2L4.73333 2.5554L4.26667 1.93333ZM3.8 5.66667L4.36009 6.41338C4.44805 6.53073 4.58636 6.6 4.73333 6.6C4.88031 6.6 5.01862 6.53073 5.10658 6.41338L5.66667 5.66667V6.91126L4.73333 8.1554L3.8 6.91126V5.66667ZM1.93333 8.93333V2.4C1.93333 2.14229 2.14229 1.93333 2.4 1.93333H2.86667V9.4H2.4C2.14229 9.4 1.93333 9.19105 1.93333 8.93333ZM3.8 9.4V8.46667L4.36009 9.21338C4.44805 9.33073 4.58636 9.4 4.73333 9.4C4.88031 9.4 5.01862 9.33073 5.10658 9.21338L5.66667 8.46667V9.4H3.8ZM7.53333 8.93333C7.53333 9.19105 7.32438 9.4 7.06667 9.4H6.6V1.93333H7.06667C7.32438 1.93333 7.53333 2.14229 7.53333 2.4V8.93333ZM8.46667 5.2H12.2V6.13333H8.46667V5.2ZM4.36009 22.28C4.44805 22.3974 4.58636 22.4667 4.73333 22.4667C4.88031 22.4667 5.01862 22.3974 5.10658 22.28L5.66667 21.5333V22.7779L4.73333 24.0221L3.8 22.7779V21.5333L4.36009 22.28ZM4.26667 20.6H5.2L4.73333 21.2221L4.26667 20.6ZM3.8 24.3333L4.36009 25.08C4.44805 25.1974 4.58636 25.2667 4.73333 25.2667C4.88031 25.2667 5.01862 25.1974 5.10658 25.08L5.66667 24.3333V25.5779L4.73333 26.8221L3.8 25.5779V24.3333ZM1.93333 27.6V21.0667C1.93333 20.809 2.14229 20.6 2.4 20.6H2.86667V28.0667H2.4C2.14229 28.0667 1.93333 27.8577 1.93333 27.6ZM3.8 28.0667V27.1333L4.36009 27.88C4.44805 27.9974 4.58636 28.0667 4.73333 28.0667C4.88031 28.0667 5.01862 27.9974 5.10658 27.88L5.66667 27.1333V28.0667H3.8ZM7.53333 27.6C7.53333 27.8577 7.32438 28.0667 7.06667 28.0667H6.6V20.6H7.06667C7.32438 20.6 7.53333 20.809 7.53333 21.0667V27.6ZM8.46667 24.8V23.8667H11.2667V24.8H8.46667ZM24.3333 24.3333L24.8934 25.08C24.9814 25.1974 25.1197 25.2667 25.2667 25.2667C25.4136 25.2667 25.552 25.1974 25.6399 25.08L26.2 24.3333V25.5779L25.2667 26.8221L24.3333 25.5779V24.3333ZM24.8934 22.28C24.9814 22.3974 25.1197 22.4667 25.2667 22.4667C25.4136 22.4667 25.552 22.3974 25.6399 22.28L26.2 21.5333V22.7779L25.2667 24.0221L24.3333 22.7779V21.5333L24.8934 22.28ZM24.8 20.6H25.7333L25.2667 21.2221L24.8 20.6ZM24.3333 28.0667V27.1333L24.8934 27.88C24.9814 27.9974 25.1197 28.0667 25.2667 28.0667C25.4136 28.0667 25.552 27.9974 25.6399 27.88L26.2 27.1333V28.0667H24.3333ZM28.0667 21.0667V27.6C28.0667 27.8577 27.8577 28.0667 27.6 28.0667H27.1333V20.6H27.6C27.8577 20.6 28.0667 20.809 28.0667 21.0667ZM22.4667 21.0667C22.4667 20.809 22.6756 20.6 22.9333 20.6H23.4V28.0667H22.9333C22.6756 28.0667 22.4667 27.8577 22.4667 27.6V21.0667ZM21.5333 23.8667V24.8H18.7333V23.8667H21.5333ZM16.8667 21.0667H17.8V26.6667H12.2V21.0667H13.1333C13.391 21.0667 13.6 20.8577 13.6 20.6V11.7333H16.4V20.6C16.4 20.8577 16.609 21.0667 16.8667 21.0667ZM15.4667 10.8H14.5333V8H15.4667V10.8ZM16.4 7.06667H13.6C13.3423 7.06667 13.1333 6.85772 13.1333 6.6V4.73333C13.1333 4.47562 13.3423 4.26667 13.6 4.26667H16.4C16.6577 4.26667 16.8667 4.47562 16.8667 4.73333V6.6C16.8667 6.85772 16.6577 7.06667 16.4 7.06667ZM17.8 6.13333V5.2H21.5333V6.13333H17.8ZM22.4667 8.93333V2.4C22.4667 2.14229 22.6756 1.93333 22.9333 1.93333H23.4V9.4H22.9333C22.6756 9.4 22.4667 9.19105 22.4667 8.93333ZM24.3333 9.4V8.46667L24.8934 9.21338C24.9814 9.33073 25.1197 9.4 25.2667 9.4C25.4136 9.4 25.552 9.33073 25.6399 9.21338L26.2 8.46667V9.4H24.3333ZM28.0667 8.93333C28.0667 9.19105 27.8577 9.4 27.6 9.4H27.1333V1.93333H27.6C27.8577 1.93333 28.0667 2.14229 28.0667 2.4V8.93333Z" fill="#1E1E1E" fill-opacity="0.8"/>
<path d="M13.5 25C13.2239 25 13 25.2239 13 25.5C13 25.7761 13.2239 26 13.5 26H16.5C16.7761 26 17 25.7761 17 25.5C17 25.2239 16.7761 25 16.5 25H13.5Z" fill="#1E1E1E" fill-opacity="0.8"/>
<path d="M15.5 5H14.5C14.2239 5 14 5.22388 14 5.5C14 5.77612 14.2239 6 14.5 6H15.5C15.7761 6 16 5.77612 16 5.5C16 5.22388 15.7761 5 15.5 5Z" fill="#1E1E1E" fill-opacity="0.8"/>
</svg>
