<svg width="30" height="30" viewBox="0 0 30 30" fill="none" xmlns="http://www.w3.org/2000/svg">
<g clip-path="url(#clip0_263_7556)">
<path d="M15 30C23.2843 30 30 23.2843 30 15C30 6.71573 23.2843 0 15 0C6.71573 0 0 6.71573 0 15C0 23.2843 6.71573 30 15 30Z" fill="#3B5998"/>
<path d="M20.625 30V18.75H24.375L25.3125 14.0625H20.625V12.1875C20.625 10.3125 21.5644 9.375 23.4375 9.375H25.3125V4.6875C24.375 4.6875 23.2125 4.6875 21.5625 4.6875C18.1172 4.6875 15.9375 7.38844 15.9375 11.25V14.0625H12.1875V18.75H15.9375V30H20.625Z" fill="white"/>
</g>
<defs>
<clipPath id="clip0_263_7556">
<rect width="30" height="30" fill="white"/>
</clipPath>
</defs>
</svg>
