<svg width="31" height="30" viewBox="0 0 31 30" fill="none" xmlns="http://www.w3.org/2000/svg">
<g clip-path="url(#clip0_168_1243)">
<path d="M29.4541 24.795H29.037C29.0412 24.7362 29.0412 24.6771 29.037 24.6183V2.34709C29.037 1.66375 28.483 1.1098 27.7997 1.1098H15.7096C15.0263 1.1098 14.4723 1.66375 14.4723 2.34709V11.5384C13.3212 11.8176 12.3139 12.5127 11.6442 13.4898C10.823 14.6729 10.5692 16.1595 10.9514 17.5481C11.4604 19.4994 11.5241 22.0871 10.4706 23.1618C9.86405 23.6994 9.01086 23.8597 8.25054 23.579C7.43269 23.4495 6.73442 22.9184 6.39107 22.1649C5.26691 19.5701 8.07379 14.6634 8.08086 14.6422C8.25054 14.3877 12.1604 8.31435 8.1657 4.74389C8.00308 4.57421 4.14981 0.501763 1.17325 0.897695C0.870647 0.936758 0.65695 1.21373 0.696013 1.51634C0.735076 1.81894 1.01205 2.03264 1.31466 1.99358C2.02999 1.95063 2.74302 2.10988 3.37209 2.45314L2.58023 3.40762C2.15106 3.93939 2.23432 4.71835 2.76608 5.14751C2.77475 5.1545 2.78349 5.16139 2.79233 5.16811L5.45074 7.28917C5.66929 7.46434 5.94132 7.55917 6.22139 7.55784H6.32744C6.65338 7.52108 6.95121 7.35563 7.15466 7.09828L7.92531 6.12966C10.315 9.18399 7.21829 14.0483 7.14052 14.1261C7.01325 14.3453 4.04376 19.5419 5.37296 22.6103C5.86434 23.6758 6.85232 24.4281 8.01015 24.6183C8.36676 24.7047 8.73211 24.7498 9.09897 24.7526C9.89172 24.7765 10.6592 24.472 11.22 23.9113C12.6341 22.4336 12.521 19.4217 11.9695 17.2865C11.3829 15.3209 12.4953 13.251 14.4582 12.6555V24.6183C14.454 24.6771 14.454 24.7362 14.4582 24.795H14.1047C13.4215 24.7794 12.855 25.3205 12.8395 26.0037C12.8392 26.0132 12.8391 26.0228 12.8391 26.0323V27.8918C12.8389 28.5751 13.3927 29.1293 14.076 29.1294C14.0856 29.1294 14.0951 29.1293 14.1047 29.1291H29.4541C30.1375 29.1291 30.6914 28.5751 30.6914 27.8918V26.0323C30.6914 25.3491 30.1375 24.795 29.4541 24.795ZM7.11224 5.47213L6.32744 6.44075C6.29748 6.47716 6.25418 6.50005 6.20725 6.50438C6.16182 6.5103 6.11587 6.49748 6.07998 6.46903L3.42158 4.34796C3.35424 4.2792 3.35424 4.16926 3.42158 4.1005L4.20638 3.12481C4.23634 3.0884 4.27964 3.06551 4.32657 3.06118C4.372 3.05526 4.41795 3.06808 4.45383 3.09653L7.11224 5.2176C7.14927 5.24703 7.17233 5.2906 7.17587 5.33779C7.17543 5.38976 7.15218 5.4389 7.11224 5.47213ZM15.5187 2.34709C15.5187 2.24943 15.5978 2.17033 15.6955 2.17033H27.8138C27.9115 2.17033 27.9906 2.24943 27.9906 2.34709V24.6183C27.9906 24.7159 27.9115 24.795 27.8138 24.795H15.7096C15.6123 24.8028 15.5271 24.7303 15.5193 24.6329C15.5189 24.6281 15.5186 24.6231 15.5187 24.6183V2.34709ZM29.6592 27.8918C29.6592 27.9894 29.5801 28.0685 29.4824 28.0685H14.1047C14.007 28.0685 13.9279 27.9894 13.9279 27.8918V26.0323C13.9279 25.9347 14.007 25.8556 14.1047 25.8556H29.4541C29.5505 25.8399 29.6413 25.9054 29.6569 26.0017C29.6585 26.0118 29.6593 26.0221 29.6592 26.0323V27.8918Z" fill="#1E1E1E" fill-opacity="0.8"/>
<path d="M25.4175 3.85303H18.0928C17.4094 3.85303 16.8555 4.40698 16.8555 5.09032V12.4221C16.8555 13.1055 17.4094 13.6594 18.0928 13.6594H25.4175C26.1009 13.6594 26.6548 13.1055 26.6548 12.4221V5.09032C26.6548 4.40707 26.1009 3.85303 25.4175 3.85303ZM25.5943 12.4292C25.5905 12.524 25.5124 12.599 25.4175 12.5989H18.0928C17.9951 12.5989 17.916 12.5198 17.916 12.4221V5.09032C17.916 4.99266 17.9951 4.91356 18.0928 4.91356H25.4175C25.5152 4.91356 25.5943 4.99266 25.5943 5.09032V12.4292Z" fill="#1E1E1E" fill-opacity="0.8"/>
<path d="M24.5888 15.6604H18.9326C18.6397 15.6604 18.4023 15.8978 18.4023 16.1907C18.4023 16.4835 18.6397 16.7209 18.9326 16.7209H24.5888C24.8817 16.7209 25.119 16.4835 25.119 16.1907C25.119 15.8978 24.8817 15.6604 24.5888 15.6604Z" fill="#1E1E1E" fill-opacity="0.8"/>
</g>
<defs>
<clipPath id="clip0_168_1243">
<rect width="30" height="30" fill="white" transform="translate(0.691406)"/>
</clipPath>
</defs>
</svg>
