<svg width="80" height="80" viewBox="0 0 80 80" fill="none" xmlns="http://www.w3.org/2000/svg">
<g clip-path="url(#clip0_204_966)">
<path d="M53.8228 0C39.3888 0 27.6457 11.743 27.6457 26.177C27.6457 32.9288 30.2156 39.0914 34.4279 43.7392L28.9658 49.2013C28.0986 48.6667 27.0987 48.3799 26.0542 48.3799C24.5676 48.3799 23.1701 48.9589 22.1188 50.0101L1.63006 70.4989C0.578832 71.5501 0 72.9477 0 74.4344C0 75.921 0.579005 77.3185 1.63023 78.3696C2.68146 79.4208 4.07895 80 5.5656 80C7.05225 80 8.44974 79.421 9.50097 78.3698L29.9897 57.881C31.041 56.8298 31.62 55.4321 31.6198 53.9455C31.6198 52.9011 31.333 51.9012 30.7985 51.034L36.2607 45.5719C40.9084 49.7843 47.0712 52.3541 53.8228 52.3541C68.2568 52.3541 79.9998 40.6111 79.9998 26.177C79.9998 11.743 68.257 0 53.8228 0ZM5.5656 77.408C4.77113 77.408 4.02453 77.0988 3.46263 76.5369C2.90107 75.9753 2.59161 75.2287 2.59161 74.4342C2.59161 73.6399 2.90107 72.8931 3.4628 72.3316L3.80595 71.9884L8.01139 76.1939L7.66823 76.537C7.10668 77.0988 6.3599 77.408 5.5656 77.408ZM28.157 56.0483L9.8443 74.3611L5.63886 70.1557L23.9517 51.8428C24.5133 51.2811 25.2601 50.9718 26.0544 50.9718C26.8488 50.9718 27.5954 51.2811 28.1573 51.843C28.7189 52.4046 29.0284 53.1512 29.0284 53.9456C29.0282 54.7399 28.7187 55.4867 28.157 56.0483ZM53.8228 49.7623C40.8179 49.7623 30.2375 39.1821 30.2375 26.177C30.2375 13.172 40.8179 2.59179 53.8228 2.59179C66.8277 2.59179 77.408 13.172 77.408 26.177C77.408 39.1821 66.8279 49.7623 53.8228 49.7623Z" fill="white"/>
<path d="M53.8229 12.4406C47.0109 12.4406 41.4688 16.7424 41.4688 22.0302C41.4688 23.001 41.6535 23.9588 42.0177 24.877C42.2817 25.5424 43.0351 25.867 43.7003 25.6035C44.3655 25.3395 44.6907 24.5862 44.4268 23.921C44.1837 23.3086 44.0605 22.6724 44.0605 22.0303C44.0605 18.1717 48.44 15.0325 53.8229 15.0325C59.2059 15.0325 63.5853 18.1717 63.5853 22.0303C63.5853 25.5794 59.877 28.5675 54.9593 28.9808C53.5954 29.0954 52.527 30.2641 52.527 31.6414V33.0886C52.527 33.8045 53.1071 34.3845 53.8229 34.3845C54.5388 34.3845 55.1188 33.8045 55.1188 33.0886V31.6414C55.1188 31.6023 55.1456 31.5659 55.1764 31.5634C61.4478 31.0361 66.1771 26.9378 66.1771 22.0302C66.1771 16.7424 60.635 12.4406 53.8229 12.4406Z" fill="white"/>
<path d="M53.8218 37.4945C52.4404 37.4945 51.3164 38.6185 51.3164 39.9999C51.3164 41.3813 52.4404 42.5053 53.8218 42.5053C55.2032 42.5053 56.3272 41.3813 56.3272 39.9999C56.3272 38.6185 55.2034 37.4945 53.8218 37.4945Z" fill="white"/>
</g>
<defs>
<clipPath id="clip0_204_966">
<rect width="80" height="80" fill="white"/>
</clipPath>
</defs>
</svg>
