<svg width="64" height="80" viewBox="0 0 64 80" fill="none" xmlns="http://www.w3.org/2000/svg">
<path d="M54.7801 25.93C48.953 19.9602 41.1571 16.5549 32.8287 16.3411C32.312 16.3286 31.819 16.584 31.533 17.0183C31.247 17.4527 31.2057 18.0041 31.4236 18.4764L33.8169 23.6629L29.6939 26.474C29.336 26.7178 29.1008 27.1039 29.0479 27.5336C28.9951 27.9632 29.1297 28.3948 29.4175 28.7182L31.4982 31.056C31.7721 31.3637 32.1601 31.5456 32.5717 31.5595C36.8895 31.705 40.9258 33.4971 43.9373 36.6055C46.9554 39.7207 48.6175 43.8262 48.6175 48.1654C48.6175 57.3285 41.1621 64.7832 31.9982 64.7832C22.8352 64.7832 15.3804 57.3285 15.3804 48.1654C15.3804 44.3462 16.7079 40.6167 19.1184 37.6645C21.4965 34.752 24.8171 32.7136 28.4684 31.9248C28.9984 31.8102 29.4259 31.4196 29.5872 30.902C29.7489 30.3844 29.6195 29.82 29.2488 29.4245L27.5207 27.5805L30.6 24.8433C30.9863 24.4999 31.1693 23.9825 31.0848 23.4726C31.0005 22.9629 30.6605 22.5319 30.1841 22.3313L26.8827 20.9407L27.3804 18.7868C27.4955 18.2879 27.3492 17.7646 26.9921 17.3979C26.6347 17.0311 26.1153 16.8709 25.6138 16.9731C18.5279 18.4153 12.0747 22.2973 7.44322 27.9043C2.74915 33.5869 0.164062 40.7824 0.164062 48.1654C0.164062 65.7189 14.4449 79.9998 31.9984 79.9998C49.5519 79.9998 63.8326 65.7189 63.8326 48.1654C63.8324 39.807 60.6175 31.9104 54.7801 25.93ZM16.7865 35.7608C13.9386 39.2489 12.3701 43.6543 12.3701 48.1654C12.3701 58.9884 21.1751 67.7934 31.9981 67.7934C42.8219 67.7934 51.6276 58.9884 51.6276 48.1654C51.6276 43.0401 49.6642 38.1908 46.099 34.5109C42.695 30.9971 38.1808 28.9074 33.3276 28.5838L32.8045 27.9961L33.9843 27.1917C39.1005 27.6705 43.839 29.9926 47.375 33.7658C51.0461 37.6831 53.0678 42.7984 53.0678 48.1696C53.0678 59.7885 43.6159 69.241 31.9981 69.241C20.3802 69.241 10.9284 59.7885 10.9284 48.1696C10.9284 43.3225 12.5283 38.7668 15.5552 34.9948C17.8654 32.1159 20.9073 29.8944 24.3089 28.5555L25.3706 29.6884C22.037 30.8877 19.0495 32.9892 16.7865 35.7608ZM31.9981 76.9898C16.1044 76.9898 3.17393 64.0593 3.17393 48.1656C3.17393 41.4806 5.51419 34.9661 9.76375 29.8216C13.4467 25.363 18.4007 22.1088 23.8955 20.4979L23.6645 21.4976C23.4999 22.2109 23.8722 22.9393 24.5468 23.2235L26.816 24.1792L26.0929 24.822C21.0478 26.0957 16.4838 29.028 13.2072 33.1111C9.79636 37.3617 7.91799 42.7096 7.91799 48.17C7.91799 61.4486 18.7203 72.2515 31.9979 72.2515C45.2755 72.2515 56.0778 61.4486 56.0778 48.17C56.0778 42.0313 53.7671 36.185 49.5713 31.7079C46.2042 28.115 41.882 25.6743 37.1504 24.6433C37.2604 24.2959 37.2457 23.9101 37.0835 23.5586L35.2193 19.5184C41.8222 20.25 47.9295 23.2216 52.6259 28.0327C57.9112 33.4474 60.822 40.5975 60.822 48.1656C60.8222 64.0593 47.8917 76.9898 31.9981 76.9898Z" fill="white"/>
<path d="M23.0896 15.3996C23.698 15.9657 24.6504 15.9316 25.2168 15.323C25.7831 14.7145 25.7488 13.7623 25.1402 13.1958L21.8389 10.1238L24.4277 10.5552C24.8645 10.628 25.3103 10.5051 25.648 10.2191C25.9856 9.93312 26.1803 9.51303 26.1803 9.0707V6.54113L28.7664 9.72775C29.0277 10.0498 29.4107 10.2499 29.8243 10.2803C30.238 10.3104 30.6461 10.1691 30.9519 9.8888L34.6265 6.52089L33.6208 9.56069C33.4506 10.0746 33.5696 10.6405 33.9325 11.0422C34.2954 11.4441 34.8458 11.6203 35.3747 11.5031L39.3444 10.6248L37.267 13.3947C36.7683 14.0598 36.9031 15.0031 37.5682 15.5018C37.8388 15.7048 38.1558 15.8028 38.4701 15.8028C38.9276 15.8028 39.3795 15.595 39.6753 15.2006L44.1903 9.1804C44.5681 8.67669 44.5923 7.99121 44.2511 7.46191C43.9102 6.93262 43.2758 6.67224 42.6609 6.8077L37.3105 7.99154L39.3002 1.9775C39.5154 1.32696 39.2643 0.613212 38.689 0.240951C38.1139 -0.130975 37.3598 -0.0679283 36.8544 0.39514L30.0962 6.58946L25.8436 1.34954C25.4423 0.854864 24.7725 0.66656 24.1718 0.879448C23.5711 1.0925 23.1699 1.66076 23.1699 2.29792V7.29384L17.3972 6.33175C16.7416 6.22255 16.0924 6.55601 15.7993 7.15186C15.5059 7.74788 15.6381 8.46565 16.1244 8.91835L23.0896 15.3996Z" fill="white"/>
</svg>
