<svg width="68" height="80" viewBox="0 0 68 80" fill="none" xmlns="http://www.w3.org/2000/svg">
<path d="M56.4356 22.1245L59.0395 18.9092L61.4855 20.8867C61.9814 21.2875 62.7317 21.2083 63.133 20.713C65.7022 17.5403 65.1944 12.7525 62.0219 10.1875C58.812 7.59266 54.0877 8.09062 51.4903 11.2977C51.0884 11.7941 51.1677 12.545 51.6642 12.9466L54.1087 14.923L51.3639 18.3125C47.1552 15.7336 42.3323 14.0631 37.1698 13.5739V7.29734H41.1894C43.1748 7.29734 44.838 5.63375 44.838 3.64875C44.838 1.66328 43.1752 0 41.1895 0H34.4678C32.9564 0 32.9564 2.34375 34.4678 2.34375H41.1895C42.8684 2.34375 42.8716 4.95344 41.1895 4.95344H26.8087C25.1298 4.95344 25.1267 2.34375 26.8087 2.34375H29.1553C30.6667 2.34375 30.6667 0 29.1553 0H26.8086C24.8231 0 23.16 1.66359 23.16 3.64859C23.16 5.63375 24.8228 7.29719 26.8086 7.29719H30.8281V13.5747C16.3227 14.96 4.17 25.7466 1.31234 40.2422C1.18719 40.8772 1.60047 41.4934 2.23547 41.6186C2.87016 41.7442 3.48672 41.3305 3.61188 40.6955C6.45969 26.2502 19.2394 15.7658 33.9991 15.7658C51.0769 15.7658 64.9708 29.6478 64.9708 46.7109C64.9708 63.7741 51.0769 77.6562 33.9991 77.6562C16.9212 77.6562 3.02734 63.7742 3.02734 46.7111C3.02734 46.0639 2.50266 45.5392 1.85547 45.5392C1.20828 45.5392 0.683594 46.0639 0.683594 46.7111C0.683594 65.0666 15.6289 80 33.9991 80C52.3692 80 67.3145 65.0666 67.3145 46.7111C67.3145 36.983 63.1162 28.2167 56.4356 22.1245ZM60.5484 12.01C61.6166 12.8736 62.2842 14.1011 62.4283 15.4663C62.5305 16.4345 62.3606 17.3898 61.945 18.2442L59.6034 16.3511L59.6033 16.3509L59.6031 16.3508L56.4953 13.8383L54.155 11.9461C55.9989 10.5145 58.6564 10.4806 60.5484 12.01ZM55.9316 16.3966L57.2169 17.4358L54.6489 20.6067C54.2169 20.2647 53.7764 19.9328 53.3275 19.6122L55.9316 16.3966ZM33.172 13.4331V7.29719H34.8262V13.4327C34.5513 13.4259 34.2756 13.4222 33.9992 13.4222C33.7227 13.422 33.447 13.4264 33.172 13.4331Z" fill="white"/>
<path d="M51.2873 68.2579C57.8642 62.9823 61.6361 55.1287 61.6361 46.711C61.6361 31.4832 49.2375 19.0945 33.9977 19.0945C18.7578 19.0945 6.35938 31.4832 6.35938 46.711C6.35938 61.9389 18.758 74.3275 33.9978 74.3275C37.8555 74.3275 41.5887 73.5484 45.0934 72.0117C46.4777 71.4048 45.5364 69.2582 44.1523 69.8653C40.9461 71.271 37.5297 71.9839 33.998 71.9839C20.0505 71.9839 8.70328 60.6465 8.70328 46.711C8.70328 32.7756 20.0503 21.4382 33.9978 21.4382C47.9453 21.4382 59.2925 32.7756 59.2925 46.711C59.2925 54.4142 55.8402 61.6014 49.8209 66.4296C48.6419 67.3754 50.1083 69.2034 51.2873 68.2579Z" fill="white"/>
<path d="M54.3225 46.711C54.3225 41.3316 52.2033 36.2516 48.3552 32.4066C44.5074 28.5621 39.4236 26.4446 34.0405 26.4446H33.965C33.6541 26.4455 33.3563 26.57 33.1372 26.7907C32.9181 27.0113 32.7956 27.3099 32.7969 27.6208L32.8686 46.7152C32.8711 47.3607 33.395 47.8827 34.0405 47.8827H53.1508C53.7978 47.8829 54.3225 47.3582 54.3225 46.711ZM35.2078 45.5391L35.145 28.8222C39.4905 29.0891 43.558 30.9268 46.6984 34.0647C49.8224 37.186 51.6586 41.2235 51.9405 45.5393H35.2078V45.5391Z" fill="white"/>
<path d="M26.136 34.3621C27.0234 34.3621 27.5901 33.3658 27.1496 32.6036L25.3906 29.5593C24.6345 28.2505 22.6051 29.4233 23.3613 30.7319L25.1204 33.7763C25.3374 34.1519 25.7312 34.3621 26.136 34.3621Z" fill="white"/>
<path d="M19.8418 39.9657C21.1624 40.7276 22.3202 38.6896 21.0129 37.9356L17.966 36.1779C16.6569 35.4223 15.4857 37.4529 16.7949 38.2081L19.8418 39.9657Z" fill="white"/>
<path d="M13.6758 46.791C13.6758 47.4382 14.2005 47.9629 14.8477 47.9629H18.3659C19.8773 47.9629 19.8773 45.6191 18.3659 45.6191H14.8477C14.2005 45.6191 13.6758 46.1438 13.6758 46.791Z" fill="white"/>
<path d="M17.4596 57.5395C17.6582 57.5395 17.8597 57.4889 18.0441 57.3825L21.091 55.6249C22.4002 54.8695 21.2288 52.8394 19.9199 53.5947L16.873 55.3524C15.8632 55.9349 16.2857 57.5395 17.4596 57.5395Z" fill="white"/>
<path d="M23.9256 64.3711C24.4796 64.6913 25.2078 64.4946 25.5265 63.9429L27.2856 60.8985C28.0418 59.5899 26.0125 58.4172 25.2564 59.7258L23.4973 62.7702C23.1734 63.3305 23.3653 64.0474 23.9256 64.3711Z" fill="white"/>
<path d="M32.9492 62.3701V65.8854C32.9492 67.3968 35.293 67.3968 35.293 65.8854V62.3701C35.293 60.8587 32.9492 60.8587 32.9492 62.3701Z" fill="white"/>
<path d="M41.3592 59.2177C40.7989 59.5414 40.607 60.2583 40.9309 60.8186L42.69 63.863C43.447 65.1735 45.4771 64.0017 44.7192 62.6903L42.9601 59.646C42.6365 59.0855 41.9196 58.8938 41.3592 59.2177Z" fill="white"/>
<path d="M47.0643 55.4864L50.1112 57.2441C51.4317 58.0062 52.5896 55.968 51.2823 55.2139L48.2354 53.4562C46.9265 52.7006 45.7553 54.7312 47.0643 55.4864Z" fill="white"/>
</svg>
