<svg width="80" height="68" viewBox="0 0 80 68" fill="none" xmlns="http://www.w3.org/2000/svg">
<path d="M79.9326 59.8167L76.7366 42.9972C76.6158 42.3614 76.0009 41.9439 75.3662 42.0647C74.7305 42.1855 74.313 42.7989 74.4337 43.435L77.6298 60.2545C77.8086 61.1959 77.0137 62.0845 75.9311 62.0845H58.5889L69.8373 50.8363C70.0431 50.6305 70.1805 50.3298 70.1805 50.0075V21.052L73.3944 37.9658C73.5152 38.6016 74.1292 39.0192 74.7645 38.8983C75.4003 38.7775 75.8178 38.1641 75.697 37.528L70.1728 8.45657C70.0933 6.72704 68.6655 5.3436 66.9169 5.3436H56.6466V1.57532C56.6466 0.927974 56.122 0.403442 55.4747 0.403442C54.8273 0.403442 54.3028 0.927974 54.3028 1.57532V5.34344H46.4544V1.57532C46.4544 0.927974 45.9298 0.403442 45.2825 0.403442C44.6352 0.403442 44.1106 0.927974 44.1106 1.57532V5.34344H36.262V1.57532C36.262 0.927974 35.7375 0.403442 35.0902 0.403442C34.4428 0.403442 33.9183 0.927974 33.9183 1.57532V5.34344H26.0698V1.57532C26.0698 0.927974 25.5453 0.403442 24.898 0.403442C24.2506 0.403442 23.7261 0.927974 23.7261 1.57532V5.34344H15.8777V1.57532C15.8777 0.927974 15.3531 0.403442 14.7058 0.403442C14.0584 0.403442 13.5339 0.927974 13.5339 1.57532V5.34344H3.26359C1.46406 5.3436 0 6.8075 0 8.60719V64.3331C0 66.1327 1.46406 67.5966 3.26359 67.5966H32.3558C33.0031 67.5966 33.5277 67.072 33.5277 66.4247C33.5277 65.7773 33.0031 65.2528 32.3558 65.2528H3.26359C2.75656 65.2528 2.34391 64.8403 2.34391 64.3333V20.5595H67.8367V48.8352H54.6827C52.8831 48.8352 51.4192 50.2992 51.4192 52.0988V65.2527H37.8247C37.1773 65.2527 36.6528 65.7772 36.6528 66.4245C36.6528 67.0719 37.1773 67.5964 37.8247 67.5964H52.5911C52.8934 67.5964 53.1966 67.4766 53.4198 67.2533L56.2448 64.4283H75.9312C78.4766 64.4283 80.388 62.2123 79.9326 59.8167ZM2.34391 18.2156V8.60719C2.34391 8.10016 2.75656 7.6875 3.26359 7.6875H13.5339V12.9516C13.5339 13.5989 14.0584 14.1234 14.7058 14.1234C15.3531 14.1234 15.8777 13.5989 15.8777 12.9516V7.6875H23.7261V12.9516C23.7261 13.5989 24.2506 14.1234 24.898 14.1234C25.5453 14.1234 26.0698 13.5989 26.0698 12.9516V7.6875H33.9183V12.9516C33.9183 13.5989 34.4428 14.1234 35.0902 14.1234C35.7375 14.1234 36.262 13.5989 36.262 12.9516V7.6875H44.1106V12.9516C44.1106 13.5989 44.6352 14.1234 45.2825 14.1234C45.9298 14.1234 46.4544 13.5989 46.4544 12.9516V7.6875H54.3028V12.9516C54.3028 13.5989 54.8273 14.1234 55.4747 14.1234C56.122 14.1234 56.6466 13.5989 56.6466 12.9516V7.6875H66.9169C67.4239 7.6875 67.8366 8.10016 67.8366 8.60719V18.2158H2.34391V18.2156ZM53.763 63.5953V52.0989C53.763 51.5919 54.1755 51.1792 54.6825 51.1792H66.1791C65.0064 52.352 54.9381 62.4202 53.763 63.5953Z" fill="white"/>
</svg>
