<svg width="67" height="67" viewBox="0 0 67 67" fill="none" xmlns="http://www.w3.org/2000/svg">
<path d="M63.9206 18.8819H38.2098L39.7204 5.28584C39.7512 5.00842 39.6626 4.731 39.4763 4.52293C39.2901 4.315 39.0242 4.19604 38.745 4.19604H28.255C27.9758 4.19604 27.7099 4.315 27.5237 4.52293C27.3374 4.731 27.2487 5.00842 27.2796 5.28584L28.7902 18.8819H3.07938C1.38148 18.8819 0 20.2631 0 21.9613V59.7248C0 61.4228 1.38148 62.8042 3.07938 62.8042H63.9206C65.6186 62.8042 67 61.4227 67 59.7248V21.9613C67 20.2631 65.6185 18.8819 63.9206 18.8819ZM37.6484 6.15881L35.7752 23.0176C35.7715 23.0518 35.7427 23.0776 35.7081 23.0776H31.2919C31.2573 23.0776 31.2287 23.0518 31.2247 23.0176L29.3516 6.15881H37.6484ZM65.0371 59.7247C65.0371 60.3404 64.5363 60.8411 63.9206 60.8411H3.07938C2.46369 60.8411 1.96289 60.3402 1.96289 59.7247V21.9613C1.96289 21.3456 2.46369 20.8448 3.07938 20.8448H29.0084L29.2739 23.2345C29.3883 24.2642 30.2559 25.0406 31.2919 25.0406H35.7081C36.7441 25.0406 37.6117 24.2641 37.7261 23.2344L37.9916 20.8446H63.9206C64.5363 20.8446 65.0371 21.3456 65.0371 21.9611V59.7247Z" fill="#A02C12"/>
<path d="M27.2052 27.2736H8.32351C7.20388 27.2736 6.29297 28.1844 6.29297 29.304V54.4797C6.29297 55.5993 7.20388 56.5101 8.32351 56.5101H27.2052C28.3248 56.5101 29.2356 55.5993 29.2356 54.4797V29.304C29.2356 28.1845 28.3248 27.2736 27.2052 27.2736ZM23.0771 54.5473H12.4519V48.4335C12.4519 48.0079 12.6883 47.6253 13.0691 47.4349L14.7733 46.5827L16.3288 48.1381C16.7246 48.5338 17.2446 48.7318 17.7645 48.7318C18.2845 48.7318 18.8044 48.5338 19.2004 48.1381L20.7558 46.5827L22.46 47.4349C22.8407 47.6253 23.0771 48.0078 23.0771 48.4335V54.5473ZM19.1537 45.4084L17.8123 46.7498C17.7861 46.7761 17.7432 46.7764 17.7167 46.7498L16.3752 45.4082C16.5504 45.1054 16.6479 44.757 16.6479 44.3902V43.7995C17.0076 43.879 17.3809 43.9222 17.7644 43.9222C18.1478 43.9222 18.521 43.879 18.8809 43.7996V44.3903C18.8809 44.757 18.9785 45.1057 19.1537 45.4084ZM17.7644 41.9593C15.9919 41.9593 14.5499 40.5172 14.5499 38.7449V36.6469C14.5499 35.4529 15.5214 34.4815 16.7155 34.4815H18.8135C20.0074 34.4815 20.9789 35.4529 20.9789 36.6469V38.7449C20.9788 40.5174 19.5369 41.9593 17.7644 41.9593ZM27.2727 54.4798C27.2727 54.5171 27.2425 54.5473 27.2052 54.5473H25.0396V48.4335C25.0396 47.2595 24.3874 46.2041 23.3375 45.6793L20.8812 44.451C20.858 44.4395 20.8437 44.4163 20.8437 44.3905V42.9409C20.8437 42.9288 20.8424 42.9172 20.8419 42.9053C22.1149 41.9611 22.9417 40.4479 22.9417 38.7449V36.6469C22.9417 34.3705 21.0898 32.5186 18.8133 32.5186H16.7154C14.439 32.5186 12.5869 34.3705 12.5869 36.6469V38.7449C12.5869 40.4479 13.4137 41.9611 14.6867 42.9053C14.6863 42.9172 14.6848 42.9288 14.6848 42.9409V44.3905C14.6848 44.4163 14.6706 44.4395 14.6476 44.451L12.1913 45.6791C11.1413 46.204 10.489 47.2594 10.489 48.4333V54.5472H8.32351C8.28622 54.5472 8.25586 54.517 8.25586 54.4797V29.304C8.25586 29.2667 8.28609 29.2365 8.32351 29.2365H27.2052C27.2424 29.2365 27.2727 29.2667 27.2727 29.304V54.4798Z" fill="#A02C12"/>
<path d="M58.6745 27.2736H35.5968C34.4772 27.2736 33.5664 28.1844 33.5664 29.304V31.402C33.5664 32.5216 34.4772 33.4324 35.5968 33.4324H58.6744C59.794 33.4324 60.7049 32.5216 60.7049 31.402V29.304C60.7049 28.1845 59.794 27.2736 58.6745 27.2736ZM58.742 31.4021C58.742 31.4394 58.7118 31.4696 58.6744 31.4696H35.5968C35.5597 31.4696 35.5293 31.4394 35.5293 31.4021V29.3042C35.5293 29.2669 35.5595 29.2366 35.5968 29.2366H58.6744C58.7117 29.2366 58.742 29.2669 58.742 29.3042V31.4021Z" fill="#A02C12"/>
<path d="M52.3806 35.6654H35.5968C34.4772 35.6654 33.5664 36.5762 33.5664 37.6958V39.7937C33.5664 40.9134 34.4772 41.8241 35.5968 41.8241H52.3806C53.5002 41.8241 54.4111 40.9134 54.4111 39.7937V37.6958C54.4111 36.5763 53.5002 35.6654 52.3806 35.6654ZM52.4482 39.7939C52.4482 39.8312 52.418 39.8614 52.3806 39.8614H35.5968C35.5597 39.8614 35.5293 39.8312 35.5293 39.7939V37.6959C35.5293 37.6586 35.5595 37.6284 35.5968 37.6284H52.3806C52.4179 37.6284 52.4482 37.6586 52.4482 37.6959V39.7939Z" fill="#A02C12"/>
<path d="M45.0377 44.0574H34.5479C34.0057 44.0574 33.5664 44.4969 33.5664 45.0389C33.5664 45.5809 34.0057 46.0203 34.5479 46.0203H45.0377C45.5798 46.0203 46.0191 45.5809 46.0191 45.0389C46.0191 44.4967 45.5798 44.0574 45.0377 44.0574Z" fill="#A02C12"/>
<path d="M53.4312 44.0574H49.2354C48.6932 44.0574 48.2539 44.4969 48.2539 45.0389C48.2539 45.5809 48.6932 46.0203 49.2354 46.0203H53.4312C53.9734 46.0203 54.4127 45.5809 54.4127 45.0389C54.4127 44.4967 53.9732 44.0574 53.4312 44.0574Z" fill="#A02C12"/>
<path d="M36.6458 50.3512H34.5479C34.0057 50.3512 33.5664 50.7906 33.5664 51.3326C33.5664 51.8747 34.0057 52.3141 34.5479 52.3141H36.6458C37.1879 52.3141 37.6272 51.8747 37.6272 51.3326C37.6272 50.7906 37.1878 50.3512 36.6458 50.3512Z" fill="#A02C12"/>
<path d="M49.2366 50.3512H40.8447C40.3026 50.3512 39.8633 50.7906 39.8633 51.3326C39.8633 51.8747 40.3026 52.3141 40.8447 52.3141H49.2366C49.7788 52.3141 50.2181 51.8747 50.2181 51.3326C50.2181 50.7906 49.7788 50.3512 49.2366 50.3512Z" fill="#A02C12"/>
<path d="M36.6458 54.5473H34.5479C34.0057 54.5473 33.5664 54.9868 33.5664 55.5288C33.5664 56.0708 34.0057 56.5102 34.5479 56.5102H36.6458C37.1879 56.5102 37.6272 56.0708 37.6272 55.5288C37.6272 54.9866 37.1878 54.5473 36.6458 54.5473Z" fill="#A02C12"/>
<path d="M49.2366 54.5473H40.8447C40.3026 54.5473 39.8633 54.9868 39.8633 55.5288C39.8633 56.0708 40.3026 56.5102 40.8447 56.5102H49.2366C49.7788 56.5102 50.2181 56.0708 50.2181 55.5288C50.2181 54.9866 49.7788 54.5473 49.2366 54.5473Z" fill="#A02C12"/>
<path d="M33.5062 18.8818H33.4957C32.9536 18.8818 32.5195 19.3213 32.5195 19.8633C32.5195 20.4053 32.9641 20.8447 33.5062 20.8447C34.0484 20.8447 34.4877 20.4053 34.4877 19.8633C34.4877 19.3211 34.0484 18.8818 33.5062 18.8818Z" fill="#A02C12"/>
</svg>
