<svg width="30" height="30" viewBox="0 0 30 30" fill="none" xmlns="http://www.w3.org/2000/svg">
<g clip-path="url(#clip0_218_3232)">
<path d="M15 30C6.717 30 0 23.283 0 15C0 6.717 6.717 0 15 0C23.283 0 30 6.717 30 15C30 23.283 23.283 30 15 30Z" fill="url(#paint0_linear_218_3232)"/>
<path d="M14.9998 6.60599C17.7328 6.60599 18.0568 6.61499 19.1368 6.66599C20.1358 6.71099 20.6788 6.87899 21.0388 7.01999C21.5158 7.20599 21.8578 7.42799 22.2148 7.78499C22.5718 8.14199 22.7938 8.48399 22.9798 8.96099C23.1208 9.32099 23.2858 9.86399 23.3338 10.863C23.3818 11.943 23.3938 12.267 23.3938 15C23.3938 17.733 23.3848 18.057 23.3338 19.137C23.2888 20.136 23.1208 20.679 22.9798 21.039C22.7938 21.516 22.5718 21.858 22.2148 22.215C21.8578 22.572 21.5158 22.794 21.0388 22.98C20.6788 23.121 20.1358 23.286 19.1368 23.334C18.0568 23.382 17.7328 23.394 14.9998 23.394C12.2668 23.394 11.9428 23.385 10.8628 23.334C9.86381 23.289 9.32081 23.121 8.96081 22.98C8.48381 22.794 8.14181 22.572 7.78481 22.215C7.42781 21.858 7.20581 21.516 7.01981 21.039C6.87881 20.679 6.71381 20.136 6.66581 19.137C6.61781 18.057 6.60581 17.733 6.60581 15C6.60581 12.267 6.61481 11.943 6.66581 10.863C6.71081 9.86399 6.87881 9.32099 7.01981 8.96099C7.20581 8.48399 7.42781 8.14199 7.78481 7.78499C8.14181 7.42799 8.48381 7.20599 8.96081 7.01999C9.32081 6.87899 9.86381 6.71399 10.8628 6.66599C11.9428 6.61499 12.2668 6.60599 14.9998 6.60599ZM14.9998 4.76099C12.2188 4.76099 11.8708 4.77299 10.7788 4.82399C9.68981 4.87499 8.94581 5.04599 8.29181 5.30099C7.61981 5.55899 7.04681 5.90999 6.47981 6.47999C5.90981 7.04999 5.56181 7.61999 5.29781 8.29499C5.04581 8.94599 4.87181 9.68999 4.82081 10.782C4.76981 11.874 4.75781 12.222 4.75781 15.003C4.75781 17.784 4.76981 18.132 4.82081 19.224C4.87181 20.313 5.04281 21.057 5.29781 21.711C5.55881 22.38 5.90981 22.953 6.47981 23.52C7.04981 24.09 7.61981 24.438 8.29481 24.702C8.94581 24.954 9.68981 25.128 10.7818 25.179C11.8738 25.23 12.2218 25.242 15.0028 25.242C17.7838 25.242 18.1318 25.23 19.2238 25.179C20.3128 25.128 21.0568 24.957 21.7108 24.702C22.3798 24.441 22.9528 24.09 23.5198 23.52C24.0898 22.95 24.4378 22.38 24.7018 21.705C24.9538 21.054 25.1278 20.31 25.1788 19.218C25.2298 18.126 25.2418 17.778 25.2418 14.997C25.2418 12.216 25.2298 11.868 25.1788 10.776C25.1278 9.68699 24.9568 8.94299 24.7018 8.28899C24.4408 7.61999 24.0898 7.04699 23.5198 6.47999C22.9498 5.90999 22.3798 5.56199 21.7048 5.29799C21.0538 5.04599 20.3098 4.87199 19.2178 4.82099C18.1288 4.77299 17.7808 4.76099 14.9998 4.76099Z" fill="white"/>
<path d="M15.0012 9.74097C12.0972 9.74097 9.74219 12.096 9.74219 15C9.74219 17.904 12.0972 20.259 15.0012 20.259C17.9052 20.259 20.2602 17.904 20.2602 15C20.2602 12.096 17.9052 9.74097 15.0012 9.74097ZM15.0012 18.414C13.1172 18.414 11.5872 16.887 11.5872 15C11.5872 13.113 13.1172 11.586 15.0012 11.586C16.8852 11.586 18.4152 13.113 18.4152 15C18.4152 16.887 16.8852 18.414 15.0012 18.414Z" fill="white"/>
<path d="M20.4644 10.764C21.1437 10.764 21.6944 10.2133 21.6944 9.53402C21.6944 8.85471 21.1437 8.30402 20.4644 8.30402C19.7851 8.30402 19.2344 8.85471 19.2344 9.53402C19.2344 10.2133 19.7851 10.764 20.4644 10.764Z" fill="white"/>
</g>
<defs>
<linearGradient id="paint0_linear_218_3232" x1="4.39339" y1="25.6066" x2="25.6066" y2="4.39339" gradientUnits="userSpaceOnUse">
<stop stop-color="#FFD521"/>
<stop offset="0.0551048" stop-color="#FFD020"/>
<stop offset="0.1241" stop-color="#FEC01E"/>
<stop offset="0.2004" stop-color="#FCA71B"/>
<stop offset="0.2821" stop-color="#FA8316"/>
<stop offset="0.3681" stop-color="#F85510"/>
<stop offset="0.4563" stop-color="#F51E09"/>
<stop offset="0.5" stop-color="#F30005"/>
<stop offset="0.5035" stop-color="#F20007"/>
<stop offset="0.5966" stop-color="#E1003B"/>
<stop offset="0.6879" stop-color="#D30067"/>
<stop offset="0.7757" stop-color="#C70088"/>
<stop offset="0.8589" stop-color="#BF00A0"/>
<stop offset="0.9357" stop-color="#BB00AF"/>
<stop offset="1" stop-color="#B900B4"/>
</linearGradient>
<clipPath id="clip0_218_3232">
<rect width="30" height="30" fill="white"/>
</clipPath>
</defs>
</svg>
