<svg width="31" height="30" viewBox="0 0 31 30" fill="none" xmlns="http://www.w3.org/2000/svg">
<g clip-path="url(#clip0_168_1153)">
<path d="M15.6914 0C7.40716 0 0.691406 6.71575 0.691406 15C0.691406 23.2843 7.40716 30 15.6914 30C23.9757 30 30.6914 23.2843 30.6914 15C30.682 6.71963 23.9718 0.009375 15.6914 0ZM15.6914 29C7.95941 29 1.69141 22.732 1.69141 15C1.69141 7.268 7.95941 1 15.6914 1C23.4234 1 29.6914 7.268 29.6914 15C29.6826 22.7283 23.4197 28.9912 15.6914 29Z" fill="#1E1E1E" fill-opacity="0.8"/>
<path d="M15.6914 2C8.51172 2 2.69141 7.82031 2.69141 15C2.69141 22.1797 8.51172 28 15.6914 28C22.8711 28 28.6914 22.1797 28.6914 15C28.6834 7.82363 22.8678 2.008 15.6914 2ZM15.6914 27C9.06397 27 3.69141 21.6274 3.69141 15C3.69141 8.37256 9.06397 3 15.6914 3C22.3188 3 27.6914 8.37256 27.6914 15C27.6837 21.6242 22.3156 26.9923 15.6914 27Z" fill="#1E1E1E" fill-opacity="0.8"/>
<path d="M6.19141 14.5H4.19141V15.5H6.19141V14.5Z" fill="#1E1E1E" fill-opacity="0.8"/>
<path d="M27.1914 14.5H25.1914V15.5H27.1914V14.5Z" fill="#1E1E1E" fill-opacity="0.8"/>
<path d="M7.21267 19.3181L5.48047 20.3179L5.98037 21.184L7.71257 20.1842L7.21267 19.3181Z" fill="#1E1E1E" fill-opacity="0.8"/>
<path d="M25.4002 8.81709L23.668 9.81689L24.1679 10.683L25.9001 9.68319L25.4002 8.81709Z" fill="#1E1E1E" fill-opacity="0.8"/>
<path d="M5.98037 8.81701L5.48047 9.68311L7.21266 10.6829L7.71256 9.81681L5.98037 8.81701Z" fill="#1E1E1E" fill-opacity="0.8"/>
<path d="M24.1718 19.3148L23.6719 20.1809L25.4041 21.1807L25.904 20.3146L24.1718 19.3148Z" fill="#1E1E1E" fill-opacity="0.8"/>
<path d="M10.3739 4.79087L9.50781 5.29077L10.5076 7.02298L11.3737 6.52308L10.3739 4.79087Z" fill="#1E1E1E" fill-opacity="0.8"/>
<path d="M16.1914 3.5H15.1914V5.5H16.1914V3.5Z" fill="#1E1E1E" fill-opacity="0.8"/>
<path d="M21.0076 4.79002L20.0078 6.52222L20.8739 7.02212L21.8737 5.28992L21.0076 4.79002Z" fill="#1E1E1E" fill-opacity="0.8"/>
<path d="M4.71193 11.54L4.45312 12.5059L5.90198 12.8941L6.16078 11.9282L4.71193 11.54Z" fill="#1E1E1E" fill-opacity="0.8"/>
<path d="M25.4776 17.1042L25.2188 18.0701L26.6676 18.4583L26.9264 17.4924L25.4776 17.1042Z" fill="#1E1E1E" fill-opacity="0.8"/>
<path d="M7.91413 6.51458L7.20703 7.22168L8.26769 8.28233L8.97479 7.57523L7.91413 6.51458Z" fill="#1E1E1E" fill-opacity="0.8"/>
<path d="M13.1964 3.76293L12.2305 4.02173L12.6187 5.47058L13.5846 5.21178L13.1964 3.76293Z" fill="#1E1E1E" fill-opacity="0.8"/>
<path d="M18.1851 3.76575L17.7969 5.2146L18.7628 5.4734L19.151 4.02455L18.1851 3.76575Z" fill="#1E1E1E" fill-opacity="0.8"/>
<path d="M23.4708 6.51601L22.4102 7.57666L23.1173 8.28376L24.1779 7.22311L23.4708 6.51601Z" fill="#1E1E1E" fill-opacity="0.8"/>
<path d="M26.6715 11.5403L25.2227 11.9285L25.4815 12.8944L26.9303 12.5062L26.6715 11.5403Z" fill="#1E1E1E" fill-opacity="0.8"/>
<path d="M5.90197 17.105L4.45312 17.4932L4.71192 18.4591L6.16077 18.0709L5.90197 17.105Z" fill="#1E1E1E" fill-opacity="0.8"/>
<path d="M17.8117 6.77292C13.2656 5.60198 8.6311 8.33799 7.46011 12.884C6.90535 15.0377 7.21679 17.3232 8.32773 19.2499C8.47298 19.4847 8.78117 19.5574 9.01598 19.4121C9.24086 19.2729 9.31854 18.9827 9.19323 18.7499C7.12461 15.1613 8.35685 10.5752 11.9455 8.50661C15.5341 6.43798 20.1202 7.67024 22.1888 11.2589C23.1689 12.9591 23.4435 14.9756 22.9538 16.8759C22.8847 17.1435 23.0457 17.4164 23.3133 17.4854C23.5809 17.5545 23.8537 17.3935 23.9228 17.1259V17.1244C25.0937 12.5784 22.3577 7.94392 17.8117 6.77292Z" fill="#1E1E1E" fill-opacity="0.8"/>
<path d="M23.0082 18.6131L17.5082 14.1131C17.4932 14.1039 17.4777 14.0955 17.4617 14.0881C16.9598 13.1075 15.758 12.7195 14.7775 13.2215C13.797 13.7234 13.409 14.9252 13.9109 15.9057C14.2334 16.5355 14.8654 16.9474 15.5717 16.9881L22.5217 19.4706C22.5762 19.4904 22.6338 19.5004 22.6917 19.5001C22.9679 19.5 23.1917 19.2762 23.1917 19C23.1916 18.85 23.1243 18.708 23.0082 18.6131ZM15.6917 16.0001C15.1394 16.0001 14.6917 15.5524 14.6917 15.0001C14.6917 14.4478 15.1394 14.0001 15.6917 14.0001C16.244 14.0001 16.6917 14.4478 16.6917 15.0001C16.6917 15.5524 16.244 16.0001 15.6917 16.0001ZM17.0542 16.4561C17.3307 16.1972 17.5274 15.8646 17.6212 15.4976L20.1417 17.5571L17.0542 16.4561Z" fill="#1E1E1E" fill-opacity="0.8"/>
<path d="M17.6914 20H13.6914C12.3107 20 11.1914 21.1193 11.1914 22.5C11.1914 23.8807 12.3107 25 13.6914 25H17.6914C19.0721 25 20.1914 23.8807 20.1914 22.5C20.1914 21.1193 19.0721 20 17.6914 20ZM17.6914 24H13.6914C12.863 24 12.1914 23.3284 12.1914 22.5C12.1914 21.6716 12.863 21 13.6914 21H17.6914C18.5198 21 19.1914 21.6716 19.1914 22.5C19.1914 23.3284 18.5198 24 17.6914 24Z" fill="#1E1E1E" fill-opacity="0.8"/>
<path d="M14.6914 22H13.6914C13.4153 22 13.1914 22.2239 13.1914 22.5C13.1914 22.7761 13.4153 23 13.6914 23H14.6914C14.9675 23 15.1914 22.7761 15.1914 22.5C15.1914 22.2239 14.9675 22 14.6914 22Z" fill="#1E1E1E" fill-opacity="0.8"/>
<path d="M17.6914 22H16.6914C16.4153 22 16.1914 22.2239 16.1914 22.5C16.1914 22.7761 16.4153 23 16.6914 23H17.6914C17.9675 23 18.1914 22.7761 18.1914 22.5C18.1914 22.2239 17.9675 22 17.6914 22Z" fill="#1E1E1E" fill-opacity="0.8"/>
</g>
<defs>
<clipPath id="clip0_168_1153">
<rect width="30" height="30" fill="white" transform="translate(0.691406)"/>
</clipPath>
</defs>
</svg>
