<svg width="24" height="59" viewBox="0 0 24 59" fill="none" xmlns="http://www.w3.org/2000/svg">
<path d="M11.7172 58.2828C11.8734 58.4391 12.1266 58.4391 12.2828 58.2828L14.8284 55.7373C14.9846 55.581 14.9846 55.3278 14.8284 55.1716C14.6722 55.0154 14.419 55.0154 14.2627 55.1716L12 57.4343L9.73726 55.1716C9.58105 55.0154 9.32778 55.0154 9.17157 55.1716C9.01536 55.3278 9.01536 55.581 9.17157 55.7373L11.7172 58.2828ZM11.6 42L11.6 58L12.4 58L12.4 42L11.6 42Z" fill="white"/>
<path d="M12 7L12 15" stroke="white" stroke-width="0.8"/>
<rect x="0.5" y="0.5" width="23" height="46" rx="11.5" stroke="white"/>
</svg>
