<svg width="80" height="80" viewBox="0 0 80 80" fill="none" xmlns="http://www.w3.org/2000/svg">
<g clip-path="url(#clip0_204_923)">
<path d="M31.1481 38.4636C31.8042 38.4636 32.3358 37.9319 32.3358 37.2758V34.788C32.3358 34.1325 31.8042 33.6009 31.1481 33.6009C30.4926 33.6009 29.9609 34.1325 29.9609 34.788V37.2758C29.9609 37.9319 30.4926 38.4636 31.1481 38.4636Z" fill="white"/>
<path d="M19.5975 37.2758V34.788C19.5975 34.1325 19.0659 33.6009 18.4104 33.6009C17.7543 33.6009 17.2227 34.1325 17.2227 34.788V37.2758C17.2227 37.9319 17.7543 38.4636 18.4104 38.4636C19.0659 38.4636 19.5975 37.9319 19.5975 37.2758Z" fill="white"/>
<path d="M30.0104 45.9495C30.4742 46.4133 30.4742 47.1653 30.0104 47.6285C29.5465 48.0924 28.7946 48.0924 28.3307 47.6285C26.3721 45.6699 23.1848 45.6699 21.2262 47.6285C20.7623 48.0924 20.011 48.0924 19.5471 47.6285C19.0833 47.1647 19.0833 46.4127 19.5471 45.9495C20.9894 44.5072 22.8839 43.7858 24.7791 43.7858C26.673 43.7858 28.5681 44.5072 30.0104 45.9495Z" fill="white"/>
<path d="M78.4702 43.6272C79.1263 43.6272 79.6579 43.0956 79.6579 42.4395V35.8849C79.6579 35.2288 79.1263 34.6972 78.4702 34.6972H68.6515V33.4088C68.6515 31.3885 67.0078 29.7442 64.9869 29.7442H56.1827C54.1618 29.7442 52.5175 31.3885 52.5175 33.4088V34.6972H49.0629C48.463 32.3931 46.4219 30.625 43.8676 30.2008V23.941C45.8659 22.3956 47.3686 20.4736 48.3561 18.1885C51.746 10.3394 47.8148 1.1042 47.6463 0.714794C47.4852 0.344312 47.1477 0.0812513 46.7491 0.0159439C46.3505 -0.0493633 45.9465 0.0916274 45.6761 0.391309C41.6917 4.79803 34.9278 4.10467 27.7672 3.37103C26.0174 3.19159 24.2083 3.00666 22.4346 2.89862C17.2045 2.58063 12.4401 5.4334 10.2618 10.08C8.33981 9.77421 6.38792 10.2332 4.77537 11.3971C2.86864 12.7729 1.74987 14.9085 1.70471 17.2571C1.60583 22.4213 3.82445 27.7783 5.05491 30.3393C2.31933 31.0632 0.3125 33.3721 0.3125 36.1028C0.3125 39.1363 2.78808 41.6491 5.98814 42.047C6.66685 45.8568 8.48691 49.3639 11.2805 52.1575C13.1903 54.0679 15.4345 55.5229 17.8802 56.4696V60.0206H15.3198C15.3106 60.0206 15.3008 60.0206 15.2911 60.0206H10.7733C7.97605 60.0206 5.30882 61.3621 3.63829 63.6095C3.24706 64.1356 3.35631 64.8796 3.88243 65.2708C4.09544 65.4289 4.34386 65.5052 4.59044 65.5052C4.95299 65.5052 5.31126 65.3398 5.5438 65.0261C6.58018 63.6326 8.07736 62.7367 9.75155 62.4766L9.33651 72.9991C9.31393 73.5612 9.6893 74.0617 10.2349 74.1984L13.1768 74.9339L10.4974 77.6127H4.26207V68.9067C4.26207 68.2512 3.73046 67.7189 3.07494 67.7189C2.41882 67.7189 1.8872 68.2512 1.8872 68.9067V78.8004C1.8872 79.4559 2.41882 79.9882 3.07494 79.9882L78.4702 80.0004C79.1263 80.0004 79.6579 79.4682 79.6579 78.8126V47.1898C79.6579 46.5337 79.1263 46.0021 78.4702 46.0021C77.814 46.0021 77.283 46.5337 77.283 47.1898V77.6249H47.2563L51.0643 73.8163C51.6136 73.267 51.9157 72.537 51.9157 71.7613C51.9157 70.9849 51.6136 70.2549 51.0643 69.7062L46.1973 64.8393C46.0686 64.7105 45.93 64.5988 45.7854 64.4993L48.8762 61.4085C49.34 60.9447 49.34 60.1927 48.8762 59.7295C48.4123 59.2656 47.661 59.2656 47.1971 59.7295L43.8847 63.0412V37.0721H52.5175V38.6364C52.5175 40.6573 54.1618 42.3009 56.1827 42.3009H64.9869C67.0078 42.3009 68.6515 40.6573 68.6515 38.6364V37.0721H77.283V42.4395C77.283 43.0956 77.8147 43.6272 78.4702 43.6272ZM39.9657 66.9603L39.7887 62.4791C40.3844 62.5737 40.9642 62.7501 41.5099 63.004V65.4161L39.9657 66.9603ZM18.756 62.3949L22.8246 64.6873L18.6889 68.8237L16.8572 62.3949H18.756ZM30.7854 62.3949H32.6842L30.8525 68.8231L26.7168 64.6873L30.7854 62.3949ZM37.4089 62.3949L37.6793 69.2473L31.4165 75.5113L35.1537 62.3949H37.4089ZM24.7704 66.1003L27.0373 68.3671L24.6667 71.2956L22.4303 68.4404L24.7704 66.1003ZM20.7384 70.1323L23.236 73.3195L20.8196 76.3041L19.4329 71.4372L20.7384 70.1323ZM28.7261 70.0554L30.1079 71.4372L28.742 76.2321L26.2749 73.0833L28.7261 70.0554ZM24.8437 75.1078L26.8059 77.6127H22.8161L24.8437 75.1078ZM36.8468 73.4397L41.0185 77.6127H32.6738L36.8468 73.4397ZM41.5099 60.4552C40.6279 60.1689 39.7014 60.02 38.7657 60.02H34.2485C34.2394 60.02 34.2302 60.02 34.2217 60.02H31.6613V56.4641C35.866 54.8326 39.3541 51.7528 41.5099 47.8399V60.4552ZM4.07958 17.3023C4.11009 15.708 4.86998 14.2572 6.16514 13.3228C7.04099 12.6911 8.06333 12.3645 9.10519 12.3645C9.60934 12.3645 10.1178 12.4408 10.6164 12.5959C11.2182 12.7832 11.8615 12.4671 12.0819 11.8763C13.6553 7.64836 17.7551 4.99273 22.2906 5.26861C24.0148 5.37359 25.7995 5.55669 27.5249 5.7337C34.2809 6.42583 41.245 7.13933 46.0557 3.28742C46.9633 6.11944 48.3824 12.1387 46.176 17.2467C44.7325 20.5902 41.9279 23.0316 37.841 24.5038C26.3866 28.6303 15.393 22.4646 15.2844 22.4029C14.9542 22.2131 14.5532 22.193 14.2059 22.3486C13.8586 22.5049 13.6071 22.818 13.5296 23.1903C13.5162 23.2568 12.1679 29.483 7.57016 30.0598C6.61375 28.1768 3.98009 22.5043 4.07958 17.3023ZM2.68798 36.1028C2.68798 34.4604 3.95629 33.0706 5.68968 32.6263V38.6578C5.68968 38.9678 5.697 39.2773 5.71165 39.5849C3.96727 39.1467 2.68798 37.752 2.68798 36.1028ZM8.06455 38.6578V32.3895C10.5139 32.0251 12.5909 30.5175 14.121 27.9724C14.7369 26.9476 15.1586 25.9271 15.4321 25.1367C16.723 25.7403 18.8842 26.6314 21.6283 27.3181C29.1423 29.1986 35.0298 28.0407 38.6461 26.7376C39.6629 26.3714 40.612 25.9503 41.4928 25.4761V38.6572C41.4928 47.8746 33.9946 55.3728 24.7784 55.3728C20.3143 55.3728 16.1169 53.6345 12.9602 50.4778C9.80282 47.3211 8.06455 43.1231 8.06455 38.6578ZM24.7784 57.7483C26.3311 57.7483 27.8405 57.5609 29.2858 57.2093V60.5138L24.7704 63.0577L20.2551 60.5138V57.2112C21.7187 57.5652 23.2342 57.7483 24.7784 57.7483ZM16.6436 73.9732C16.5295 73.5606 16.2023 73.242 15.7873 73.1382L11.7474 72.1281L12.1313 62.3955H14.3878L18.7231 77.6127H13.8562L16.3391 75.1298C16.6418 74.8271 16.7578 74.3852 16.6436 73.9732ZM49.3852 71.3853C49.5207 71.5208 49.5408 71.6789 49.5408 71.7613C49.5408 71.8431 49.5207 72.0011 49.3852 72.1373L44.1435 77.3789L38.5265 71.7607L43.2243 67.061C43.4569 66.945 43.6455 66.7564 43.7608 66.5245L43.7651 66.5196C43.9732 66.3121 44.3114 66.3115 44.5177 66.5184L49.3852 71.3853ZM43.8676 34.6972V32.6232C45.0792 32.9309 46.0618 33.6968 46.5446 34.6972H43.8676ZM66.2766 38.6364C66.2766 39.3475 65.698 39.9261 64.9869 39.9261H56.1827C55.4716 39.9261 54.893 39.3475 54.893 38.6364V33.4088C54.893 32.6977 55.4716 32.1191 56.1827 32.1191H64.9869C65.698 32.1191 66.2766 32.6977 66.2766 33.4088V38.6364Z" fill="white"/>
<path d="M71.1097 47.5927H50.3785C49.723 47.5927 49.1914 48.1243 49.1914 48.7798C49.1914 49.4359 49.723 49.9675 50.3785 49.9675H71.1097C71.7659 49.9675 72.2975 49.4359 72.2975 48.7798C72.2975 48.1243 71.7659 47.5927 71.1097 47.5927Z" fill="white"/>
<path d="M71.1097 54.5024H50.3785C49.723 54.5024 49.1914 55.0341 49.1914 55.6902C49.1914 56.3457 49.723 56.8773 50.3785 56.8773H71.1097C71.7659 56.8773 72.2975 56.3457 72.2975 55.6902C72.2975 55.0341 71.7659 54.5024 71.1097 54.5024Z" fill="white"/>
<path d="M72.2975 62.6005C72.2975 61.9443 71.7659 61.4127 71.1097 61.4127H50.3785C49.723 61.4127 49.1914 61.9443 49.1914 62.6005C49.1914 63.256 49.723 63.7876 50.3785 63.7876H71.1097C71.7659 63.7876 72.2975 63.256 72.2975 62.6005Z" fill="white"/>
<path d="M53.512 68.3231C52.8558 68.3231 52.3242 68.8547 52.3242 69.5109C52.3242 70.1664 52.8558 70.698 53.512 70.698H67.973C68.6285 70.698 69.1602 70.1664 69.1602 69.5109C69.1602 68.8547 68.6285 68.3231 67.973 68.3231H53.512Z" fill="white"/>
</g>
<defs>
<clipPath id="clip0_204_923">
<rect width="80" height="80" fill="white"/>
</clipPath>
</defs>
</svg>
