<svg width="67" height="67" viewBox="0 0 67 67" fill="none" xmlns="http://www.w3.org/2000/svg">
<g clip-path="url(#clip0_166_191)">
<path d="M32.3701 25.5467C32.8067 25.9613 33.5325 25.8775 33.8643 25.377L40.3965 15.5186C40.6961 15.0667 40.5724 14.4574 40.1205 14.1579C39.6691 13.8588 39.0598 13.9825 38.7603 14.4339L32.8736 23.318L29.6027 20.2122C29.2096 19.839 28.5885 19.8554 28.2148 20.2485C27.8417 20.6416 27.8581 21.2626 28.2511 21.6358C28.2506 21.6358 32.3666 25.5437 32.3701 25.5467Z" fill="#A02C12"/>
<path d="M33.0404 40.5163C33.228 40.6022 33.4356 40.6477 33.6421 40.6477H33.6503C33.8604 40.6466 34.071 40.5986 34.2591 40.5086C49.1832 33.411 51.7124 18.0974 52.1316 13.5731C52.2277 12.54 51.646 11.578 50.6845 11.1792C47.7136 9.94579 45.6939 7.18752 45.4138 3.98096C45.3274 2.99389 44.484 2.22458 43.4903 2.22458H43.4785L23.3722 2.34266C22.3585 2.34828 21.535 3.11861 21.4573 4.13431C21.2099 7.3419 19.22 10.1201 16.2639 11.3847C15.3121 11.7916 14.7447 12.7588 14.853 13.7913C15.3254 18.3106 18.034 33.594 33.0404 40.5163ZM17.0357 13.1892C20.6604 11.6393 23.1023 8.23644 23.4126 4.30504L43.4611 4.18747C43.8174 8.11019 46.294 11.4819 49.932 12.9919C50.0946 13.0598 50.1932 13.2203 50.1774 13.3921C49.7838 17.6323 47.4288 31.9292 33.6385 38.6291C19.7689 32.0922 17.2484 17.8229 16.8047 13.5874C16.7868 13.4161 16.8798 13.2561 17.0357 13.1892Z" fill="#A02C12"/>
<path d="M19.4855 18.6301C19.6041 19.0667 20.1577 19.4664 20.6903 19.3197C21.2127 19.1755 21.522 18.6383 21.3799 18.1154C21.1299 17.1942 20.9198 16.2603 20.7547 15.3351C23.421 13.5977 25.3997 11.0045 26.3704 7.97581L40.5441 7.89249C41.5501 10.9089 43.559 13.4796 46.2457 15.1853C46.0918 16.1131 45.8925 17.0501 45.6527 17.9748C45.5168 18.4998 45.8322 19.0355 46.3566 19.1714C46.8821 19.3074 47.4173 18.992 47.5533 18.4671C47.8344 17.3813 48.0634 16.2792 48.2331 15.1915C48.3282 14.5837 48.0501 13.9861 47.5257 13.6692C45.023 12.1577 43.1731 9.78637 42.3168 6.99232C42.1241 6.36409 41.5317 5.92755 40.8743 5.92755H40.8651L26.0259 6.01445C25.3644 6.01854 24.7725 6.46377 24.5869 7.0966C23.764 9.90036 21.9416 12.2931 19.4568 13.8343C18.936 14.1569 18.6655 14.7575 18.7673 15.3648C18.9503 16.45 19.1915 17.5485 19.4855 18.6301Z" fill="#A02C12"/>
<path d="M45.5679 21.5402C45.0669 21.3326 44.4934 21.5719 44.2864 22.0728C42.0183 27.5699 38.4278 31.7492 33.6116 34.4998C28.758 31.8024 25.1155 27.6584 22.7835 22.1786C22.5709 21.6802 21.9943 21.4482 21.4959 21.6603C20.997 21.8724 20.7649 22.449 20.977 22.9474C23.5221 28.9271 27.5318 33.4351 32.8944 36.3452C33.1204 36.4684 33.3678 36.5292 33.6147 36.5292C33.8677 36.5292 34.1202 36.4653 34.3502 36.337C39.6725 33.3676 43.6259 28.8202 46.101 22.8212C46.308 22.3202 46.0693 21.7467 45.5679 21.5402Z" fill="#A02C12"/>
<path d="M6.29659 52.4449C4.38226 52.4449 2.82422 54.0025 2.82422 55.9173C2.82422 57.8322 4.38226 59.3897 6.29659 59.3897C8.21143 59.3897 9.76948 57.8322 9.76948 55.9173C9.76948 54.0025 8.21195 52.4449 6.29659 52.4449ZM6.29659 57.4268C5.46441 57.4268 4.78711 56.75 4.78711 55.9173C4.78711 55.0851 5.46441 54.4078 6.29659 54.4078C7.12929 54.4078 7.80659 55.0851 7.80659 55.9173C7.80659 56.75 7.12929 57.4268 6.29659 57.4268Z" fill="#A02C12"/>
<path d="M66.2961 42.8365C65.0381 40.9881 62.5053 40.4984 60.6503 41.7447L47.8199 50.3318L45.0811 50.1779L45.011 49.4766C44.7381 46.7301 42.6387 44.5418 39.906 44.1553C39.8886 44.1528 39.8717 44.1507 39.8543 44.1492L26.0293 42.9377C25.5615 42.8646 24.0643 42.4347 19.9504 40.0752C17.8122 38.8489 15.4031 38.1568 12.9556 38.0627V35.4951C12.9556 34.2064 11.9077 33.1585 10.619 33.1585H2.33656C1.04841 33.1585 0 34.2069 0 35.4951V60.7832C0 62.0713 1.04841 63.1197 2.33656 63.1197H10.619C11.9072 63.1197 12.9556 62.0713 12.9556 60.7832V60.0864L25.0407 64.6629C25.0672 64.6732 26.0487 65.0402 27.8531 64.87C27.8582 64.8694 47.9334 61.9752 47.9334 61.9752C47.9385 61.9747 47.9431 61.9737 47.9482 61.9727C49.6637 61.6992 51.2815 60.9738 52.6274 59.8763C52.6397 59.8661 52.6515 59.8559 52.6632 59.8457L65.6321 48.1813C67.1605 46.8241 67.4463 44.5264 66.2961 42.8365ZM64.324 46.7178L51.3689 58.3699C50.2965 59.2394 49.0094 59.8145 47.6456 60.0333L27.5801 62.926C27.5755 62.9265 27.5689 62.9275 27.5628 62.9285C27.5597 62.9291 27.5561 62.9296 27.5531 62.9301C26.9529 63.0246 26.3278 62.9848 25.6944 62.8115L12.9556 57.9876V46.7792C12.9556 46.2368 12.516 45.7977 11.9741 45.7977C11.4318 45.7977 10.9927 46.2368 10.9927 46.7792V60.7832C10.9927 60.9892 10.825 61.1568 10.619 61.1568H2.33656C2.13055 61.1568 1.96289 60.9892 1.96289 60.7832V35.4951C1.96289 35.2891 2.13055 35.1214 2.33656 35.1214H10.619C10.825 35.1214 10.9927 35.2891 10.9927 35.4951V42.3458C10.9927 42.8881 11.4323 43.3272 11.9741 43.3272C12.5165 43.3272 12.9556 42.8876 12.9556 42.3458V40.0276C15.0611 40.1207 17.1324 40.7218 18.9736 41.7784C23.9355 44.6241 25.3213 44.8204 25.7767 44.8848C25.7941 44.8873 25.811 44.8889 25.8284 44.8909L39.655 46.1024C41.4778 46.3718 42.8754 47.8357 43.0578 49.6708L43.11 50.1938L24.599 51.3367C24.5862 51.3357 24.5734 51.3347 24.5622 51.3337C23.9621 51.2795 23.4202 50.9958 23.0353 50.5347C22.6883 50.1181 22.0692 50.0619 21.6531 50.4095C21.2365 50.7566 21.1803 51.3756 21.5279 51.7917C22.2481 52.6556 23.2643 53.1724 24.3874 53.2889C24.9936 53.3523 44.1896 52.0938 44.1896 52.0938L48.0377 52.31C48.2503 52.3223 48.4614 52.264 48.6383 52.1454L61.7436 43.3748C62.7062 42.7281 64.0204 42.9817 64.6732 43.9406C65.2697 44.8178 65.1215 46.0099 64.324 46.7178Z" fill="#A02C12"/>
</g>
<defs>
<clipPath id="clip0_166_191">
<rect width="67" height="67" fill="white"/>
</clipPath>
</defs>
</svg>
