<svg width="51" height="50" viewBox="0 0 51 50" fill="none" xmlns="http://www.w3.org/2000/svg">
<ellipse cx="25.3835" cy="25" rx="24.7273" ry="24.1091" fill="#25D366"/>
<g clip-path="url(#clip0_296_765)">
<path d="M32.7464 31.6419V36.9884C32.7464 37.5901 32.0123 37.8732 31.6043 37.4475L25.3027 31.6419H19.9897C18.3333 31.6419 16.9808 30.2894 16.9808 28.633V17.0525C16.9808 15.3964 18.3333 14.0438 19.9897 14.0438H35.0881C36.7445 14.0438 38.097 15.396 38.097 17.0525V28.633C38.097 30.2894 36.7445 31.6419 35.0881 31.6419H32.7464ZM22.0053 21.2665C22.6327 21.2665 23.1413 21.775 23.1413 22.4024C23.1413 23.0299 22.6327 23.5384 22.0053 23.5384C21.3779 23.5384 20.8693 23.0299 20.8693 22.4024C20.8693 21.775 21.3779 21.2665 22.0053 21.2665ZM33.0725 21.2665C33.6999 21.2665 34.2085 21.775 34.2085 22.4024C34.2085 23.0299 33.6999 23.5384 33.0725 23.5384C32.445 23.5384 31.9365 23.0299 31.9365 22.4024C31.9365 21.775 32.445 21.2665 33.0725 21.2665ZM29.3834 21.2665C30.0108 21.2665 30.5194 21.775 30.5194 22.4024C30.5194 23.0299 30.0108 23.5384 29.3834 23.5384C28.756 23.5384 28.2474 23.0299 28.2474 22.4024C28.2474 21.775 28.756 21.2665 29.3834 21.2665ZM25.6944 21.2665C26.3218 21.2665 26.8303 21.775 26.8303 22.4024C26.8303 23.0299 26.3218 23.5384 25.6944 23.5384C25.0669 23.5384 24.5584 23.0299 24.5584 22.4024C24.5584 21.775 25.0669 21.2665 25.6944 21.2665ZM15.6652 27.383C16.5377 27.383 16.5377 28.7101 15.6652 28.7101C14.0088 28.7101 12.6562 27.3576 12.6562 25.7012V14.1206C12.6562 12.4645 14.0088 11.112 15.6652 11.112H30.7639C31.6364 11.112 31.6364 12.4388 30.7639 12.4388H15.6652C14.7416 12.4388 13.9834 13.197 13.9834 14.1206V25.7012C13.9834 26.6248 14.7416 27.383 15.6652 27.383ZM31.4196 35.4769V30.9782C31.4196 30.612 31.7167 30.3148 32.083 30.3148H35.0881C36.0117 30.3148 36.7702 29.5566 36.7702 28.633V17.0525C36.7702 16.1288 36.0117 15.3707 35.0881 15.3707H19.9897C19.0658 15.3707 18.3076 16.1288 18.3076 17.0525V28.633C18.3076 29.5566 19.0658 30.3148 19.9897 30.3148L25.5598 30.3164C25.7201 30.3164 25.881 30.3739 26.0082 30.4912L31.4196 35.4769Z" fill="white"/>
</g>
<defs>
<clipPath id="clip0_296_765">
<rect width="27.2" height="27.2" fill="white" transform="translate(11.7812 10.7819)"/>
</clipPath>
</defs>
</svg>
