<svg width="67" height="67" viewBox="0 0 67 67" fill="none" xmlns="http://www.w3.org/2000/svg">
<path d="M62.2809 30.2098L57.0139 24.8778C56.65 24.5095 56.1446 24.2985 55.6271 24.2985H47.3714C46.2964 24.2985 45.4219 25.173 45.4219 26.248V35.3562C45.4219 36.4312 46.2964 37.3058 47.3714 37.3058H60.8938C61.9688 37.3058 62.8434 36.4312 62.8434 35.3562V31.5799C62.8434 31.0636 62.6436 30.577 62.2809 30.2098ZM60.8938 35.3918H47.3713C47.3517 35.3918 47.3358 35.3758 47.3358 35.3562V26.248C47.3358 26.2284 47.3518 26.2124 47.3713 26.2124H55.6269C55.6364 26.2124 55.6457 26.2163 55.6522 26.2229L60.919 31.5547C60.9256 31.5614 60.9292 31.5703 60.9292 31.5797V35.3562H60.9294C60.9294 35.3758 60.9134 35.3918 60.8938 35.3918Z" fill="#A02C12"/>
<path d="M48.8157 38.4716H46.3788C45.8503 38.4716 45.4219 38.9001 45.4219 39.4286C45.4219 39.9571 45.8503 40.3856 46.3788 40.3856H48.8157C49.3443 40.3856 49.7727 39.9571 49.7727 39.4286C49.7727 38.9001 49.3443 38.4716 48.8157 38.4716Z" fill="#A02C12"/>
<path d="M35.7389 32.1791C34.1124 32.1791 32.7891 33.5024 32.7891 35.1289C32.7891 36.7554 34.1124 38.0786 35.7389 38.0786C37.3653 38.0786 38.6886 36.7554 38.6886 35.1289C38.6886 33.5024 37.3653 32.1791 35.7389 32.1791ZM35.7389 36.1646C35.1677 36.1646 34.703 35.7 34.703 35.1288C34.703 34.5576 35.1677 34.0931 35.7389 34.0931C36.31 34.0931 36.7746 34.5577 36.7746 35.1288C36.7746 35.7 36.31 36.1646 35.7389 36.1646Z" fill="#A02C12"/>
<path d="M66.0303 28.1799L59.1848 21.25C58.5579 20.6152 57.6865 20.251 56.794 20.251H44.4672C42.7032 20.251 41.2681 21.6862 41.2681 23.4502V32.2346C40.1993 30.2766 38.1212 28.9452 35.7376 28.9452C32.266 28.9452 29.4417 31.7695 29.4417 35.2411V40.7715H20.0271C19.0705 38.7098 16.974 37.3531 14.6781 37.3531H9.25542C6.95936 37.3531 4.863 38.7098 3.90641 40.7715H1.89929C0.852025 40.7715 0 41.6235 0 42.6708V48.7853C0 48.9291 0.00889844 49.0741 0.0264336 49.216C0.0272188 49.2226 0.0281348 49.2295 0.0290508 49.2361C0.214479 50.515 1.32848 51.4793 2.62046 51.4793H4.62195C5.38264 54.7977 8.3572 57.2811 11.903 57.2811C15.4486 57.2811 18.4232 54.7975 19.1839 51.4793H47.4802C48.2409 54.7977 51.2155 57.2811 54.7612 57.2811C58.3069 57.2811 61.2814 54.7975 62.0421 51.4793H62.8402C63.9291 51.4793 64.9637 51.0589 65.7537 50.2954C66.5574 49.5188 67 48.4898 67 47.3982V30.5414C67 29.6516 66.6556 28.8129 66.0303 28.1799ZM31.3557 35.2411C31.3557 32.8249 33.3214 30.8592 35.7377 30.8592C38.154 30.8592 40.1198 32.8249 40.1198 35.2411V40.7715H31.3557V35.2411ZM17.4267 50.415C17.124 53.1957 14.7626 55.3672 11.903 55.3672C9.04435 55.3672 6.6839 53.1975 6.37953 50.4186C6.35702 50.2127 6.34563 50.0079 6.34563 49.8098C6.34563 46.7455 8.83863 44.2525 11.903 44.2525C14.9673 44.2525 17.4603 46.7455 17.4603 49.8098C17.4602 50.0057 17.4488 50.2092 17.4267 50.415ZM19.3702 49.5654C19.3694 49.5419 19.3672 49.5189 19.3663 49.4956C19.3637 49.4336 19.3597 49.3718 19.3557 49.3101C19.3515 49.2462 19.3469 49.1825 19.3411 49.1191C19.3355 49.058 19.3287 48.9973 19.3215 48.9367C19.3142 48.8736 19.3065 48.8106 19.2974 48.748C19.2889 48.6882 19.2792 48.6287 19.2693 48.5693C19.2588 48.5067 19.2478 48.4443 19.2358 48.3823C19.2244 48.3236 19.2121 48.2654 19.1993 48.2073C19.1858 48.1457 19.1717 48.0842 19.1566 48.0231C19.1425 47.9656 19.1275 47.9086 19.112 47.8516C19.0955 47.7908 19.0784 47.7303 19.0603 47.6701C19.0436 47.6141 19.026 47.5585 19.0081 47.5032C18.9886 47.4432 18.9685 47.3836 18.9474 47.3243C18.9282 47.2698 18.9083 47.2158 18.8878 47.162C18.8655 47.103 18.8423 47.0445 18.8184 46.9863C18.7966 46.9333 18.7744 46.8807 18.7515 46.8283C18.7262 46.7706 18.7003 46.7134 18.6736 46.6565C18.6496 46.6049 18.625 46.5536 18.5997 46.5027C18.5717 46.4463 18.5429 46.3906 18.5136 46.335C18.4872 46.285 18.4605 46.2351 18.433 46.1858C18.4024 46.1308 18.3708 46.0765 18.3389 46.0225C18.3102 45.9741 18.2814 45.9258 18.2517 45.878C18.2185 45.8246 18.1845 45.7719 18.1499 45.7193C18.1192 45.6724 18.0883 45.6258 18.0565 45.5798C18.0208 45.528 17.984 45.4768 17.947 45.4259C17.9143 45.3809 17.8813 45.3359 17.8475 45.2915C17.8093 45.2413 17.7701 45.1919 17.7307 45.1428C17.696 45.0997 17.6613 45.0565 17.6257 45.0141C17.585 44.9657 17.5433 44.918 17.5015 44.8707C17.465 44.8293 17.4285 44.7878 17.3909 44.7473C17.348 44.7007 17.3039 44.6553 17.2598 44.6097C17.2215 44.5702 17.1831 44.5306 17.1439 44.492C17.0987 44.4475 17.0525 44.404 17.0062 44.3607C16.966 44.323 16.926 44.2852 16.885 44.2484C16.8377 44.206 16.7894 44.1648 16.741 44.1236C16.6992 44.088 16.6576 44.0521 16.615 44.0175C16.5656 43.9773 16.5152 43.9384 16.4647 43.8994C16.4213 43.8658 16.378 43.8319 16.3337 43.7992C16.2824 43.7614 16.2301 43.7249 16.1779 43.6883C16.1329 43.6568 16.0881 43.6249 16.0423 43.5943C15.9891 43.5587 15.9347 43.5248 15.8806 43.4905C15.8341 43.4612 15.7881 43.4313 15.7409 43.4031C15.6859 43.37 15.6297 43.3386 15.5738 43.3069C15.5261 43.2798 15.4786 43.2522 15.4302 43.2262C15.3734 43.1957 15.3155 43.1669 15.2578 43.1378C15.2087 43.1131 15.1601 43.0876 15.1102 43.0639C15.0516 43.0359 14.9919 43.01 14.9325 42.9834C14.8822 42.961 14.8325 42.9379 14.7817 42.9167C14.7213 42.8914 14.6599 42.8681 14.5987 42.8444C14.5475 42.8245 14.4969 42.8039 14.4453 42.7852C14.3831 42.7625 14.3198 42.7422 14.2569 42.7213C14.2049 42.704 14.1535 42.6857 14.1011 42.6696C14.0372 42.6498 13.9721 42.6326 13.9075 42.6145C13.855 42.5999 13.8029 42.5842 13.7499 42.5705C13.6836 42.5537 13.6163 42.5393 13.5493 42.5241C13.4968 42.5122 13.4449 42.4992 13.392 42.4885C13.3225 42.4744 13.252 42.463 13.1819 42.4508C13.1304 42.4419 13.0795 42.4316 13.0278 42.4239C12.9538 42.4126 12.8787 42.4044 12.8039 42.3953C12.7551 42.3894 12.7068 42.382 12.6579 42.3771C12.5748 42.3688 12.4908 42.3637 12.4069 42.358C12.3653 42.3553 12.3242 42.3508 12.2825 42.3487C12.1566 42.3425 12.0298 42.3391 11.9023 42.3391C11.7749 42.3391 11.6481 42.3423 11.5222 42.3487C11.4802 42.3508 11.4387 42.3553 11.3969 42.3582C11.3134 42.3638 11.2297 42.3689 11.1469 42.3773C11.0974 42.3822 11.0486 42.3897 10.9995 42.3957C10.9252 42.4047 10.8506 42.4129 10.7769 42.4241C10.7246 42.4321 10.6732 42.4424 10.6212 42.4515C10.5516 42.4635 10.4818 42.4748 10.4129 42.4888C10.3594 42.4996 10.3066 42.5128 10.2535 42.5249C10.1873 42.5399 10.1207 42.5541 10.0551 42.5708C10.0012 42.5845 9.94832 42.6005 9.89493 42.6154C9.83107 42.6332 9.76708 42.6504 9.70388 42.6697C9.65036 42.6862 9.59788 42.7048 9.54488 42.7225C9.48312 42.7431 9.42096 42.763 9.35985 42.7852C9.30698 42.8044 9.25503 42.8256 9.20269 42.8459C9.14275 42.8692 9.08269 42.8918 9.02354 42.9167C8.97146 42.9385 8.92042 42.9622 8.86886 42.9851C8.81076 43.011 8.75253 43.0364 8.69521 43.0638C8.64405 43.0882 8.59393 43.1144 8.54329 43.1399C8.48715 43.1683 8.43075 43.1962 8.37552 43.226C8.32553 43.253 8.27659 43.2814 8.22726 43.3094C8.17282 43.3403 8.11825 43.3707 8.06473 43.4029C8.01605 43.4323 7.96842 43.463 7.92053 43.4932C7.86805 43.5265 7.81531 43.5595 7.76362 43.5939C7.71625 43.6255 7.6698 43.6586 7.62321 43.6914C7.5727 43.7268 7.52193 43.762 7.47233 43.7987C7.4264 43.8326 7.38165 43.8678 7.3365 43.9027C7.28782 43.9404 7.23914 43.9779 7.19138 44.0168C7.14702 44.0529 7.10383 44.0902 7.06026 44.1272C7.01367 44.167 6.96695 44.2067 6.92128 44.2476C6.87862 44.286 6.83688 44.3252 6.795 44.3645C6.75051 44.4062 6.70602 44.448 6.66257 44.4908C6.62162 44.5312 6.58157 44.5726 6.54153 44.6138C6.49926 44.6575 6.45699 44.7011 6.41564 44.7458C6.37652 44.7882 6.3383 44.8315 6.30009 44.8748C6.25992 44.9204 6.21988 44.9659 6.18088 45.0124C6.14359 45.0567 6.10721 45.1019 6.07096 45.1472C6.03327 45.1943 5.99571 45.2415 5.95907 45.2895C5.92361 45.336 5.8892 45.3832 5.85478 45.4305C5.81945 45.4792 5.78438 45.528 5.75022 45.5774C5.71685 45.6257 5.6844 45.6747 5.65221 45.7239C5.61936 45.774 5.58678 45.8244 5.55498 45.8754C5.52384 45.9255 5.49348 45.9762 5.46338 46.0271C5.43289 46.0786 5.40292 46.1304 5.37374 46.1829C5.34482 46.2347 5.31669 46.2871 5.28907 46.3396C5.2612 46.3926 5.23372 46.4458 5.20703 46.4995C5.18046 46.553 5.15468 46.6069 5.12929 46.6612C5.10404 46.7154 5.07931 46.7698 5.05523 46.8247C5.03102 46.8799 5.0076 46.9354 4.98483 46.9912C4.96219 47.0466 4.9402 47.1022 4.91887 47.1581C4.89728 47.2149 4.87621 47.2719 4.85606 47.3292C4.83617 47.3855 4.81706 47.442 4.79848 47.499C4.77938 47.5573 4.76106 47.616 4.74339 47.6751C4.72638 47.7322 4.71015 47.7896 4.69432 47.8473C4.67796 47.9073 4.66226 47.9673 4.64734 48.0278C4.63308 48.0857 4.61973 48.144 4.6069 48.2025C4.59343 48.2637 4.58034 48.3252 4.56843 48.387C4.55705 48.4457 4.54671 48.5048 4.53676 48.5639C4.52616 48.6266 4.51609 48.6894 4.50706 48.7526C4.49855 48.8119 4.49136 48.8714 4.48429 48.9311C4.4767 48.9951 4.4695 49.0592 4.46361 49.1237C4.45812 49.1837 4.45393 49.2438 4.44987 49.304C4.44555 49.3692 4.44137 49.4344 4.43862 49.4999C4.4377 49.5219 4.43561 49.5436 4.43482 49.5658H2.62033C2.27578 49.5658 1.97833 49.3107 1.92468 48.971C1.91761 48.91 1.91395 48.8477 1.91395 48.7857V42.6858H4.53938C4.92097 42.6858 5.26591 42.4592 5.41758 42.1091L5.50983 41.8962C5.51625 41.8816 5.52213 41.8666 5.52776 41.8517C6.10681 40.306 7.60489 39.2675 9.25542 39.2675H14.6781C16.3286 39.2675 17.8267 40.306 18.4058 41.8517C18.4114 41.8666 18.4173 41.8813 18.4236 41.8958L18.5157 42.1087C18.6672 42.4592 19.0124 42.686 19.394 42.686H41.2681V49.5654H19.3702ZM60.2844 50.4186C59.9802 53.1975 57.6196 55.3672 54.7611 55.3672C51.9013 55.3672 49.54 53.1955 49.2373 50.415C49.2152 50.2092 49.2036 50.0056 49.2036 49.8098C49.2036 46.7455 51.6966 44.2525 54.7611 44.2525C57.8253 44.2525 60.3185 46.7455 60.3185 49.8098C60.3185 50.0071 60.3071 50.2119 60.2844 50.4186ZM65.0863 47.3982H65.0861C65.0861 48.5729 64.0575 49.5654 62.8402 49.5654H62.2286C62.2278 49.5419 62.2256 49.5189 62.2247 49.4956C62.2221 49.4336 62.2181 49.3718 62.2141 49.3101C62.2099 49.2462 62.2053 49.1825 62.1996 49.1191C62.1939 49.058 62.1871 48.9973 62.1801 48.9367C62.1727 48.8736 62.165 48.8106 62.156 48.748C62.1475 48.6882 62.1378 48.6287 62.1278 48.5693C62.1174 48.5067 62.1064 48.4443 62.0943 48.3823C62.083 48.3236 62.0707 48.2654 62.0578 48.2073C62.0444 48.1457 62.0302 48.0842 62.0152 48.0231C62.001 47.9656 61.986 47.9086 61.9706 47.8516C61.9541 47.7908 61.9369 47.7303 61.9189 47.6701C61.9021 47.6141 61.8846 47.5585 61.8666 47.5032C61.8472 47.4432 61.827 47.3836 61.8059 47.3243C61.7867 47.2698 61.7668 47.2158 61.7464 47.162C61.724 47.103 61.7008 47.0445 61.6769 46.9863C61.6552 46.9333 61.6329 46.8807 61.61 46.8283C61.5848 46.7706 61.5589 46.7134 61.5322 46.6565C61.5081 46.6049 61.4835 46.5536 61.4582 46.5027C61.4302 46.4463 61.4014 46.3906 61.3721 46.335C61.3457 46.285 61.319 46.2351 61.2915 46.1858C61.2609 46.1308 61.2294 46.0765 61.1974 46.0225C61.1688 45.9741 61.14 45.9258 61.1103 45.878C61.077 45.8246 61.043 45.7719 61.0085 45.7193C60.9777 45.6724 60.9468 45.6258 60.915 45.5798C60.8793 45.528 60.8425 45.4768 60.8055 45.4259C60.7728 45.3809 60.7398 45.3359 60.7061 45.2915C60.6678 45.2413 60.6286 45.1919 60.5892 45.1428C60.5545 45.0997 60.5198 45.0565 60.4843 45.0141C60.4436 44.9657 60.4019 44.918 60.3601 44.8707C60.3236 44.8293 60.287 44.7878 60.2495 44.7473C60.2064 44.7007 60.1625 44.6553 60.1184 44.6097C60.08 44.5702 60.0417 44.5306 60.0024 44.492C59.9573 44.4475 59.9111 44.404 59.8648 44.3607C59.8246 44.323 59.7845 44.2852 59.7436 44.2484C59.6962 44.206 59.6479 44.1648 59.5995 44.1236C59.5578 44.088 59.5162 44.0521 59.4736 44.0175C59.4243 43.9773 59.3738 43.9384 59.3234 43.8994C59.28 43.8658 59.2366 43.8319 59.1924 43.7992C59.1411 43.7614 59.0888 43.7249 59.0366 43.6883C58.9915 43.6568 58.9468 43.6249 58.901 43.5943C58.8477 43.5587 58.7934 43.5248 58.7392 43.4905C58.6928 43.4612 58.6467 43.4313 58.5996 43.4031C58.5445 43.37 58.4884 43.3386 58.4325 43.3069C58.3847 43.2798 58.3372 43.2522 58.2888 43.2262C58.232 43.1957 58.1742 43.1669 58.1165 43.1378C58.0674 43.1131 58.0186 43.0876 57.969 43.0639C57.9104 43.0359 57.8507 43.01 57.7913 42.9834C57.741 42.961 57.6913 42.9379 57.6405 42.9167C57.5801 42.8914 57.5187 42.8681 57.4575 42.8444C57.4063 42.8245 57.3557 42.8039 57.3041 42.7852C57.2419 42.7625 57.1786 42.7422 57.1157 42.7213C57.0637 42.704 57.0123 42.6857 56.9599 42.6696C56.896 42.6498 56.8309 42.6326 56.7663 42.6145C56.7138 42.5999 56.6617 42.5842 56.6087 42.5705C56.5424 42.5537 56.4751 42.5393 56.4081 42.5241C56.3556 42.5122 56.3037 42.4992 56.2509 42.4885C56.1815 42.4744 56.1109 42.463 56.0408 42.4508C55.9894 42.4419 55.9385 42.4316 55.8868 42.4239C55.8127 42.4126 55.7376 42.4044 55.6629 42.3953C55.6141 42.3894 55.5658 42.382 55.5168 42.3771C55.4337 42.3688 55.3497 42.3637 55.2658 42.358C55.2242 42.3553 55.1831 42.3508 55.1414 42.3487C55.0155 42.3425 54.8887 42.3391 54.7612 42.3391C54.6338 42.3391 54.507 42.3423 54.3811 42.3487C54.3394 42.3508 54.2983 42.3553 54.2568 42.358C54.1729 42.3637 54.0889 42.3688 54.0058 42.3771C53.9567 42.3821 53.9086 42.3894 53.8598 42.3953C53.7849 42.4044 53.7099 42.4126 53.6357 42.4239C53.584 42.4317 53.5333 42.4419 53.482 42.4508C53.4117 42.463 53.3412 42.4744 53.2715 42.4885C53.2188 42.4992 53.167 42.5123 53.1145 42.5241C53.0474 42.5393 52.98 42.5537 52.9136 42.5705C52.8606 42.584 52.8086 42.5999 52.7561 42.6145C52.6913 42.6326 52.6263 42.65 52.5623 42.6696C52.5098 42.6858 52.4584 42.704 52.4064 42.7213C52.3435 42.7422 52.2803 42.7625 52.2181 42.7852C52.1664 42.804 52.1157 42.8247 52.0645 42.8446C52.0034 42.8682 51.942 42.8915 51.8817 42.9168C51.8309 42.9381 51.7812 42.9612 51.7311 42.9835C51.6717 43.01 51.612 43.036 51.5534 43.064C51.5036 43.0877 51.455 43.1132 51.4059 43.138C51.3482 43.1671 51.2903 43.1958 51.2335 43.2263C51.1851 43.2523 51.1376 43.2799 51.0899 43.307C51.0338 43.3387 50.9777 43.3701 50.9226 43.4032C50.8755 43.4315 50.8294 43.4613 50.7831 43.4906C50.7289 43.5249 50.6746 43.5588 50.6214 43.5944C50.5757 43.625 50.531 43.6569 50.4858 43.6885C50.4336 43.7251 50.3813 43.7615 50.33 43.7993C50.2857 43.832 50.2425 43.8659 50.1991 43.8996C50.1487 43.9385 50.0982 43.9774 50.0489 44.0177C50.0063 44.0524 49.9649 44.0881 49.9231 44.1237C49.8746 44.1651 49.8261 44.2063 49.7788 44.2488C49.7378 44.2855 49.6979 44.3231 49.6579 44.3608C49.6115 44.4043 49.5652 44.4477 49.5201 44.4922C49.4808 44.5309 49.4426 44.5705 49.4043 44.61C49.3602 44.6554 49.3161 44.7009 49.2731 44.7475C49.2357 44.7881 49.1992 44.8294 49.1626 44.8709C49.1207 44.9183 49.0789 44.9659 49.0382 45.0143C49.0026 45.0567 48.968 45.0998 48.9333 45.143C48.8938 45.1922 48.8545 45.2415 48.8163 45.2918C48.7825 45.3361 48.7497 45.381 48.7169 45.426C48.6798 45.4769 48.6432 45.5281 48.6073 45.5799C48.5757 45.6259 48.5448 45.6724 48.514 45.7192C48.4795 45.7718 48.4452 45.8248 48.4119 45.8783C48.3824 45.9259 48.3536 45.9739 48.3251 46.0222C48.293 46.0765 48.2615 46.131 48.2307 46.1861C48.2032 46.2353 48.1767 46.2849 48.1504 46.3347C48.1209 46.3905 48.0921 46.4463 48.0641 46.5029C48.0389 46.5538 48.0144 46.6049 47.9903 46.6565C47.9638 46.7134 47.9377 46.7706 47.9126 46.8282C47.8897 46.8807 47.8674 46.9334 47.8457 46.9864C47.8219 47.0446 47.7987 47.1031 47.7764 47.1621C47.756 47.2159 47.7361 47.2701 47.7168 47.3244C47.6959 47.3837 47.6757 47.4434 47.6561 47.5033C47.638 47.5586 47.6206 47.6143 47.6039 47.6701C47.5858 47.7305 47.5687 47.7909 47.5522 47.8519C47.5368 47.9087 47.5218 47.9656 47.5077 48.0229C47.4927 48.0842 47.4785 48.1457 47.465 48.2074C47.4524 48.2655 47.4399 48.3236 47.4285 48.3823C47.4165 48.4443 47.4055 48.5067 47.395 48.5693C47.3851 48.6287 47.3754 48.6881 47.3669 48.748C47.358 48.8107 47.3503 48.8736 47.3428 48.9367C47.3358 48.9974 47.3288 49.058 47.3232 49.1191C47.3173 49.1825 47.3129 49.2462 47.3087 49.3101C47.3046 49.3718 47.3007 49.4335 47.2981 49.4956C47.2972 49.5189 47.2948 49.5419 47.2941 49.5654H43.1824V23.4502C43.1824 22.7416 43.7589 22.1651 44.4675 22.1651H56.7943C57.1785 22.1651 57.5535 22.3218 57.8234 22.595L64.6689 29.5249C64.938 29.7975 65.0863 30.1584 65.0863 30.5414V47.3982Z" fill="#A02C12"/>
<path d="M54.7603 45.8504C52.5771 45.8504 50.8008 47.6267 50.8008 49.8099C50.8008 51.9932 52.5771 53.7695 54.7603 53.7695C56.9436 53.7695 58.7197 51.9932 58.7197 49.8099C58.7197 47.6266 56.9436 45.8504 54.7603 45.8504ZM54.7603 51.8554C53.6323 51.8554 52.7147 50.9378 52.7147 49.8098C52.7147 48.6819 53.6323 47.7644 54.7603 47.7644C55.8882 47.7644 56.8058 48.6819 56.8058 49.8098C56.8058 50.9378 55.8881 51.8554 54.7603 51.8554Z" fill="#A02C12"/>
<path d="M14.703 47.01C13.1588 45.4661 10.6469 45.4664 9.10312 47.01C7.55938 48.5539 7.55938 51.0657 9.10312 52.6096C9.87506 53.3816 10.889 53.7675 11.9031 53.7675C12.917 53.7675 13.9311 53.3816 14.703 52.6096C16.2467 51.0657 16.2467 48.5539 14.703 47.01ZM13.3494 51.2563C12.5519 52.0539 11.2541 52.0536 10.4566 51.2563C9.65901 50.4587 9.65901 49.161 10.4566 48.3634C10.8553 47.9646 11.3792 47.7652 11.903 47.7652C12.4267 47.7652 12.9505 47.9646 13.3494 48.3634C14.1471 49.161 14.1471 50.4587 13.3494 51.2563Z" fill="#A02C12"/>
<path d="M39.0603 43.4592H21.3165C20.2632 43.4592 19.4062 44.3161 19.4062 45.3695V47.1416C19.4062 48.1949 20.2631 49.0519 21.3165 49.0519H23.8483C24.3768 49.0519 24.8052 48.6234 24.8052 48.0949C24.8052 47.5664 24.3768 47.1379 23.8483 47.1379L21.3202 47.1417L21.3164 45.3733L39.0564 45.3695L39.0602 47.1379H30.2842C29.7557 47.1379 29.3272 47.5664 29.3272 48.0949C29.3272 48.6234 29.7557 49.0519 30.2842 49.0519H39.0604C40.1137 49.0519 40.9707 48.195 40.9707 47.1416V45.3695C40.9706 44.3162 40.1136 43.4592 39.0603 43.4592Z" fill="#A02C12"/>
<path d="M35.1485 26.8221L14.8051 10.5071C14.0995 9.95435 13.2187 9.67575 12.3239 9.7243C11.3447 9.77677 10.4423 10.2049 9.78274 10.93C8.48488 12.3569 8.50621 14.5684 9.83142 15.9647C9.83443 15.9677 9.83744 15.9709 9.84045 15.9739L10.9458 17.1079V26.9415C10.9458 26.9577 10.9398 26.968 10.9419 26.9672C9.05542 27.4307 7.77392 29.178 7.89457 31.1219C8.01967 33.1369 9.6333 34.7505 11.6481 34.8755C11.7348 34.8808 11.821 34.8836 11.9068 34.8836C12.9329 34.8836 13.8997 34.5019 14.6525 33.7943C15.4573 33.0381 15.9187 31.9713 15.9187 30.8675C15.9187 30.339 15.4903 29.9105 14.9618 29.9105C14.4332 29.9105 14.0048 30.339 14.0048 30.8675C14.0048 31.4538 13.7694 31.9979 13.3419 32.3997C12.9147 32.8011 12.3532 33.0022 11.7668 32.9653C10.7309 32.9011 9.86911 32.0392 9.80486 31.0035C9.74165 29.9842 10.4119 29.0683 11.3987 28.826C12.259 28.6148 12.8598 27.8398 12.8598 26.9415V19.0715L27.5052 34.0954C27.6927 34.2878 27.9414 34.3844 28.1905 34.3844C28.4313 34.3844 28.6723 34.2941 28.8584 34.1127C29.2368 33.7437 29.2445 33.1379 28.8755 32.7593L11.2159 14.643C10.581 13.9698 10.573 12.9058 11.1986 12.218C11.5173 11.8676 11.9533 11.6609 12.4264 11.6355C12.8568 11.6127 13.2839 11.7467 13.6161 12.007L33.951 28.3154C34.3632 28.6459 34.9656 28.5798 35.2963 28.1675C35.6271 27.755 35.5609 27.1528 35.1485 26.8221Z" fill="#A02C12"/>
</svg>
