<svg width="27" height="27" viewBox="0 0 27 27" fill="none" xmlns="http://www.w3.org/2000/svg">
<path d="M19.1144 4.44198C19.1144 4.68354 19.3101 4.87939 19.5518 4.87939C19.7934 4.87939 19.9892 4.68354 19.9892 4.44198C20.0115 3.85549 19.7881 3.28609 19.3731 2.87111C18.9579 2.45612 18.3887 2.23272 17.8022 2.25493C17.5604 2.25429 17.3641 2.4495 17.3633 2.69106C17.3626 2.93262 17.5579 3.12911 17.7994 3.12975C18.1533 3.11031 18.4987 3.24231 18.7496 3.49262C19.0004 3.74294 19.133 4.08808 19.1144 4.44198Z" fill="#1E1E1E" fill-opacity="0.8"/>
<path d="M3.80433 11.0034H2.4921C2.25033 11.0034 2.05469 11.1993 2.05469 11.4408V12.7531C2.05469 12.9946 2.25033 13.1905 2.4921 13.1905C2.73366 13.1905 2.92951 12.9946 2.92951 12.7531V11.8782H3.80433C4.04589 11.8782 4.24174 11.6824 4.24174 11.4408C4.24174 11.1993 4.04589 11.0034 3.80433 11.0034Z" fill="#1E1E1E" fill-opacity="0.8"/>
<path d="M3.80433 24.1255H2.92951V23.2506C2.92951 23.0091 2.73366 22.8132 2.4921 22.8132C2.25033 22.8132 2.05469 23.0091 2.05469 23.2506V24.5629C2.05469 24.8044 2.25033 25.0003 2.4921 25.0003H3.80433C4.04589 25.0003 4.24174 24.8044 4.24174 24.5629C4.24174 24.3213 4.04589 24.1255 3.80433 24.1255Z" fill="#1E1E1E" fill-opacity="0.8"/>
<path d="M24.3629 22.8132C24.1212 22.8132 23.9255 23.0091 23.9255 23.2506V24.1255H23.0507C22.8089 24.1255 22.6133 24.3213 22.6133 24.5629C22.6133 24.8044 22.8089 25.0003 23.0507 25.0003H24.3629C24.6045 25.0003 24.8003 24.8044 24.8003 24.5629V23.2506C24.8003 23.0091 24.6045 22.8132 24.3629 22.8132Z" fill="#1E1E1E" fill-opacity="0.8"/>
<path d="M24.3629 11.0034H23.0507C22.8089 11.0034 22.6133 11.1993 22.6133 11.4408C22.6133 11.6824 22.8089 11.8782 23.0507 11.8782H23.9255V12.7531C23.9255 12.9946 24.1212 13.1905 24.3629 13.1905C24.6045 13.1905 24.8003 12.9946 24.8003 12.7531V11.4408C24.8003 11.1993 24.6045 11.0034 24.3629 11.0034Z" fill="#1E1E1E" fill-opacity="0.8"/>
<path d="M6.8671 5.75398H12.5534C12.795 5.75398 12.9908 5.55812 12.9908 5.31656C12.9908 5.075 12.795 4.87915 12.5534 4.87915H6.8671C6.62533 4.87915 6.42969 5.075 6.42969 5.31656C6.42969 5.55812 6.62533 5.75398 6.8671 5.75398Z" fill="#1E1E1E" fill-opacity="0.8"/>
<path d="M12.5503 3.12964H10.8007C10.5589 3.12964 10.3633 3.32549 10.3633 3.56705C10.3633 3.80861 10.5589 4.00446 10.8007 4.00446H12.5503C12.7919 4.00446 12.9878 3.80861 12.9878 3.56705C12.9878 3.32549 12.7919 3.12964 12.5503 3.12964Z" fill="#1E1E1E" fill-opacity="0.8"/>
<path d="M9.4873 3.56705C9.4873 3.32549 9.29144 3.12964 9.04989 3.12964H5.11319C4.87142 3.12964 4.67578 3.32549 4.67578 3.56705C4.67578 3.80861 4.87142 4.00446 5.11319 4.00446H9.04989C9.29144 4.00446 9.4873 3.80861 9.4873 3.56705Z" fill="#1E1E1E" fill-opacity="0.8"/>
<path d="M24.3623 9.25355H19.5507V7.96332C21.1883 7.15086 22.0511 5.31792 21.6338 3.53817C21.2165 1.75841 19.6291 0.5 17.8011 0.5C15.9731 0.5 14.3855 1.75841 13.9682 3.53817C13.5511 5.31792 14.4137 7.15086 16.0515 7.96332V9.25355H2.49174C1.28438 9.25504 0.305969 10.2335 0.304688 11.4406V24.5629C0.305969 25.7703 1.28438 26.7485 2.49174 26.75H24.3623C25.5694 26.7485 26.5478 25.7703 26.5493 24.5629V11.4406C26.5478 10.2335 25.5694 9.25504 24.3623 9.25355ZM19.5507 13.6277C19.5507 13.1445 19.9422 12.7528 20.4256 12.7528C20.9087 12.7528 21.3004 13.1445 21.3004 13.6277V22.8133C21.3004 23.2964 20.9087 23.6881 20.4256 23.6881C19.9422 23.6881 19.5507 23.2964 19.5507 22.8133V13.6277ZM14.7392 4.44203C14.7392 2.75113 16.11 1.38016 17.8011 1.38016C19.492 1.38016 20.863 2.75113 20.863 4.44203C20.863 6.13316 19.492 7.50391 17.8011 7.50391C16.1108 7.50199 14.7412 6.1323 14.7392 4.44203ZM17.8011 8.37873C18.0954 8.37787 18.3889 8.34391 18.6759 8.27728V18.8766H16.9263V8.27728C17.2131 8.34391 17.5066 8.37787 17.8011 8.37873ZM14.7392 18.8766C14.4975 18.8766 14.3018 19.0724 14.3018 19.314V22.8133C14.3018 23.2964 13.9101 23.6881 13.427 23.6881C12.9437 23.6881 12.5522 23.2964 12.5522 22.8133V19.314C12.5522 19.0724 12.3563 18.8766 12.1148 18.8766H7.74067C7.49889 18.8766 7.30326 19.0724 7.30326 19.314V22.8133C7.30326 23.2964 6.91155 23.6881 6.42843 23.6881C5.9451 23.6881 5.55361 23.2964 5.55361 22.8133V13.6277C5.55361 13.1445 5.9451 12.7528 6.42843 12.7528C6.91155 12.7528 7.30326 13.1445 7.30326 13.6277V16.6895C7.30326 16.9311 7.49889 17.1269 7.74067 17.1269H12.1148C12.3563 17.1269 12.5522 16.9311 12.5522 16.6895V13.6277C12.5522 13.1445 12.9437 12.7528 13.427 12.7528C13.9101 12.7528 14.3018 13.1445 14.3018 13.6277V16.6895C14.3018 16.9311 14.4975 17.1269 14.7392 17.1269H16.0515V18.8766H14.7392ZM25.6745 24.5629C25.6745 25.2876 25.0869 25.8751 24.3623 25.8751H2.49174C1.76685 25.8751 1.17951 25.2876 1.17951 24.5629V11.4406C1.17951 10.7159 1.76685 10.1284 2.49174 10.1284H16.0515V16.2521H15.1766V13.6277C15.1766 12.6614 14.3932 11.878 13.427 11.878C12.4606 11.878 11.6774 12.6614 11.6774 13.6277V16.2521H8.17808V13.6277C8.17808 12.6614 7.39467 11.878 6.42843 11.878C5.46199 11.878 4.67879 12.6614 4.67879 13.6277V22.8133C4.67879 23.7795 5.46199 24.5629 6.42843 24.5629C7.39467 24.5629 8.17808 23.7795 8.17808 22.8133V19.7514H11.6774V22.8133C11.6774 23.7795 12.4606 24.5629 13.427 24.5629C14.3932 24.5629 15.1766 23.7795 15.1766 22.8133V19.7514H18.6759V22.8133C18.6759 23.7795 19.4591 24.5629 20.4256 24.5629C21.3918 24.5629 22.1752 23.7795 22.1752 22.8133V13.6277C22.1752 12.6614 21.3918 11.878 20.4256 11.878C20.1174 11.8799 19.8154 11.9639 19.5507 12.1213V10.1284H24.3623C25.0869 10.1284 25.6745 10.7159 25.6745 11.4406V24.5629Z" fill="#1E1E1E" fill-opacity="0.8"/>
</svg>
