<svg width="30" height="30" viewBox="0 0 30 30" fill="none" xmlns="http://www.w3.org/2000/svg">
<path d="M29.4741 12.842C29.406 12.6379 29.2151 12.5002 29 12.5H27C26.7239 12.5 26.5 12.7239 26.5 13V15.5H25.5V11.5C25.5 11.2239 25.2761 11 25 11H21V8.5C21 8.22388 20.7761 8 20.5 8H17V7H23.5C23.7761 7 24 6.77612 24 6.5V4.5C24 4.22388 23.7761 4 23.5 4H7.5C7.22388 4 7 4.22388 7 4.5V6.5C7 6.77612 7.22388 7 7.5 7H14V8H10.5C10.2239 8 10 8.22388 10 8.5V11.2324L7.3501 13H4.5C4.22388 13 4 13.2239 4 13.5V15H3V11C3 10.7239 2.77612 10.5 2.5 10.5H0.5C0.223877 10.5 0 10.7239 0 11V23.5C0 23.7761 0.223877 24 0.5 24H2.5C2.77612 24 3 23.7761 3 23.5V20H4V21.5C4 21.7761 4.22388 22 4.5 22H7.3501L10.2241 23.916C10.3059 23.9705 10.4019 23.9995 10.5 24H11.5V25.5C11.5 25.7761 11.7239 26 12 26H19C19.2761 26 19.5 25.7761 19.5 25.5V24H25C25.2761 24 25.5 23.7761 25.5 23.5V19.5H26.5V22C26.5 22.2761 26.7239 22.5 27 22.5H29C29.2151 22.4998 29.406 22.3621 29.4741 22.158L29.9741 20.658C29.9912 20.6072 29.9998 20.5537 30 20.5V14.5C29.9998 14.4463 29.9912 14.3928 29.9741 14.342L29.4741 12.842ZM8 5H23V6H8V5ZM15 7H16V8H15V7ZM2 23H1V11.5H2V23ZM3 19V16H4V19H3ZM7.77759 21.084C7.69531 21.0293 7.59863 21.0002 7.5 21H5V14H7V17C7 17.2761 7.22388 17.5 7.5 17.5C7.77612 17.5 8 17.2761 8 17V13.7676L10.7776 11.9175C10.917 11.8245 11.0005 11.6677 11 11.5V9H20V11H15C14.7239 11 14.5 11.2239 14.5 11.5C14.5 11.7761 14.7239 12 15 12H22.5V23H10.6499L7.77759 21.084ZM18.5 25H12.5V24H18.5V25ZM24.5 23H23.5V12H24.5V23ZM25.5 18.5V16.5H26.5V18.5H25.5ZM29 20.4189L28.6394 21.5H27.5V13.5H28.6394L29 14.5811V20.4189Z" fill="#1E1E1E" fill-opacity="0.8"/>
<path d="M12.5 12H13C13.2761 12 13.5 11.7761 13.5 11.5C13.5 11.2239 13.2761 11 13 11H12.5C12.2239 11 12 11.2239 12 11.5C12 11.7761 12.2239 12 12.5 12Z" fill="#1E1E1E" fill-opacity="0.8"/>
<path d="M7.5 18.5C7.22388 18.5 7 18.7239 7 19V19.5C7 19.7761 7.22388 20 7.5 20C7.77612 20 8 19.7761 8 19.5V19C8 18.7239 7.77612 18.5 7.5 18.5Z" fill="#1E1E1E" fill-opacity="0.8"/>
<path d="M9.5 15H21C21.2761 15 21.5 14.7761 21.5 14.5C21.5 14.2239 21.2761 14 21 14H9.5C9.22388 14 9 14.2239 9 14.5C9 14.7761 9.22388 15 9.5 15Z" fill="#1E1E1E" fill-opacity="0.8"/>
<path d="M9.5 17H21C21.2761 17 21.5 16.7761 21.5 16.5C21.5 16.2239 21.2761 16 21 16H9.5C9.22388 16 9 16.2239 9 16.5C9 16.7761 9.22388 17 9.5 17Z" fill="#1E1E1E" fill-opacity="0.8"/>
<path d="M9.5 19H21C21.2761 19 21.5 18.7761 21.5 18.5C21.5 18.2239 21.2761 18 21 18H9.5C9.22388 18 9 18.2239 9 18.5C9 18.7761 9.22388 19 9.5 19Z" fill="#1E1E1E" fill-opacity="0.8"/>
<path d="M21.5 20.5C21.5 20.2239 21.2761 20 21 20H9.5C9.22388 20 9 20.2239 9 20.5C9 20.7761 9.22388 21 9.5 21H21C21.2761 21 21.5 20.7761 21.5 20.5Z" fill="#1E1E1E" fill-opacity="0.8"/>
</svg>
