<svg width="31" height="30" viewBox="0 0 31 30" fill="none" xmlns="http://www.w3.org/2000/svg">
<g clip-path="url(#clip0_168_1238)">
<path d="M24.4414 20.8573V20.2336C24.4414 20.1716 24.4076 20.1122 24.3474 20.0684C24.2871 20.0246 24.2055 20 24.1203 20H7.26252C7.17735 20 7.09568 20.0246 7.03546 20.0684C6.97524 20.1122 6.94141 20.1716 6.94141 20.2336V20.8573C6.94141 21.5623 9.81151 22.5 11.1242 22.5H20.2579C21.5713 22.5 24.4414 21.5623 24.4414 20.8573ZM19.8906 21.7309C19.8906 21.8966 19.7563 22.0309 19.5906 22.0309H17.7835C17.6179 22.0309 17.4835 21.8966 17.4835 21.7309V20.7681C17.4835 20.6025 17.6179 20.4681 17.7835 20.4681H19.5906C19.7563 20.4681 19.8906 20.6025 19.8906 20.7681V21.7309ZM11.4903 20.7681C11.4903 20.6025 11.6246 20.4681 11.7903 20.4681H13.5973C13.763 20.4681 13.8973 20.6025 13.8973 20.7681V21.7309C13.8973 21.8966 13.763 22.0309 13.5973 22.0309H11.7903C11.6246 22.0309 11.4903 21.8966 11.4903 21.7309V20.7681ZM14.5428 20.7681C14.5428 20.6025 14.6771 20.4681 14.8428 20.4681H16.5387C16.7044 20.4681 16.8387 20.6025 16.8387 20.7681V21.7309C16.8387 21.8966 16.7044 22.0309 16.5387 22.0309H14.8428C14.6771 22.0309 14.5428 21.8966 14.5428 21.7309V20.7681ZM7.60588 20.8959C7.58806 20.872 7.58492 20.8422 7.58492 20.8124V20.7681C7.58492 20.6025 7.71923 20.4681 7.88492 20.4681H10.5449C10.7105 20.4681 10.8449 20.6025 10.8449 20.7681V21.6936C10.8449 21.8688 10.6955 22.007 10.5223 21.9812C9.3095 21.8005 7.81179 21.1718 7.60588 20.8959ZM20.8586 21.9812C20.6854 22.007 20.536 21.8688 20.536 21.6936V20.7681C20.536 20.6025 20.6703 20.4681 20.836 20.4681H23.4966C23.6623 20.4681 23.7966 20.6025 23.7966 20.7681V20.8057C23.7966 20.835 23.7936 20.8643 23.7765 20.888C23.5735 21.169 22.0732 21.8002 20.8586 21.9812Z" fill="#1E1E1E" fill-opacity="0.8"/>
<path d="M30.3161 15.8084H28.2473C27.93 15.8084 27.6545 15.5943 27.5604 15.2914C27.2245 14.2097 26.7567 13.2269 26.1097 12.4293C26.0018 12.2963 25.9379 12.1321 25.9379 11.961V8.96183C25.9379 8.87204 25.8983 8.78593 25.8279 8.72245C25.7575 8.65896 25.6621 8.62329 25.5626 8.62329H22.9425C22.6419 8.62329 22.3785 8.42951 22.2588 8.15368C22.2378 8.10512 22.216 8.05679 22.1936 8.00872C22.0535 7.7078 22.1057 7.34462 22.3522 7.12226L24.1327 5.51622C24.1678 5.48475 24.1958 5.4473 24.2148 5.40605C24.2339 5.3648 24.2437 5.32055 24.2437 5.27586C24.2437 5.23117 24.2339 5.18692 24.2148 5.14567C24.1958 5.10441 24.1678 5.06697 24.1327 5.0355L21.7382 2.87564C21.7034 2.84391 21.6618 2.81873 21.6161 2.80154C21.5704 2.78436 21.5213 2.77551 21.4718 2.77551C21.4222 2.77551 21.3732 2.78436 21.3274 2.80154C21.2817 2.81873 21.2402 2.84391 21.2053 2.87564L19.354 4.54563C19.1431 4.73588 18.8392 4.77692 18.5758 4.67053C18.4742 4.62948 18.3715 4.59063 18.2679 4.554C17.9709 4.44905 17.7593 4.17611 17.7593 3.86115V1.58854C17.7593 1.49875 17.7198 1.41264 17.6494 1.34915C17.579 1.28567 17.4835 1.25 17.384 1.25H13.9958C13.8963 1.25 13.8008 1.28567 13.7304 1.34915C13.66 1.41264 13.6205 1.49875 13.6205 1.58854V3.86004C13.6205 4.17457 13.4095 4.44729 13.113 4.55226C13.0083 4.58931 12.9047 4.6286 12.8021 4.67008C12.539 4.77648 12.2354 4.73541 12.0246 4.54539L10.1745 2.87768C10.1025 2.8163 10.0071 2.78211 9.90803 2.78211C9.80894 2.78211 9.7136 2.8163 9.64157 2.87768L7.24715 5.03753C7.21197 5.069 7.18405 5.10644 7.165 5.1477C7.14595 5.18895 7.13614 5.2332 7.13614 5.27789C7.13614 5.32258 7.14595 5.36683 7.165 5.40808C7.18405 5.44934 7.21197 5.48678 7.24715 5.51825L9.02488 7.12128C9.2716 7.34376 9.32376 7.70729 9.18329 8.00836C9.16031 8.05762 9.13802 8.10714 9.11643 8.15691C8.99676 8.43282 8.73337 8.62668 8.43263 8.62668H5.82176C5.72223 8.62668 5.62677 8.66234 5.55638 8.72583C5.486 8.78932 5.44646 8.87543 5.44646 8.96521V11.9589C5.44646 12.1301 5.38248 12.2943 5.27464 12.4272C4.62757 13.2248 4.15985 14.2076 3.82387 15.2894C3.72977 15.5923 3.45428 15.8063 3.13705 15.8063H1.06671C0.967171 15.8063 0.871712 15.842 0.801329 15.9055C0.730947 15.969 0.691406 16.0551 0.691406 16.1449V16.8301C0.691207 17.3591 0.923813 17.8667 1.33814 18.2412C1.75246 18.6157 2.31463 18.8265 2.90117 18.8274C3.03547 18.8274 3.1404 18.9433 3.12851 19.077C3.05647 19.8874 3.02075 20.6988 3.00317 21.4844C3.0022 21.5275 2.99469 21.5704 2.99425 21.6136V26.0951C2.99484 26.4675 3.15913 26.8246 3.45109 27.0879C3.74304 27.3513 4.13885 27.4995 4.55174 27.5H7.8101C8.22299 27.4995 8.6188 27.3513 8.91076 27.0879C9.20272 26.8246 9.367 26.4675 9.3676 26.0951V24.7849C9.3676 24.3983 9.681 24.0849 10.0676 24.0849H21.3167C21.7033 24.0849 22.0167 24.3983 22.0167 24.7849V26.0951C22.0173 26.4673 22.1814 26.8241 22.473 27.0874C22.7647 27.3508 23.1601 27.4991 23.5727 27.5H26.8258C27.2387 27.4995 27.6345 27.3513 27.9265 27.0879C28.2184 26.8246 28.3827 26.4675 28.3833 26.0951V21.6136C28.3829 21.5704 28.3755 21.5275 28.3747 21.4844C28.3602 20.699 28.3248 19.8879 28.2529 19.0778C28.2409 18.9436 28.3462 18.8274 28.4809 18.8274C29.067 18.8269 29.6289 18.6166 30.0433 18.2428C30.4577 17.869 30.6908 17.3621 30.6914 16.8334V16.1482C30.6916 16.1037 30.682 16.0595 30.6633 16.0183C30.6445 15.977 30.6169 15.9396 30.582 15.908C30.5471 15.8764 30.5057 15.8514 30.4601 15.8343C30.4144 15.8172 30.3655 15.8084 30.3161 15.8084ZM9.82847 11.0621H21.5543C23.7974 11.0621 25.391 12.1162 26.3826 14.3073C26.3894 14.3223 26.3853 14.3403 26.3724 14.3506L25.4492 15.1827C25.0055 15.5852 24.4777 15.9042 23.8964 16.1214C23.315 16.3386 22.6917 16.4497 22.0625 16.4482H9.32031C8.6911 16.4496 8.06782 16.3385 7.4865 16.1213C6.90519 15.9041 6.37738 15.5851 5.9336 15.1827L5.01111 14.3506C4.99823 14.3398 4.99419 14.3215 5.00112 14.3062C5.99204 12.116 7.58632 11.0621 9.82847 11.0621ZM15.6914 10.3796H13.1419C12.7461 10.3796 12.4212 10.0459 12.5393 9.66813C12.6945 9.17127 12.9929 8.71555 13.4104 8.35024C14.021 7.81586 14.8384 7.51699 15.6892 7.51699C16.5399 7.51699 17.3573 7.81586 17.9679 8.35024C18.3854 8.71555 18.6838 9.17127 18.839 9.66813C18.9571 10.0459 18.6322 10.3796 18.2364 10.3796H15.6914ZM9.22273 9.30375C9.3065 9.3041 9.388 9.27917 9.45424 9.23291C9.52049 9.18665 9.56767 9.12174 9.58827 9.04849C9.73163 8.54529 9.95165 8.06246 10.242 7.61378C10.2844 7.54889 10.3016 7.47311 10.2908 7.39843C10.2801 7.32375 10.2421 7.25443 10.1827 7.20144L8.62445 5.7958C8.31593 5.5175 8.31632 5.03329 8.62528 4.75549L9.443 4.02025C9.70946 3.78067 10.1138 3.781 10.3799 4.021L12.0442 5.52231C12.1031 5.57571 12.18 5.6099 12.2628 5.61946C12.3455 5.62902 12.4295 5.61342 12.5014 5.57512C12.9995 5.31098 13.5358 5.11024 14.0949 4.97862C14.1758 4.95994 14.2475 4.91742 14.2986 4.85782C14.3498 4.79821 14.3774 4.72493 14.3771 4.64957V2.6291C14.3771 2.2425 14.6905 1.9291 15.0771 1.9291H16.305C16.6916 1.9291 17.005 2.2425 17.005 2.6291V4.64957C17.0047 4.72493 17.0323 4.79821 17.0834 4.85782C17.1345 4.91742 17.2062 4.95994 17.2872 4.97862C17.8458 5.11007 18.3815 5.31057 18.8792 5.57445C18.9511 5.61292 19.0353 5.62861 19.1182 5.61904C19.2012 5.60948 19.2782 5.57519 19.3371 5.52163L21.0022 4.01861C21.2685 3.77816 21.6736 3.77809 21.9401 4.01845L22.7563 4.75472C23.0645 5.03272 23.0645 5.51629 22.7563 5.79428L21.1941 7.20348C21.1347 7.25647 21.0967 7.32578 21.086 7.40046C21.0752 7.47514 21.0924 7.55092 21.1348 7.61581C21.4246 8.06376 21.6446 8.54564 21.7885 9.04781C21.8093 9.12082 21.8564 9.1855 21.9225 9.23162C21.9885 9.27773 22.0698 9.30264 22.1533 9.30239H24.4835C24.8701 9.30239 25.1835 9.61579 25.1835 10.0024V10.0926C25.1835 10.6742 24.4897 11.0294 23.9505 10.8115C23.2623 10.5335 22.4688 10.3796 21.5543 10.3796H20.393C20.0146 10.3796 19.7122 10.0755 19.6236 9.70771C19.4568 9.01535 19.0677 8.37685 18.497 7.87588C17.7453 7.21612 16.7379 6.84697 15.6892 6.84697C14.6404 6.84697 13.633 7.21612 12.8813 7.87588C12.3106 8.37685 11.9215 9.01535 11.7547 9.70771C11.6661 10.0755 11.3637 10.3796 10.9853 10.3796H9.82847C8.91258 10.3796 8.11891 10.5332 7.42985 10.8115C6.89124 11.0291 6.19931 10.6743 6.19931 10.0934V10.0063C6.19931 9.62006 6.51224 9.30678 6.89853 9.30635L9.22273 9.30375ZM2.90117 18.1476C2.5149 18.1473 2.14456 18.0087 1.87142 17.7623C1.59828 17.5159 1.44466 17.1819 1.44426 16.8334C1.44426 16.6427 1.59886 16.4881 1.78956 16.4881H2.64124C3.08779 16.4881 3.42011 16.9008 3.34653 17.3412C3.31981 17.5011 3.29502 17.6619 3.27206 17.8233C3.24571 18.0085 3.08822 18.1476 2.90117 18.1476ZM7.8101 26.8195H4.5555C4.34255 26.8194 4.13838 26.743 3.98781 26.6072C3.83723 26.4713 3.75255 26.2872 3.75236 26.0951V24.8991C3.75236 24.4154 4.3346 24.0854 4.81821 24.0849H7.91174C8.29834 24.0849 8.61174 24.3983 8.61174 24.7849V26.0951C8.61154 26.2869 8.52707 26.4709 8.37682 26.6067C8.22657 26.7425 8.02279 26.819 7.8101 26.8195ZM15.6914 23.4037C15.6914 23.4045 15.6908 23.4051 15.6901 23.4051H4.81821C4.53565 23.4047 4.26477 23.3033 4.06497 23.1231C3.86517 22.9429 3.75275 22.6985 3.75236 22.4436V22.3915C3.75236 19.7682 3.97495 17.6207 4.43098 15.928C4.5466 15.4988 5.07 15.3638 5.40067 15.6608C5.91418 16.1266 6.52501 16.496 7.19781 16.7475C7.87061 16.999 8.59203 17.1276 9.32031 17.1259H22.0625C22.7908 17.1277 23.5123 16.9991 24.1851 16.7476C24.8579 16.4961 25.4687 16.1267 25.9821 15.6608C26.3126 15.363 26.8366 15.4978 26.9523 15.9272C27.408 17.6193 27.6305 19.7663 27.6305 22.3888V22.4409C27.6303 22.6958 27.518 22.9401 27.3183 23.1203C27.1186 23.3006 26.8478 23.402 26.5654 23.4024H15.6928C15.692 23.4024 15.6914 23.403 15.6914 23.4037ZM26.8273 26.8195H23.5727C23.3598 26.8194 23.1556 26.743 23.005 26.6072C22.8544 26.4713 22.7698 26.2872 22.7696 26.0951V24.7849C22.7696 24.3983 23.083 24.0849 23.4696 24.0849H26.5639C27.0471 24.0853 27.629 24.4151 27.629 24.8983V26.0951C27.6288 26.2869 27.5443 26.4709 27.394 26.6067C27.2438 26.7425 27.04 26.819 26.8273 26.8195ZM29.9386 16.8334C29.9384 17.1818 29.7849 17.5159 29.5119 17.7623C29.2389 18.0087 28.8686 18.1473 28.4824 18.1476C28.2929 18.1476 28.133 18.0073 28.1058 17.8198C28.0827 17.6597 28.0582 17.5003 28.0319 17.3417C27.9591 16.9011 28.2922 16.4881 28.7388 16.4881H29.5902C29.7814 16.4881 29.9369 16.6423 29.9386 16.8334Z" fill="#1E1E1E" fill-opacity="0.8"/>
</g>
<defs>
<clipPath id="clip0_168_1238">
<rect width="30" height="30" fill="white" transform="translate(0.691406)"/>
</clipPath>
</defs>
</svg>
